G04 #@! TF.FileFunction,Legend,Top*
%FSLAX46Y46*%
G04 Gerber Fmt 4.6, Leading zero omitted, Abs format (unit mm)*
G04 Created by KiCad (PCBNEW 4.0.2+dfsg1-stable) date Mon 01 Oct 2018 11:39:29 PM EDT*
%MOMM*%
G01*
G04 APERTURE LIST*
%ADD10C,0.100000*%
%ADD11C,0.200000*%
%ADD12C,0.300000*%
%ADD13C,0.381000*%
%ADD14C,0.203200*%
%ADD15C,0.150000*%
G04 APERTURE END LIST*
D10*
D11*
X155575000Y-99060000D02*
X155575000Y-98425000D01*
X156210000Y-99060000D02*
X155575000Y-99060000D01*
X156845000Y-98425000D02*
X156210000Y-99060000D01*
X156845000Y-97155000D02*
X156845000Y-98425000D01*
X157480000Y-97790000D02*
X156845000Y-97155000D01*
X156210000Y-97790000D02*
X157480000Y-97790000D01*
X155575000Y-98425000D02*
X156210000Y-97790000D01*
D12*
X118717143Y-92597856D02*
X118788571Y-92740713D01*
X118788571Y-93026427D01*
X118717143Y-93169284D01*
X118574286Y-93240713D01*
X118002857Y-93240713D01*
X117860000Y-93169284D01*
X117788571Y-93026427D01*
X117788571Y-92740713D01*
X117860000Y-92597856D01*
X118002857Y-92526427D01*
X118145714Y-92526427D01*
X118288571Y-93240713D01*
X118717143Y-91954999D02*
X118788571Y-91812142D01*
X118788571Y-91526427D01*
X118717143Y-91383570D01*
X118574286Y-91312142D01*
X118502857Y-91312142D01*
X118360000Y-91383570D01*
X118288571Y-91526427D01*
X118288571Y-91740713D01*
X118217143Y-91883570D01*
X118074286Y-91954999D01*
X118002857Y-91954999D01*
X117860000Y-91883570D01*
X117788571Y-91740713D01*
X117788571Y-91526427D01*
X117860000Y-91383570D01*
X117788571Y-90669284D02*
X119288571Y-90669284D01*
X117860000Y-90669284D02*
X117788571Y-90526427D01*
X117788571Y-90240713D01*
X117860000Y-90097856D01*
X117931429Y-90026427D01*
X118074286Y-89954998D01*
X118502857Y-89954998D01*
X118645714Y-90026427D01*
X118717143Y-90097856D01*
X118788571Y-90240713D01*
X118788571Y-90526427D01*
X118717143Y-90669284D01*
X117288571Y-89454998D02*
X117288571Y-88526427D01*
X117860000Y-89026427D01*
X117860000Y-88812141D01*
X117931429Y-88669284D01*
X118002857Y-88597855D01*
X118145714Y-88526427D01*
X118502857Y-88526427D01*
X118645714Y-88597855D01*
X118717143Y-88669284D01*
X118788571Y-88812141D01*
X118788571Y-89240713D01*
X118717143Y-89383570D01*
X118645714Y-89454998D01*
X117431429Y-87954999D02*
X117360000Y-87883570D01*
X117288571Y-87740713D01*
X117288571Y-87383570D01*
X117360000Y-87240713D01*
X117431429Y-87169284D01*
X117574286Y-87097856D01*
X117717143Y-87097856D01*
X117931429Y-87169284D01*
X118788571Y-88026427D01*
X118788571Y-87097856D01*
X118931429Y-86812142D02*
X118931429Y-85669285D01*
X118788571Y-85312142D02*
X117788571Y-85312142D01*
X117931429Y-85312142D02*
X117860000Y-85240714D01*
X117788571Y-85097856D01*
X117788571Y-84883571D01*
X117860000Y-84740714D01*
X118002857Y-84669285D01*
X118788571Y-84669285D01*
X118002857Y-84669285D02*
X117860000Y-84597856D01*
X117788571Y-84454999D01*
X117788571Y-84240714D01*
X117860000Y-84097856D01*
X118002857Y-84026428D01*
X118788571Y-84026428D01*
X118788571Y-82669285D02*
X118002857Y-82669285D01*
X117860000Y-82740714D01*
X117788571Y-82883571D01*
X117788571Y-83169285D01*
X117860000Y-83312142D01*
X118717143Y-82669285D02*
X118788571Y-82812142D01*
X118788571Y-83169285D01*
X118717143Y-83312142D01*
X118574286Y-83383571D01*
X118431429Y-83383571D01*
X118288571Y-83312142D01*
X118217143Y-83169285D01*
X118217143Y-82812142D01*
X118145714Y-82669285D01*
X118788571Y-82097856D02*
X117788571Y-81312142D01*
X117788571Y-82097856D02*
X118788571Y-81312142D01*
X118788571Y-79954999D02*
X118788571Y-80812142D01*
X118788571Y-80383570D02*
X117288571Y-80383570D01*
X117502857Y-80526427D01*
X117645714Y-80669285D01*
X117717143Y-80812142D01*
X118788571Y-78526428D02*
X118788571Y-79383571D01*
X118788571Y-78954999D02*
X117288571Y-78954999D01*
X117502857Y-79097856D01*
X117645714Y-79240714D01*
X117717143Y-79383571D01*
X118788571Y-77812143D02*
X118788571Y-77526428D01*
X118717143Y-77383571D01*
X118645714Y-77312143D01*
X118431429Y-77169285D01*
X118145714Y-77097857D01*
X117574286Y-77097857D01*
X117431429Y-77169285D01*
X117360000Y-77240714D01*
X117288571Y-77383571D01*
X117288571Y-77669285D01*
X117360000Y-77812143D01*
X117431429Y-77883571D01*
X117574286Y-77955000D01*
X117931429Y-77955000D01*
X118074286Y-77883571D01*
X118145714Y-77812143D01*
X118217143Y-77669285D01*
X118217143Y-77383571D01*
X118145714Y-77240714D01*
X118074286Y-77169285D01*
X117931429Y-77097857D01*
X117288571Y-76597857D02*
X117288571Y-75669286D01*
X117860000Y-76169286D01*
X117860000Y-75955000D01*
X117931429Y-75812143D01*
X118002857Y-75740714D01*
X118145714Y-75669286D01*
X118502857Y-75669286D01*
X118645714Y-75740714D01*
X118717143Y-75812143D01*
X118788571Y-75955000D01*
X118788571Y-76383572D01*
X118717143Y-76526429D01*
X118645714Y-76597857D01*
D13*
X159050000Y-77804000D02*
X159050000Y-84916000D01*
X159050000Y-84916000D02*
X171750000Y-84916000D01*
X171750000Y-84916000D02*
X171750000Y-77804000D01*
X171750000Y-77804000D02*
X159050000Y-77804000D01*
D14*
X159050000Y-80852000D02*
X159812000Y-80852000D01*
X159812000Y-80852000D02*
X159812000Y-81868000D01*
X159812000Y-81868000D02*
X159050000Y-81868000D01*
D15*
X158180000Y-107074000D02*
X173420000Y-107074000D01*
X173420000Y-107074000D02*
X173420000Y-89040000D01*
X173420000Y-89040000D02*
X158180000Y-89040000D01*
X158180000Y-89040000D02*
X158180000Y-107074000D01*
X141000000Y-106000000D02*
X141000000Y-105000000D01*
X141000000Y-105000000D02*
X135000000Y-105000000D01*
X135000000Y-105000000D02*
X135000000Y-106000000D01*
X138000000Y-106000000D02*
X133000000Y-106000000D01*
X133000000Y-106000000D02*
X133000000Y-96000000D01*
X133000000Y-96000000D02*
X143000000Y-96000000D01*
X143000000Y-96000000D02*
X143000000Y-106000000D01*
X143000000Y-106000000D02*
X138000000Y-106000000D01*
X157200000Y-78740000D02*
X157200000Y-79740000D01*
X157090000Y-79740000D02*
X154590000Y-79740000D01*
X139200000Y-79740000D02*
X139200000Y-78740000D01*
X139310000Y-79740000D02*
X141810000Y-79740000D01*
X178550000Y-93000000D02*
X178550000Y-90300000D01*
X177050000Y-93000000D02*
X177050000Y-90300000D01*
X177950000Y-91500000D02*
X177700000Y-91500000D01*
X177700000Y-91500000D02*
X177850000Y-91650000D01*
X177450000Y-91750000D02*
X178150000Y-91750000D01*
X177800000Y-91400000D02*
X177800000Y-91050000D01*
X177800000Y-91750000D02*
X177450000Y-91400000D01*
X177450000Y-91400000D02*
X178150000Y-91400000D01*
X178150000Y-91400000D02*
X177800000Y-91750000D01*
X176350000Y-93000000D02*
X176350000Y-90300000D01*
X174850000Y-93000000D02*
X174850000Y-90300000D01*
X175750000Y-91500000D02*
X175500000Y-91500000D01*
X175500000Y-91500000D02*
X175650000Y-91650000D01*
X175250000Y-91750000D02*
X175950000Y-91750000D01*
X175600000Y-91400000D02*
X175600000Y-91050000D01*
X175600000Y-91750000D02*
X175250000Y-91400000D01*
X175250000Y-91400000D02*
X175950000Y-91400000D01*
X175950000Y-91400000D02*
X175600000Y-91750000D01*
X177125000Y-96100000D02*
X177125000Y-95100000D01*
X178475000Y-95100000D02*
X178475000Y-96100000D01*
X174925000Y-96100000D02*
X174925000Y-95100000D01*
X176275000Y-95100000D02*
X176275000Y-96100000D01*
X170325000Y-74100000D02*
X170325000Y-73100000D01*
X171675000Y-73100000D02*
X171675000Y-74100000D01*
X167125000Y-65500000D02*
X167125000Y-64500000D01*
X168475000Y-64500000D02*
X168475000Y-65500000D01*
X154075000Y-83300000D02*
X154075000Y-84300000D01*
X152725000Y-84300000D02*
X152725000Y-83300000D01*
X147600000Y-87575000D02*
X148600000Y-87575000D01*
X148600000Y-88925000D02*
X147600000Y-88925000D01*
X148600000Y-87175000D02*
X147600000Y-87175000D01*
X147600000Y-85825000D02*
X148600000Y-85825000D01*
X173500000Y-83525000D02*
X174500000Y-83525000D01*
X174500000Y-84875000D02*
X173500000Y-84875000D01*
X173500000Y-81925000D02*
X174500000Y-81925000D01*
X174500000Y-83275000D02*
X173500000Y-83275000D01*
X129620850Y-67253744D02*
X128913744Y-67960850D01*
X127959150Y-67006256D02*
X128666256Y-66299150D01*
X127156256Y-89530850D02*
X126449150Y-88823744D01*
X127403744Y-87869150D02*
X128110850Y-88576256D01*
X127974594Y-78772513D02*
X127267487Y-78065406D01*
X126065406Y-79267487D02*
X126772513Y-79974594D01*
X135655000Y-91070000D02*
X135655000Y-90070000D01*
X137005000Y-90070000D02*
X137005000Y-91070000D01*
X133343744Y-91459150D02*
X134050850Y-92166256D01*
X133096256Y-93120850D02*
X132389150Y-92413744D01*
X140500000Y-94675000D02*
X139500000Y-94675000D01*
X139500000Y-93325000D02*
X140500000Y-93325000D01*
X135520000Y-78415000D02*
X136720000Y-78415000D01*
X136720000Y-80165000D02*
X135520000Y-80165000D01*
X147649160Y-83099760D02*
X147600900Y-83099760D01*
X144850180Y-83800800D02*
X144850180Y-83099760D01*
X144850180Y-83099760D02*
X145099100Y-83099760D01*
X147649160Y-83099760D02*
X147849820Y-83099760D01*
X147849820Y-83099760D02*
X147849820Y-83800800D01*
X151149160Y-83099760D02*
X151100900Y-83099760D01*
X148350180Y-83800800D02*
X148350180Y-83099760D01*
X148350180Y-83099760D02*
X148599100Y-83099760D01*
X151149160Y-83099760D02*
X151349820Y-83099760D01*
X151349820Y-83099760D02*
X151349820Y-83800800D01*
X170400000Y-70750000D02*
X170400000Y-70050000D01*
X171600000Y-70050000D02*
X171600000Y-70750000D01*
X172200000Y-70750000D02*
X172200000Y-70050000D01*
X173400000Y-70050000D02*
X173400000Y-70750000D01*
X176450000Y-83600000D02*
X177150000Y-83600000D01*
X177150000Y-84800000D02*
X176450000Y-84800000D01*
X176450000Y-82000000D02*
X177150000Y-82000000D01*
X177150000Y-83200000D02*
X176450000Y-83200000D01*
X152150000Y-93330000D02*
X152150000Y-92630000D01*
X153350000Y-92630000D02*
X153350000Y-93330000D01*
X134071751Y-76776777D02*
X133576777Y-77271751D01*
X132728249Y-76423223D02*
X133223223Y-75928249D01*
X152840000Y-96910000D02*
X152840000Y-96210000D01*
X154040000Y-96210000D02*
X154040000Y-96910000D01*
X141840000Y-90000000D02*
X142540000Y-90000000D01*
X142540000Y-91200000D02*
X141840000Y-91200000D01*
X151900000Y-88000000D02*
X152600000Y-88000000D01*
X152600000Y-89200000D02*
X151900000Y-89200000D01*
X124376777Y-69928249D02*
X124871751Y-70423223D01*
X124023223Y-71271751D02*
X123528249Y-70776777D01*
X125576777Y-68728249D02*
X126071751Y-69223223D01*
X125223223Y-70071751D02*
X124728249Y-69576777D01*
X126776777Y-67528249D02*
X127271751Y-68023223D01*
X126423223Y-68871751D02*
X125928249Y-68376777D01*
X132008249Y-80133223D02*
X132503223Y-79638249D01*
X133351751Y-80486777D02*
X132856777Y-80981751D01*
X122823223Y-72471751D02*
X122328249Y-71976777D01*
X123176777Y-71128249D02*
X123671751Y-71623223D01*
X130258249Y-78613223D02*
X130753223Y-78118249D01*
X131601751Y-78966777D02*
X131106777Y-79461751D01*
X123205406Y-76417487D02*
X123912513Y-77124594D01*
X125114594Y-75922513D02*
X124407487Y-75215406D01*
X125805546Y-84042983D02*
X124957017Y-83194454D01*
X126194454Y-81957017D02*
X127042983Y-82805546D01*
X121125000Y-84600000D02*
X121125000Y-83400000D01*
X122875000Y-83400000D02*
X122875000Y-84600000D01*
X143680000Y-105405000D02*
X151680000Y-105405000D01*
X143680000Y-98085000D02*
X151680000Y-98085000D01*
X151680000Y-98085000D02*
X151680000Y-105405000D01*
X151680000Y-104785000D02*
X143680000Y-104785000D01*
X143680000Y-105405000D02*
X143680000Y-98085000D01*
X130000000Y-106000000D02*
X130000000Y-105000000D01*
X130000000Y-105000000D02*
X124000000Y-105000000D01*
X124000000Y-105000000D02*
X124000000Y-106000000D01*
X127000000Y-106000000D02*
X122000000Y-106000000D01*
X122000000Y-106000000D02*
X122000000Y-96000000D01*
X122000000Y-96000000D02*
X132000000Y-96000000D01*
X132000000Y-96000000D02*
X132000000Y-106000000D01*
X132000000Y-106000000D02*
X127000000Y-106000000D01*
X124843744Y-90699150D02*
X125550850Y-91406256D01*
X124596256Y-92360850D02*
X123889150Y-91653744D01*
X129500000Y-94675000D02*
X128500000Y-94675000D01*
X128500000Y-93325000D02*
X129500000Y-93325000D01*
D13*
X155200000Y-85600000D02*
X154900000Y-85600000D01*
X154900000Y-85600000D02*
X154900000Y-85300000D01*
X158000000Y-82000000D02*
X158300000Y-82000000D01*
X158300000Y-82000000D02*
X158300000Y-82300000D01*
X158300000Y-85300000D02*
X158300000Y-85600000D01*
X158300000Y-85600000D02*
X158000000Y-85600000D01*
X155200000Y-82000000D02*
X154900000Y-82000000D01*
X154900000Y-82000000D02*
X154900000Y-82300000D01*
D15*
X164400000Y-63100000D02*
G75*
G03X164400000Y-63100000I-100000J0D01*
G01*
X164850000Y-63350000D02*
X164350000Y-63350000D01*
X164850000Y-66250000D02*
X164850000Y-63350000D01*
X164350000Y-66250000D02*
X164850000Y-66250000D01*
X164350000Y-63350000D02*
X164350000Y-66250000D01*
X163850000Y-73750000D02*
X163850000Y-73225000D01*
X168150000Y-69450000D02*
X168150000Y-69975000D01*
X163850000Y-69450000D02*
X163850000Y-69975000D01*
X168150000Y-73750000D02*
X167625000Y-73750000D01*
X168150000Y-69450000D02*
X167625000Y-69450000D01*
X163850000Y-69450000D02*
X164375000Y-69450000D01*
X163850000Y-73750000D02*
X164375000Y-73750000D01*
X140560000Y-88110000D02*
G75*
G03X140560000Y-88110000I-100000J0D01*
G01*
X140710000Y-87560000D02*
X140710000Y-88060000D01*
X143610000Y-87560000D02*
X140710000Y-87560000D01*
X143610000Y-88060000D02*
X143610000Y-87560000D01*
X140710000Y-88060000D02*
X143610000Y-88060000D01*
X129400000Y-70087689D02*
X129930330Y-70618019D01*
X129400000Y-77512311D02*
X128869670Y-76981981D01*
X133112311Y-73800000D02*
X132581981Y-73269670D01*
X125687689Y-73800000D02*
X126218019Y-73269670D01*
X129400000Y-77512311D02*
X129930330Y-76981981D01*
X133112311Y-73800000D02*
X132581981Y-74330330D01*
X129400000Y-70087689D02*
X128869670Y-70618019D01*
X134580051Y-86414214D02*
G75*
G03X134580051Y-86414214I-100000J0D01*
G01*
X134267918Y-85848528D02*
X134621472Y-86202082D01*
X136318528Y-83797918D02*
X134267918Y-85848528D01*
X136672082Y-84151472D02*
X136318528Y-83797918D01*
X134621472Y-86202082D02*
X136672082Y-84151472D01*
X145890000Y-90530000D02*
X146415000Y-90530000D01*
X150190000Y-94830000D02*
X149665000Y-94830000D01*
X150190000Y-90530000D02*
X149665000Y-90530000D01*
X145890000Y-94830000D02*
X145890000Y-94305000D01*
X150190000Y-94830000D02*
X150190000Y-94305000D01*
X150190000Y-90530000D02*
X150190000Y-91055000D01*
X145890000Y-90530000D02*
X145890000Y-91055000D01*
X162080000Y-74775000D02*
X160880000Y-74775000D01*
X160880000Y-73025000D02*
X162080000Y-73025000D01*
X168410000Y-66210000D02*
X169110000Y-66210000D01*
X169110000Y-67410000D02*
X168410000Y-67410000D01*
X121286000Y-102000000D02*
G75*
G03X121286000Y-102000000I-2286000J0D01*
G01*
X179286000Y-102000000D02*
G75*
G03X179286000Y-102000000I-2286000J0D01*
G01*
X121286000Y-64000000D02*
G75*
G03X121286000Y-64000000I-2286000J0D01*
G01*
X179286000Y-64000000D02*
G75*
G03X179286000Y-64000000I-2286000J0D01*
G01*
X164892095Y-79923381D02*
X165463524Y-79923381D01*
X165177809Y-80923381D02*
X165177809Y-79923381D01*
X166320667Y-80923381D02*
X165749238Y-80923381D01*
X166034952Y-80923381D02*
X166034952Y-79923381D01*
X165939714Y-80066238D01*
X165844476Y-80161476D01*
X165749238Y-80209095D01*
X159717476Y-84050762D02*
X159860333Y-84098381D01*
X160098429Y-84098381D01*
X160193667Y-84050762D01*
X160241286Y-84003143D01*
X160288905Y-83907905D01*
X160288905Y-83812667D01*
X160241286Y-83717429D01*
X160193667Y-83669810D01*
X160098429Y-83622190D01*
X159907952Y-83574571D01*
X159812714Y-83526952D01*
X159765095Y-83479333D01*
X159717476Y-83384095D01*
X159717476Y-83288857D01*
X159765095Y-83193619D01*
X159812714Y-83146000D01*
X159907952Y-83098381D01*
X160146048Y-83098381D01*
X160288905Y-83146000D01*
X161193667Y-83098381D02*
X160717476Y-83098381D01*
X160669857Y-83574571D01*
X160717476Y-83526952D01*
X160812714Y-83479333D01*
X161050810Y-83479333D01*
X161146048Y-83526952D01*
X161193667Y-83574571D01*
X161241286Y-83669810D01*
X161241286Y-83907905D01*
X161193667Y-84003143D01*
X161146048Y-84050762D01*
X161050810Y-84098381D01*
X160812714Y-84098381D01*
X160717476Y-84050762D01*
X160669857Y-84003143D01*
X162146048Y-83098381D02*
X161669857Y-83098381D01*
X161622238Y-83574571D01*
X161669857Y-83526952D01*
X161765095Y-83479333D01*
X162003191Y-83479333D01*
X162098429Y-83526952D01*
X162146048Y-83574571D01*
X162193667Y-83669810D01*
X162193667Y-83907905D01*
X162146048Y-84003143D01*
X162098429Y-84050762D01*
X162003191Y-84098381D01*
X161765095Y-84098381D01*
X161669857Y-84050762D01*
X161622238Y-84003143D01*
X162527000Y-83098381D02*
X163146048Y-83098381D01*
X162812714Y-83479333D01*
X162955572Y-83479333D01*
X163050810Y-83526952D01*
X163098429Y-83574571D01*
X163146048Y-83669810D01*
X163146048Y-83907905D01*
X163098429Y-84003143D01*
X163050810Y-84050762D01*
X162955572Y-84098381D01*
X162669857Y-84098381D01*
X162574619Y-84050762D01*
X162527000Y-84003143D01*
X163574619Y-83717429D02*
X164336524Y-83717429D01*
X165288905Y-83098381D02*
X164812714Y-83098381D01*
X164765095Y-83574571D01*
X164812714Y-83526952D01*
X164907952Y-83479333D01*
X165146048Y-83479333D01*
X165241286Y-83526952D01*
X165288905Y-83574571D01*
X165336524Y-83669810D01*
X165336524Y-83907905D01*
X165288905Y-84003143D01*
X165241286Y-84050762D01*
X165146048Y-84098381D01*
X164907952Y-84098381D01*
X164812714Y-84050762D01*
X164765095Y-84003143D01*
X165812714Y-84098381D02*
X166003190Y-84098381D01*
X166098429Y-84050762D01*
X166146048Y-84003143D01*
X166241286Y-83860286D01*
X166288905Y-83669810D01*
X166288905Y-83288857D01*
X166241286Y-83193619D01*
X166193667Y-83146000D01*
X166098429Y-83098381D01*
X165907952Y-83098381D01*
X165812714Y-83146000D01*
X165765095Y-83193619D01*
X165717476Y-83288857D01*
X165717476Y-83526952D01*
X165765095Y-83622190D01*
X165812714Y-83669810D01*
X165907952Y-83717429D01*
X166098429Y-83717429D01*
X166193667Y-83669810D01*
X166241286Y-83622190D01*
X166288905Y-83526952D01*
X166765095Y-84098381D02*
X166955571Y-84098381D01*
X167050810Y-84050762D01*
X167098429Y-84003143D01*
X167193667Y-83860286D01*
X167241286Y-83669810D01*
X167241286Y-83288857D01*
X167193667Y-83193619D01*
X167146048Y-83146000D01*
X167050810Y-83098381D01*
X166860333Y-83098381D01*
X166765095Y-83146000D01*
X166717476Y-83193619D01*
X166669857Y-83288857D01*
X166669857Y-83526952D01*
X166717476Y-83622190D01*
X166765095Y-83669810D01*
X166860333Y-83717429D01*
X167050810Y-83717429D01*
X167146048Y-83669810D01*
X167193667Y-83622190D01*
X167241286Y-83526952D01*
X167717476Y-84098381D02*
X167907952Y-84098381D01*
X168003191Y-84050762D01*
X168050810Y-84003143D01*
X168146048Y-83860286D01*
X168193667Y-83669810D01*
X168193667Y-83288857D01*
X168146048Y-83193619D01*
X168098429Y-83146000D01*
X168003191Y-83098381D01*
X167812714Y-83098381D01*
X167717476Y-83146000D01*
X167669857Y-83193619D01*
X167622238Y-83288857D01*
X167622238Y-83526952D01*
X167669857Y-83622190D01*
X167717476Y-83669810D01*
X167812714Y-83717429D01*
X168003191Y-83717429D01*
X168098429Y-83669810D01*
X168146048Y-83622190D01*
X168193667Y-83526952D01*
X168622238Y-83717429D02*
X169384143Y-83717429D01*
X170336524Y-83098381D02*
X169860333Y-83098381D01*
X169812714Y-83574571D01*
X169860333Y-83526952D01*
X169955571Y-83479333D01*
X170193667Y-83479333D01*
X170288905Y-83526952D01*
X170336524Y-83574571D01*
X170384143Y-83669810D01*
X170384143Y-83907905D01*
X170336524Y-84003143D01*
X170288905Y-84050762D01*
X170193667Y-84098381D01*
X169955571Y-84098381D01*
X169860333Y-84050762D01*
X169812714Y-84003143D01*
X170765095Y-83193619D02*
X170812714Y-83146000D01*
X170907952Y-83098381D01*
X171146048Y-83098381D01*
X171241286Y-83146000D01*
X171288905Y-83193619D01*
X171336524Y-83288857D01*
X171336524Y-83384095D01*
X171288905Y-83526952D01*
X170717476Y-84098381D01*
X171336524Y-84098381D01*
X165315905Y-104478381D02*
X165315905Y-103478381D01*
X165696858Y-103478381D01*
X165792096Y-103526000D01*
X165839715Y-103573619D01*
X165887334Y-103668857D01*
X165887334Y-103811714D01*
X165839715Y-103906952D01*
X165792096Y-103954571D01*
X165696858Y-104002190D01*
X165315905Y-104002190D01*
X166839715Y-104478381D02*
X166268286Y-104478381D01*
X166554000Y-104478381D02*
X166554000Y-103478381D01*
X166458762Y-103621238D01*
X166363524Y-103716476D01*
X166268286Y-103764095D01*
X137261905Y-102452381D02*
X137261905Y-101452381D01*
X137642858Y-101452381D01*
X137738096Y-101500000D01*
X137785715Y-101547619D01*
X137833334Y-101642857D01*
X137833334Y-101785714D01*
X137785715Y-101880952D01*
X137738096Y-101928571D01*
X137642858Y-101976190D01*
X137261905Y-101976190D01*
X138166667Y-101452381D02*
X138785715Y-101452381D01*
X138452381Y-101833333D01*
X138595239Y-101833333D01*
X138690477Y-101880952D01*
X138738096Y-101928571D01*
X138785715Y-102023810D01*
X138785715Y-102261905D01*
X138738096Y-102357143D01*
X138690477Y-102404762D01*
X138595239Y-102452381D01*
X138309524Y-102452381D01*
X138214286Y-102404762D01*
X138166667Y-102357143D01*
X137380953Y-102452381D02*
X137047619Y-101976190D01*
X136809524Y-102452381D02*
X136809524Y-101452381D01*
X137190477Y-101452381D01*
X137285715Y-101500000D01*
X137333334Y-101547619D01*
X137380953Y-101642857D01*
X137380953Y-101785714D01*
X137333334Y-101880952D01*
X137285715Y-101928571D01*
X137190477Y-101976190D01*
X136809524Y-101976190D01*
X138380953Y-102357143D02*
X138333334Y-102404762D01*
X138190477Y-102452381D01*
X138095239Y-102452381D01*
X137952381Y-102404762D01*
X137857143Y-102309524D01*
X137809524Y-102214286D01*
X137761905Y-102023810D01*
X137761905Y-101880952D01*
X137809524Y-101690476D01*
X137857143Y-101595238D01*
X137952381Y-101500000D01*
X138095239Y-101452381D01*
X138190477Y-101452381D01*
X138333334Y-101500000D01*
X138380953Y-101547619D01*
X138761905Y-102166667D02*
X139238096Y-102166667D01*
X138666667Y-102452381D02*
X139000000Y-101452381D01*
X139333334Y-102452381D01*
X135948095Y-61592381D02*
X135948095Y-62401905D01*
X135995714Y-62497143D01*
X136043333Y-62544762D01*
X136138571Y-62592381D01*
X136329048Y-62592381D01*
X136424286Y-62544762D01*
X136471905Y-62497143D01*
X136519524Y-62401905D01*
X136519524Y-61592381D01*
X136900476Y-61592381D02*
X137519524Y-61592381D01*
X137186190Y-61973333D01*
X137329048Y-61973333D01*
X137424286Y-62020952D01*
X137471905Y-62068571D01*
X137519524Y-62163810D01*
X137519524Y-62401905D01*
X137471905Y-62497143D01*
X137424286Y-62544762D01*
X137329048Y-62592381D01*
X137043333Y-62592381D01*
X136948095Y-62544762D01*
X136900476Y-62497143D01*
X178252381Y-89338095D02*
X177252381Y-89338095D01*
X177252381Y-89100000D01*
X177300000Y-88957142D01*
X177395238Y-88861904D01*
X177490476Y-88814285D01*
X177680952Y-88766666D01*
X177823810Y-88766666D01*
X178014286Y-88814285D01*
X178109524Y-88861904D01*
X178204762Y-88957142D01*
X178252381Y-89100000D01*
X178252381Y-89338095D01*
X178252381Y-87814285D02*
X178252381Y-88385714D01*
X178252381Y-88100000D02*
X177252381Y-88100000D01*
X177395238Y-88195238D01*
X177490476Y-88290476D01*
X177538095Y-88385714D01*
X178570000Y-88301904D02*
X178522381Y-88397142D01*
X178522381Y-88539999D01*
X178570000Y-88682857D01*
X178665238Y-88778095D01*
X178760476Y-88825714D01*
X178950952Y-88873333D01*
X179093810Y-88873333D01*
X179284286Y-88825714D01*
X179379524Y-88778095D01*
X179474762Y-88682857D01*
X179522381Y-88539999D01*
X179522381Y-88444761D01*
X179474762Y-88301904D01*
X179427143Y-88254285D01*
X179093810Y-88254285D01*
X179093810Y-88444761D01*
X179522381Y-87254285D02*
X179046190Y-87587619D01*
X179522381Y-87825714D02*
X178522381Y-87825714D01*
X178522381Y-87444761D01*
X178570000Y-87349523D01*
X178617619Y-87301904D01*
X178712857Y-87254285D01*
X178855714Y-87254285D01*
X178950952Y-87301904D01*
X178998571Y-87349523D01*
X179046190Y-87444761D01*
X179046190Y-87825714D01*
X179522381Y-86825714D02*
X178522381Y-86825714D01*
X179522381Y-86254285D01*
X178522381Y-86254285D01*
X176052381Y-89338095D02*
X175052381Y-89338095D01*
X175052381Y-89100000D01*
X175100000Y-88957142D01*
X175195238Y-88861904D01*
X175290476Y-88814285D01*
X175480952Y-88766666D01*
X175623810Y-88766666D01*
X175814286Y-88814285D01*
X175909524Y-88861904D01*
X176004762Y-88957142D01*
X176052381Y-89100000D01*
X176052381Y-89338095D01*
X175147619Y-88385714D02*
X175100000Y-88338095D01*
X175052381Y-88242857D01*
X175052381Y-88004761D01*
X175100000Y-87909523D01*
X175147619Y-87861904D01*
X175242857Y-87814285D01*
X175338095Y-87814285D01*
X175480952Y-87861904D01*
X176052381Y-88433333D01*
X176052381Y-87814285D01*
X174602381Y-88402857D02*
X174126190Y-88736191D01*
X174602381Y-88974286D02*
X173602381Y-88974286D01*
X173602381Y-88593333D01*
X173650000Y-88498095D01*
X173697619Y-88450476D01*
X173792857Y-88402857D01*
X173935714Y-88402857D01*
X174030952Y-88450476D01*
X174078571Y-88498095D01*
X174126190Y-88593333D01*
X174126190Y-88974286D01*
X174078571Y-87974286D02*
X174078571Y-87640952D01*
X174602381Y-87498095D02*
X174602381Y-87974286D01*
X173602381Y-87974286D01*
X173602381Y-87498095D01*
X174602381Y-87069524D02*
X173602381Y-87069524D01*
X173602381Y-86831429D01*
X173650000Y-86688571D01*
X173745238Y-86593333D01*
X173840476Y-86545714D01*
X174030952Y-86498095D01*
X174173810Y-86498095D01*
X174364286Y-86545714D01*
X174459524Y-86593333D01*
X174554762Y-86688571D01*
X174602381Y-86831429D01*
X174602381Y-87069524D01*
X177633334Y-94252381D02*
X177300000Y-93776190D01*
X177061905Y-94252381D02*
X177061905Y-93252381D01*
X177442858Y-93252381D01*
X177538096Y-93300000D01*
X177585715Y-93347619D01*
X177633334Y-93442857D01*
X177633334Y-93585714D01*
X177585715Y-93680952D01*
X177538096Y-93728571D01*
X177442858Y-93776190D01*
X177061905Y-93776190D01*
X178585715Y-94252381D02*
X178014286Y-94252381D01*
X178300000Y-94252381D02*
X178300000Y-93252381D01*
X178204762Y-93395238D01*
X178109524Y-93490476D01*
X178014286Y-93538095D01*
X176161905Y-97147619D02*
X176209524Y-97100000D01*
X176304762Y-97052381D01*
X176542858Y-97052381D01*
X176638096Y-97100000D01*
X176685715Y-97147619D01*
X176733334Y-97242857D01*
X176733334Y-97338095D01*
X176685715Y-97480952D01*
X176114286Y-98052381D01*
X176733334Y-98052381D01*
X177066667Y-97052381D02*
X177733334Y-97052381D01*
X177304762Y-98052381D01*
X178304762Y-97052381D02*
X178400001Y-97052381D01*
X178495239Y-97100000D01*
X178542858Y-97147619D01*
X178590477Y-97242857D01*
X178638096Y-97433333D01*
X178638096Y-97671429D01*
X178590477Y-97861905D01*
X178542858Y-97957143D01*
X178495239Y-98004762D01*
X178400001Y-98052381D01*
X178304762Y-98052381D01*
X178209524Y-98004762D01*
X178161905Y-97957143D01*
X178114286Y-97861905D01*
X178066667Y-97671429D01*
X178066667Y-97433333D01*
X178114286Y-97242857D01*
X178161905Y-97147619D01*
X178209524Y-97100000D01*
X178304762Y-97052381D01*
X175433334Y-94252381D02*
X175100000Y-93776190D01*
X174861905Y-94252381D02*
X174861905Y-93252381D01*
X175242858Y-93252381D01*
X175338096Y-93300000D01*
X175385715Y-93347619D01*
X175433334Y-93442857D01*
X175433334Y-93585714D01*
X175385715Y-93680952D01*
X175338096Y-93728571D01*
X175242858Y-93776190D01*
X174861905Y-93776190D01*
X175814286Y-93347619D02*
X175861905Y-93300000D01*
X175957143Y-93252381D01*
X176195239Y-93252381D01*
X176290477Y-93300000D01*
X176338096Y-93347619D01*
X176385715Y-93442857D01*
X176385715Y-93538095D01*
X176338096Y-93680952D01*
X175766667Y-94252381D01*
X176385715Y-94252381D01*
X173747619Y-96838095D02*
X173700000Y-96790476D01*
X173652381Y-96695238D01*
X173652381Y-96457142D01*
X173700000Y-96361904D01*
X173747619Y-96314285D01*
X173842857Y-96266666D01*
X173938095Y-96266666D01*
X174080952Y-96314285D01*
X174652381Y-96885714D01*
X174652381Y-96266666D01*
X173652381Y-95933333D02*
X173652381Y-95266666D01*
X174652381Y-95695238D01*
X173652381Y-94695238D02*
X173652381Y-94599999D01*
X173700000Y-94504761D01*
X173747619Y-94457142D01*
X173842857Y-94409523D01*
X174033333Y-94361904D01*
X174271429Y-94361904D01*
X174461905Y-94409523D01*
X174557143Y-94457142D01*
X174604762Y-94504761D01*
X174652381Y-94599999D01*
X174652381Y-94695238D01*
X174604762Y-94790476D01*
X174557143Y-94838095D01*
X174461905Y-94885714D01*
X174271429Y-94933333D01*
X174033333Y-94933333D01*
X173842857Y-94885714D01*
X173747619Y-94838095D01*
X173700000Y-94790476D01*
X173652381Y-94695238D01*
X173352381Y-73766666D02*
X172876190Y-74100000D01*
X173352381Y-74338095D02*
X172352381Y-74338095D01*
X172352381Y-73957142D01*
X172400000Y-73861904D01*
X172447619Y-73814285D01*
X172542857Y-73766666D01*
X172685714Y-73766666D01*
X172780952Y-73814285D01*
X172828571Y-73861904D01*
X172876190Y-73957142D01*
X172876190Y-74338095D01*
X172352381Y-73433333D02*
X172352381Y-72814285D01*
X172733333Y-73147619D01*
X172733333Y-73004761D01*
X172780952Y-72909523D01*
X172828571Y-72861904D01*
X172923810Y-72814285D01*
X173161905Y-72814285D01*
X173257143Y-72861904D01*
X173304762Y-72909523D01*
X173352381Y-73004761D01*
X173352381Y-73290476D01*
X173304762Y-73385714D01*
X173257143Y-73433333D01*
X171920477Y-76222381D02*
X171349048Y-76222381D01*
X171634762Y-76222381D02*
X171634762Y-75222381D01*
X171539524Y-75365238D01*
X171444286Y-75460476D01*
X171349048Y-75508095D01*
X172301429Y-75317619D02*
X172349048Y-75270000D01*
X172444286Y-75222381D01*
X172682382Y-75222381D01*
X172777620Y-75270000D01*
X172825239Y-75317619D01*
X172872858Y-75412857D01*
X172872858Y-75508095D01*
X172825239Y-75650952D01*
X172253810Y-76222381D01*
X172872858Y-76222381D01*
X173301429Y-76127143D02*
X173349048Y-76174762D01*
X173301429Y-76222381D01*
X173253810Y-76174762D01*
X173301429Y-76127143D01*
X173301429Y-76222381D01*
X174301429Y-76222381D02*
X173730000Y-76222381D01*
X174015714Y-76222381D02*
X174015714Y-75222381D01*
X173920476Y-75365238D01*
X173825238Y-75460476D01*
X173730000Y-75508095D01*
X174730000Y-76222381D02*
X174730000Y-75222381D01*
X174825238Y-75841429D02*
X175110953Y-76222381D01*
X175110953Y-75555714D02*
X174730000Y-75936667D01*
X170152381Y-65166666D02*
X169676190Y-65500000D01*
X170152381Y-65738095D02*
X169152381Y-65738095D01*
X169152381Y-65357142D01*
X169200000Y-65261904D01*
X169247619Y-65214285D01*
X169342857Y-65166666D01*
X169485714Y-65166666D01*
X169580952Y-65214285D01*
X169628571Y-65261904D01*
X169676190Y-65357142D01*
X169676190Y-65738095D01*
X169485714Y-64309523D02*
X170152381Y-64309523D01*
X169104762Y-64547619D02*
X169819048Y-64785714D01*
X169819048Y-64166666D01*
X167071905Y-61827619D02*
X167119524Y-61780000D01*
X167214762Y-61732381D01*
X167452858Y-61732381D01*
X167548096Y-61780000D01*
X167595715Y-61827619D01*
X167643334Y-61922857D01*
X167643334Y-62018095D01*
X167595715Y-62160952D01*
X167024286Y-62732381D01*
X167643334Y-62732381D01*
X167976667Y-61732381D02*
X168643334Y-61732381D01*
X168214762Y-62732381D01*
X169214762Y-61732381D02*
X169310001Y-61732381D01*
X169405239Y-61780000D01*
X169452858Y-61827619D01*
X169500477Y-61922857D01*
X169548096Y-62113333D01*
X169548096Y-62351429D01*
X169500477Y-62541905D01*
X169452858Y-62637143D01*
X169405239Y-62684762D01*
X169310001Y-62732381D01*
X169214762Y-62732381D01*
X169119524Y-62684762D01*
X169071905Y-62637143D01*
X169024286Y-62541905D01*
X168976667Y-62351429D01*
X168976667Y-62113333D01*
X169024286Y-61922857D01*
X169071905Y-61827619D01*
X169119524Y-61780000D01*
X169214762Y-61732381D01*
X153583334Y-82342381D02*
X153250000Y-81866190D01*
X153011905Y-82342381D02*
X153011905Y-81342381D01*
X153392858Y-81342381D01*
X153488096Y-81390000D01*
X153535715Y-81437619D01*
X153583334Y-81532857D01*
X153583334Y-81675714D01*
X153535715Y-81770952D01*
X153488096Y-81818571D01*
X153392858Y-81866190D01*
X153011905Y-81866190D01*
X154488096Y-81342381D02*
X154011905Y-81342381D01*
X153964286Y-81818571D01*
X154011905Y-81770952D01*
X154107143Y-81723333D01*
X154345239Y-81723333D01*
X154440477Y-81770952D01*
X154488096Y-81818571D01*
X154535715Y-81913810D01*
X154535715Y-82151905D01*
X154488096Y-82247143D01*
X154440477Y-82294762D01*
X154345239Y-82342381D01*
X154107143Y-82342381D01*
X154011905Y-82294762D01*
X153964286Y-82247143D01*
X152401429Y-85675714D02*
X152401429Y-86342381D01*
X152163333Y-85294762D02*
X151925238Y-86009048D01*
X152544286Y-86009048D01*
X152925238Y-86247143D02*
X152972857Y-86294762D01*
X152925238Y-86342381D01*
X152877619Y-86294762D01*
X152925238Y-86247143D01*
X152925238Y-86342381D01*
X153306190Y-85342381D02*
X153972857Y-85342381D01*
X153544285Y-86342381D01*
X154353809Y-86342381D02*
X154353809Y-85342381D01*
X154449047Y-85961429D02*
X154734762Y-86342381D01*
X154734762Y-85675714D02*
X154353809Y-86056667D01*
X150207143Y-87872381D02*
X149873809Y-87396190D01*
X149635714Y-87872381D02*
X149635714Y-86872381D01*
X150016667Y-86872381D01*
X150111905Y-86920000D01*
X150159524Y-86967619D01*
X150207143Y-87062857D01*
X150207143Y-87205714D01*
X150159524Y-87300952D01*
X150111905Y-87348571D01*
X150016667Y-87396190D01*
X149635714Y-87396190D01*
X151159524Y-87872381D02*
X150588095Y-87872381D01*
X150873809Y-87872381D02*
X150873809Y-86872381D01*
X150778571Y-87015238D01*
X150683333Y-87110476D01*
X150588095Y-87158095D01*
X151540476Y-86967619D02*
X151588095Y-86920000D01*
X151683333Y-86872381D01*
X151921429Y-86872381D01*
X152016667Y-86920000D01*
X152064286Y-86967619D01*
X152111905Y-87062857D01*
X152111905Y-87158095D01*
X152064286Y-87300952D01*
X151492857Y-87872381D01*
X152111905Y-87872381D01*
X146055714Y-88328571D02*
X146722381Y-88328571D01*
X145674762Y-88566667D02*
X146389048Y-88804762D01*
X146389048Y-88185714D01*
X146627143Y-87804762D02*
X146674762Y-87757143D01*
X146722381Y-87804762D01*
X146674762Y-87852381D01*
X146627143Y-87804762D01*
X146722381Y-87804762D01*
X145722381Y-87423810D02*
X145722381Y-86757143D01*
X146722381Y-87185715D01*
X146722381Y-86376191D02*
X145722381Y-86376191D01*
X146341429Y-86280953D02*
X146722381Y-85995238D01*
X146055714Y-85995238D02*
X146436667Y-86376191D01*
X150257143Y-86592381D02*
X149923809Y-86116190D01*
X149685714Y-86592381D02*
X149685714Y-85592381D01*
X150066667Y-85592381D01*
X150161905Y-85640000D01*
X150209524Y-85687619D01*
X150257143Y-85782857D01*
X150257143Y-85925714D01*
X150209524Y-86020952D01*
X150161905Y-86068571D01*
X150066667Y-86116190D01*
X149685714Y-86116190D01*
X151209524Y-86592381D02*
X150638095Y-86592381D01*
X150923809Y-86592381D02*
X150923809Y-85592381D01*
X150828571Y-85735238D01*
X150733333Y-85830476D01*
X150638095Y-85878095D01*
X152066667Y-85592381D02*
X151876190Y-85592381D01*
X151780952Y-85640000D01*
X151733333Y-85687619D01*
X151638095Y-85830476D01*
X151590476Y-86020952D01*
X151590476Y-86401905D01*
X151638095Y-86497143D01*
X151685714Y-86544762D01*
X151780952Y-86592381D01*
X151971429Y-86592381D01*
X152066667Y-86544762D01*
X152114286Y-86497143D01*
X152161905Y-86401905D01*
X152161905Y-86163810D01*
X152114286Y-86068571D01*
X152066667Y-86020952D01*
X151971429Y-85973333D01*
X151780952Y-85973333D01*
X151685714Y-86020952D01*
X151638095Y-86068571D01*
X151590476Y-86163810D01*
X144705714Y-88408571D02*
X145372381Y-88408571D01*
X144324762Y-88646667D02*
X145039048Y-88884762D01*
X145039048Y-88265714D01*
X145277143Y-87884762D02*
X145324762Y-87837143D01*
X145372381Y-87884762D01*
X145324762Y-87932381D01*
X145277143Y-87884762D01*
X145372381Y-87884762D01*
X144372381Y-87503810D02*
X144372381Y-86837143D01*
X145372381Y-87265715D01*
X145372381Y-86456191D02*
X144372381Y-86456191D01*
X144991429Y-86360953D02*
X145372381Y-86075238D01*
X144705714Y-86075238D02*
X145086667Y-86456191D01*
X172762381Y-86446666D02*
X172286190Y-86780000D01*
X172762381Y-87018095D02*
X171762381Y-87018095D01*
X171762381Y-86637142D01*
X171810000Y-86541904D01*
X171857619Y-86494285D01*
X171952857Y-86446666D01*
X172095714Y-86446666D01*
X172190952Y-86494285D01*
X172238571Y-86541904D01*
X172286190Y-86637142D01*
X172286190Y-87018095D01*
X172190952Y-85875238D02*
X172143333Y-85970476D01*
X172095714Y-86018095D01*
X172000476Y-86065714D01*
X171952857Y-86065714D01*
X171857619Y-86018095D01*
X171810000Y-85970476D01*
X171762381Y-85875238D01*
X171762381Y-85684761D01*
X171810000Y-85589523D01*
X171857619Y-85541904D01*
X171952857Y-85494285D01*
X172000476Y-85494285D01*
X172095714Y-85541904D01*
X172143333Y-85589523D01*
X172190952Y-85684761D01*
X172190952Y-85875238D01*
X172238571Y-85970476D01*
X172286190Y-86018095D01*
X172381429Y-86065714D01*
X172571905Y-86065714D01*
X172667143Y-86018095D01*
X172714762Y-85970476D01*
X172762381Y-85875238D01*
X172762381Y-85684761D01*
X172714762Y-85589523D01*
X172667143Y-85541904D01*
X172571905Y-85494285D01*
X172381429Y-85494285D01*
X172286190Y-85541904D01*
X172238571Y-85589523D01*
X172190952Y-85684761D01*
X173140476Y-85252381D02*
X173807143Y-85252381D01*
X173378571Y-86252381D01*
X174664286Y-85252381D02*
X174188095Y-85252381D01*
X174140476Y-85728571D01*
X174188095Y-85680952D01*
X174283333Y-85633333D01*
X174521429Y-85633333D01*
X174616667Y-85680952D01*
X174664286Y-85728571D01*
X174711905Y-85823810D01*
X174711905Y-86061905D01*
X174664286Y-86157143D01*
X174616667Y-86204762D01*
X174521429Y-86252381D01*
X174283333Y-86252381D01*
X174188095Y-86204762D01*
X174140476Y-86157143D01*
X173567143Y-80332381D02*
X173233809Y-79856190D01*
X172995714Y-80332381D02*
X172995714Y-79332381D01*
X173376667Y-79332381D01*
X173471905Y-79380000D01*
X173519524Y-79427619D01*
X173567143Y-79522857D01*
X173567143Y-79665714D01*
X173519524Y-79760952D01*
X173471905Y-79808571D01*
X173376667Y-79856190D01*
X172995714Y-79856190D01*
X174519524Y-80332381D02*
X173948095Y-80332381D01*
X174233809Y-80332381D02*
X174233809Y-79332381D01*
X174138571Y-79475238D01*
X174043333Y-79570476D01*
X173948095Y-79618095D01*
X175471905Y-80332381D02*
X174900476Y-80332381D01*
X175186190Y-80332381D02*
X175186190Y-79332381D01*
X175090952Y-79475238D01*
X174995714Y-79570476D01*
X174900476Y-79618095D01*
X173230476Y-80592381D02*
X173897143Y-80592381D01*
X173468571Y-81592381D01*
X174754286Y-80592381D02*
X174278095Y-80592381D01*
X174230476Y-81068571D01*
X174278095Y-81020952D01*
X174373333Y-80973333D01*
X174611429Y-80973333D01*
X174706667Y-81020952D01*
X174754286Y-81068571D01*
X174801905Y-81163810D01*
X174801905Y-81401905D01*
X174754286Y-81497143D01*
X174706667Y-81544762D01*
X174611429Y-81592381D01*
X174373333Y-81592381D01*
X174278095Y-81544762D01*
X174230476Y-81497143D01*
X127648528Y-66224229D02*
X127076107Y-66123214D01*
X127244467Y-66628291D02*
X126537360Y-65921184D01*
X126806734Y-65651809D01*
X126907750Y-65618138D01*
X126975093Y-65618138D01*
X127076108Y-65651809D01*
X127177123Y-65752825D01*
X127210795Y-65853840D01*
X127210795Y-65921183D01*
X127177123Y-66022198D01*
X126907749Y-66291573D01*
X127985245Y-65887512D02*
X128119932Y-65752825D01*
X128153604Y-65651809D01*
X128153604Y-65584466D01*
X128119933Y-65416107D01*
X128018918Y-65247749D01*
X127749543Y-64978374D01*
X127648528Y-64944703D01*
X127581185Y-64944703D01*
X127480169Y-64978374D01*
X127345482Y-65113062D01*
X127311810Y-65214077D01*
X127311810Y-65281421D01*
X127345482Y-65382436D01*
X127513840Y-65550794D01*
X127614856Y-65584466D01*
X127682200Y-65584467D01*
X127783215Y-65550795D01*
X127917902Y-65416107D01*
X127951574Y-65315092D01*
X127951573Y-65247748D01*
X127917902Y-65146733D01*
X129981981Y-69264789D02*
X129577919Y-69668850D01*
X129779950Y-69466820D02*
X129072843Y-68759713D01*
X129106515Y-68928072D01*
X129106515Y-69062758D01*
X129072843Y-69163774D01*
X129712606Y-68119950D02*
X129779950Y-68052605D01*
X129880965Y-68018934D01*
X129948309Y-68018934D01*
X130049324Y-68052605D01*
X130217683Y-68153621D01*
X130386042Y-68321980D01*
X130487057Y-68490339D01*
X130520729Y-68591354D01*
X130520729Y-68658697D01*
X130487057Y-68759712D01*
X130419713Y-68827056D01*
X130318698Y-68860728D01*
X130251354Y-68860728D01*
X130150339Y-68827056D01*
X129981981Y-68726041D01*
X129813621Y-68557682D01*
X129712606Y-68389323D01*
X129678934Y-68288308D01*
X129678934Y-68220965D01*
X129712606Y-68119950D01*
X130386041Y-67446515D02*
X130453385Y-67379170D01*
X130554401Y-67345499D01*
X130621744Y-67345499D01*
X130722759Y-67379170D01*
X130891118Y-67480186D01*
X131059477Y-67648545D01*
X131160492Y-67816903D01*
X131194164Y-67917919D01*
X131194164Y-67985262D01*
X131160492Y-68086277D01*
X131093148Y-68153621D01*
X130992133Y-68187293D01*
X130924789Y-68187293D01*
X130823774Y-68153621D01*
X130655416Y-68052606D01*
X130487056Y-67884247D01*
X130386041Y-67715888D01*
X130352370Y-67614873D01*
X130352370Y-67547530D01*
X130386041Y-67446515D01*
X127849053Y-87221810D02*
X127950068Y-86649390D01*
X127444991Y-86817749D02*
X128152098Y-86110642D01*
X128421473Y-86380016D01*
X128455144Y-86481032D01*
X128455144Y-86548375D01*
X128421473Y-86649390D01*
X128320458Y-86750405D01*
X128219442Y-86784077D01*
X128152099Y-86784077D01*
X128051084Y-86750405D01*
X127781709Y-86481031D01*
X128522488Y-87895245D02*
X128118427Y-87491184D01*
X128320457Y-87693214D02*
X129027564Y-86986107D01*
X128859205Y-87019779D01*
X128724518Y-87019779D01*
X128623503Y-86986107D01*
X129667327Y-87625871D02*
X129734671Y-87693215D01*
X129768343Y-87794230D01*
X129768343Y-87861573D01*
X129734671Y-87962589D01*
X129633656Y-88130947D01*
X129465297Y-88299307D01*
X129296938Y-88400322D01*
X129195923Y-88433993D01*
X129128579Y-88433993D01*
X129027564Y-88400322D01*
X128960220Y-88332978D01*
X128926548Y-88231962D01*
X128926548Y-88164619D01*
X128960220Y-88063604D01*
X129061235Y-87895245D01*
X129229595Y-87726886D01*
X129397953Y-87625871D01*
X129498968Y-87592199D01*
X129566312Y-87592199D01*
X129667327Y-87625871D01*
X123908714Y-86798479D02*
X123504653Y-86394417D01*
X123706683Y-86596448D02*
X124413790Y-85889341D01*
X124245431Y-85923013D01*
X124110745Y-85923013D01*
X124009729Y-85889341D01*
X125053553Y-86529104D02*
X125120898Y-86596448D01*
X125154569Y-86697463D01*
X125154569Y-86764807D01*
X125120898Y-86865822D01*
X125019882Y-87034181D01*
X124851523Y-87202540D01*
X124683164Y-87303555D01*
X124582149Y-87337227D01*
X124514806Y-87337227D01*
X124413791Y-87303555D01*
X124346447Y-87236211D01*
X124312775Y-87135196D01*
X124312775Y-87067852D01*
X124346447Y-86966837D01*
X124447462Y-86798479D01*
X124615821Y-86630119D01*
X124784180Y-86529104D01*
X124885195Y-86495432D01*
X124952538Y-86495432D01*
X125053553Y-86529104D01*
X125726988Y-87202539D02*
X125794333Y-87269883D01*
X125828004Y-87370899D01*
X125828004Y-87438242D01*
X125794333Y-87539257D01*
X125693317Y-87707616D01*
X125524958Y-87875975D01*
X125356600Y-87976990D01*
X125255584Y-88010662D01*
X125188241Y-88010662D01*
X125087226Y-87976990D01*
X125019882Y-87909646D01*
X124986210Y-87808631D01*
X124986210Y-87741287D01*
X125019882Y-87640272D01*
X125120897Y-87471914D01*
X125289256Y-87303554D01*
X125457615Y-87202539D01*
X125558630Y-87168868D01*
X125625973Y-87168868D01*
X125726988Y-87202539D01*
X127797817Y-77333046D02*
X127730474Y-77333046D01*
X127595787Y-77265702D01*
X127528443Y-77198359D01*
X127461099Y-77063671D01*
X127461099Y-76928984D01*
X127494771Y-76827969D01*
X127595786Y-76659611D01*
X127696802Y-76558595D01*
X127865161Y-76457580D01*
X127966176Y-76423908D01*
X128100863Y-76423908D01*
X128235550Y-76491252D01*
X128302894Y-76558595D01*
X128370237Y-76693282D01*
X128370237Y-76760626D01*
X128403909Y-78073824D02*
X127999848Y-77669763D01*
X128201878Y-77871793D02*
X128908985Y-77164686D01*
X128740626Y-77198358D01*
X128605939Y-77198358D01*
X128504924Y-77164686D01*
X129548748Y-77804450D02*
X129616092Y-77871794D01*
X129649764Y-77972809D01*
X129649764Y-78040152D01*
X129616092Y-78141168D01*
X129515077Y-78309526D01*
X129346718Y-78477886D01*
X129178359Y-78578901D01*
X129077344Y-78612572D01*
X129010000Y-78612572D01*
X128908985Y-78578901D01*
X128841641Y-78511557D01*
X128807969Y-78410541D01*
X128807969Y-78343198D01*
X128841641Y-78242183D01*
X128942656Y-78073824D01*
X129111016Y-77905465D01*
X129279374Y-77804450D01*
X129380389Y-77770778D01*
X129447733Y-77770778D01*
X129548748Y-77804450D01*
X123761488Y-77631725D02*
X123828832Y-77631725D01*
X123929847Y-77665397D01*
X124098206Y-77833756D01*
X124131878Y-77934771D01*
X124131878Y-78002115D01*
X124098206Y-78103130D01*
X124030863Y-78170473D01*
X123896176Y-78237817D01*
X123088053Y-78237817D01*
X123525786Y-78675550D01*
X124434924Y-78305160D02*
X124502267Y-78305160D01*
X124603282Y-78338832D01*
X124771641Y-78507191D01*
X124805313Y-78608206D01*
X124805313Y-78675550D01*
X124771641Y-78776565D01*
X124704298Y-78843908D01*
X124569611Y-78911252D01*
X123761488Y-78911252D01*
X124199222Y-79348985D01*
X125344061Y-79079610D02*
X125411405Y-79146955D01*
X125445076Y-79247970D01*
X125445076Y-79315313D01*
X125411405Y-79416328D01*
X125310390Y-79584687D01*
X125142030Y-79753046D01*
X124973672Y-79854061D01*
X124872657Y-79887733D01*
X124805313Y-79887733D01*
X124704298Y-79854061D01*
X124636954Y-79786717D01*
X124603282Y-79685702D01*
X124603282Y-79618359D01*
X124636954Y-79517343D01*
X124737969Y-79348985D01*
X124906328Y-79180626D01*
X125074687Y-79079610D01*
X125175702Y-79045939D01*
X125243045Y-79045939D01*
X125344061Y-79079610D01*
X125647107Y-79854061D02*
X124940000Y-80561167D01*
X125613435Y-79887732D02*
X125714450Y-79921404D01*
X125849138Y-80056092D01*
X125882810Y-80157107D01*
X125882810Y-80224450D01*
X125849138Y-80325465D01*
X125647107Y-80527496D01*
X125546092Y-80561168D01*
X125478748Y-80561168D01*
X125377733Y-80527496D01*
X125243045Y-80392809D01*
X125209374Y-80291794D01*
X126421558Y-80830542D02*
X126185855Y-80594839D01*
X125815465Y-80965229D02*
X126522572Y-80258122D01*
X126859290Y-80594840D01*
X134407143Y-89152381D02*
X134073809Y-88676190D01*
X133835714Y-89152381D02*
X133835714Y-88152381D01*
X134216667Y-88152381D01*
X134311905Y-88200000D01*
X134359524Y-88247619D01*
X134407143Y-88342857D01*
X134407143Y-88485714D01*
X134359524Y-88580952D01*
X134311905Y-88628571D01*
X134216667Y-88676190D01*
X133835714Y-88676190D01*
X135359524Y-89152381D02*
X134788095Y-89152381D01*
X135073809Y-89152381D02*
X135073809Y-88152381D01*
X134978571Y-88295238D01*
X134883333Y-88390476D01*
X134788095Y-88438095D01*
X135692857Y-88152381D02*
X136311905Y-88152381D01*
X135978571Y-88533333D01*
X136121429Y-88533333D01*
X136216667Y-88580952D01*
X136264286Y-88628571D01*
X136311905Y-88723810D01*
X136311905Y-88961905D01*
X136264286Y-89057143D01*
X136216667Y-89104762D01*
X136121429Y-89152381D01*
X135835714Y-89152381D01*
X135740476Y-89104762D01*
X135692857Y-89057143D01*
X136782381Y-94236666D02*
X136782381Y-94808095D01*
X136782381Y-94522381D02*
X135782381Y-94522381D01*
X135925238Y-94617619D01*
X136020476Y-94712857D01*
X136068095Y-94808095D01*
X135782381Y-93617619D02*
X135782381Y-93522380D01*
X135830000Y-93427142D01*
X135877619Y-93379523D01*
X135972857Y-93331904D01*
X136163333Y-93284285D01*
X136401429Y-93284285D01*
X136591905Y-93331904D01*
X136687143Y-93379523D01*
X136734762Y-93427142D01*
X136782381Y-93522380D01*
X136782381Y-93617619D01*
X136734762Y-93712857D01*
X136687143Y-93760476D01*
X136591905Y-93808095D01*
X136401429Y-93855714D01*
X136163333Y-93855714D01*
X135972857Y-93808095D01*
X135877619Y-93760476D01*
X135830000Y-93712857D01*
X135782381Y-93617619D01*
X135782381Y-92665238D02*
X135782381Y-92569999D01*
X135830000Y-92474761D01*
X135877619Y-92427142D01*
X135972857Y-92379523D01*
X136163333Y-92331904D01*
X136401429Y-92331904D01*
X136591905Y-92379523D01*
X136687143Y-92427142D01*
X136734762Y-92474761D01*
X136782381Y-92569999D01*
X136782381Y-92665238D01*
X136734762Y-92760476D01*
X136687143Y-92808095D01*
X136591905Y-92855714D01*
X136401429Y-92903333D01*
X136163333Y-92903333D01*
X135972857Y-92855714D01*
X135877619Y-92808095D01*
X135830000Y-92760476D01*
X135782381Y-92665238D01*
X131476814Y-93124049D02*
X131577829Y-92551629D01*
X131072752Y-92719988D02*
X131779859Y-92012881D01*
X132049234Y-92282255D01*
X132082905Y-92383271D01*
X132082905Y-92450614D01*
X132049234Y-92551629D01*
X131948219Y-92652644D01*
X131847203Y-92686316D01*
X131779860Y-92686316D01*
X131678845Y-92652644D01*
X131409470Y-92383270D01*
X132150249Y-93797484D02*
X131746188Y-93393423D01*
X131948218Y-93595453D02*
X132655325Y-92888346D01*
X132486966Y-92922018D01*
X132352279Y-92922018D01*
X132251264Y-92888346D01*
X133227745Y-93932171D02*
X132756340Y-94403576D01*
X133328760Y-93494438D02*
X132655325Y-93831156D01*
X133093058Y-94268889D01*
X133439877Y-91127315D02*
X133035816Y-90723253D01*
X133237846Y-90925284D02*
X133944953Y-90218177D01*
X133776594Y-90251849D01*
X133641908Y-90251849D01*
X133540892Y-90218177D01*
X134584716Y-90857940D02*
X134652061Y-90925284D01*
X134685732Y-91026299D01*
X134685732Y-91093643D01*
X134652061Y-91194658D01*
X134551045Y-91363017D01*
X134382686Y-91531376D01*
X134214327Y-91632391D01*
X134113312Y-91666063D01*
X134045969Y-91666063D01*
X133944954Y-91632391D01*
X133877610Y-91565047D01*
X133843938Y-91464032D01*
X133843938Y-91396688D01*
X133877610Y-91295673D01*
X133978625Y-91127315D01*
X134146984Y-90958955D01*
X134315343Y-90857940D01*
X134416358Y-90824268D01*
X134483701Y-90824268D01*
X134584716Y-90857940D01*
X135258151Y-91531375D02*
X135325496Y-91598719D01*
X135359167Y-91699735D01*
X135359167Y-91767078D01*
X135325496Y-91868093D01*
X135224480Y-92036452D01*
X135056121Y-92204811D01*
X134887763Y-92305826D01*
X134786747Y-92339498D01*
X134719404Y-92339498D01*
X134618389Y-92305826D01*
X134551045Y-92238482D01*
X134517373Y-92137467D01*
X134517373Y-92070123D01*
X134551045Y-91969108D01*
X134652060Y-91800750D01*
X134820419Y-91632390D01*
X134988778Y-91531375D01*
X135089793Y-91497704D01*
X135157136Y-91497704D01*
X135258151Y-91531375D01*
X139357143Y-92552381D02*
X139023809Y-92076190D01*
X138785714Y-92552381D02*
X138785714Y-91552381D01*
X139166667Y-91552381D01*
X139261905Y-91600000D01*
X139309524Y-91647619D01*
X139357143Y-91742857D01*
X139357143Y-91885714D01*
X139309524Y-91980952D01*
X139261905Y-92028571D01*
X139166667Y-92076190D01*
X138785714Y-92076190D01*
X140309524Y-92552381D02*
X139738095Y-92552381D01*
X140023809Y-92552381D02*
X140023809Y-91552381D01*
X139928571Y-91695238D01*
X139833333Y-91790476D01*
X139738095Y-91838095D01*
X141214286Y-91552381D02*
X140738095Y-91552381D01*
X140690476Y-92028571D01*
X140738095Y-91980952D01*
X140833333Y-91933333D01*
X141071429Y-91933333D01*
X141166667Y-91980952D01*
X141214286Y-92028571D01*
X141261905Y-92123810D01*
X141261905Y-92361905D01*
X141214286Y-92457143D01*
X141166667Y-92504762D01*
X141071429Y-92552381D01*
X140833333Y-92552381D01*
X140738095Y-92504762D01*
X140690476Y-92457143D01*
X142133334Y-94612381D02*
X141561905Y-94612381D01*
X141847619Y-94612381D02*
X141847619Y-93612381D01*
X141752381Y-93755238D01*
X141657143Y-93850476D01*
X141561905Y-93898095D01*
X142752381Y-93612381D02*
X142847620Y-93612381D01*
X142942858Y-93660000D01*
X142990477Y-93707619D01*
X143038096Y-93802857D01*
X143085715Y-93993333D01*
X143085715Y-94231429D01*
X143038096Y-94421905D01*
X142990477Y-94517143D01*
X142942858Y-94564762D01*
X142847620Y-94612381D01*
X142752381Y-94612381D01*
X142657143Y-94564762D01*
X142609524Y-94517143D01*
X142561905Y-94421905D01*
X142514286Y-94231429D01*
X142514286Y-93993333D01*
X142561905Y-93802857D01*
X142609524Y-93707619D01*
X142657143Y-93660000D01*
X142752381Y-93612381D01*
X143704762Y-93612381D02*
X143800001Y-93612381D01*
X143895239Y-93660000D01*
X143942858Y-93707619D01*
X143990477Y-93802857D01*
X144038096Y-93993333D01*
X144038096Y-94231429D01*
X143990477Y-94421905D01*
X143942858Y-94517143D01*
X143895239Y-94564762D01*
X143800001Y-94612381D01*
X143704762Y-94612381D01*
X143609524Y-94564762D01*
X143561905Y-94517143D01*
X143514286Y-94421905D01*
X143466667Y-94231429D01*
X143466667Y-93993333D01*
X143514286Y-93802857D01*
X143561905Y-93707619D01*
X143609524Y-93660000D01*
X143704762Y-93612381D01*
X138493334Y-80902381D02*
X138160000Y-80426190D01*
X137921905Y-80902381D02*
X137921905Y-79902381D01*
X138302858Y-79902381D01*
X138398096Y-79950000D01*
X138445715Y-79997619D01*
X138493334Y-80092857D01*
X138493334Y-80235714D01*
X138445715Y-80330952D01*
X138398096Y-80378571D01*
X138302858Y-80426190D01*
X137921905Y-80426190D01*
X139350477Y-79902381D02*
X139160000Y-79902381D01*
X139064762Y-79950000D01*
X139017143Y-79997619D01*
X138921905Y-80140476D01*
X138874286Y-80330952D01*
X138874286Y-80711905D01*
X138921905Y-80807143D01*
X138969524Y-80854762D01*
X139064762Y-80902381D01*
X139255239Y-80902381D01*
X139350477Y-80854762D01*
X139398096Y-80807143D01*
X139445715Y-80711905D01*
X139445715Y-80473810D01*
X139398096Y-80378571D01*
X139350477Y-80330952D01*
X139255239Y-80283333D01*
X139064762Y-80283333D01*
X138969524Y-80330952D01*
X138921905Y-80378571D01*
X138874286Y-80473810D01*
X135411905Y-77287619D02*
X135459524Y-77240000D01*
X135554762Y-77192381D01*
X135792858Y-77192381D01*
X135888096Y-77240000D01*
X135935715Y-77287619D01*
X135983334Y-77382857D01*
X135983334Y-77478095D01*
X135935715Y-77620952D01*
X135364286Y-78192381D01*
X135983334Y-78192381D01*
X136316667Y-77192381D02*
X136983334Y-77192381D01*
X136554762Y-78192381D01*
X137554762Y-77192381D02*
X137650001Y-77192381D01*
X137745239Y-77240000D01*
X137792858Y-77287619D01*
X137840477Y-77382857D01*
X137888096Y-77573333D01*
X137888096Y-77811429D01*
X137840477Y-78001905D01*
X137792858Y-78097143D01*
X137745239Y-78144762D01*
X137650001Y-78192381D01*
X137554762Y-78192381D01*
X137459524Y-78144762D01*
X137411905Y-78097143D01*
X137364286Y-78001905D01*
X137316667Y-77811429D01*
X137316667Y-77573333D01*
X137364286Y-77382857D01*
X137411905Y-77287619D01*
X137459524Y-77240000D01*
X137554762Y-77192381D01*
X143514762Y-82917619D02*
X143419524Y-82870000D01*
X143324286Y-82774762D01*
X143181429Y-82631905D01*
X143086190Y-82584286D01*
X142990952Y-82584286D01*
X143038571Y-82822381D02*
X142943333Y-82774762D01*
X142848095Y-82679524D01*
X142800476Y-82489048D01*
X142800476Y-82155714D01*
X142848095Y-81965238D01*
X142943333Y-81870000D01*
X143038571Y-81822381D01*
X143229048Y-81822381D01*
X143324286Y-81870000D01*
X143419524Y-81965238D01*
X143467143Y-82155714D01*
X143467143Y-82489048D01*
X143419524Y-82679524D01*
X143324286Y-82774762D01*
X143229048Y-82822381D01*
X143038571Y-82822381D01*
X144419524Y-82822381D02*
X143848095Y-82822381D01*
X144133809Y-82822381D02*
X144133809Y-81822381D01*
X144038571Y-81965238D01*
X143943333Y-82060476D01*
X143848095Y-82108095D01*
X151504762Y-82637619D02*
X151409524Y-82590000D01*
X151314286Y-82494762D01*
X151171429Y-82351905D01*
X151076190Y-82304286D01*
X150980952Y-82304286D01*
X151028571Y-82542381D02*
X150933333Y-82494762D01*
X150838095Y-82399524D01*
X150790476Y-82209048D01*
X150790476Y-81875714D01*
X150838095Y-81685238D01*
X150933333Y-81590000D01*
X151028571Y-81542381D01*
X151219048Y-81542381D01*
X151314286Y-81590000D01*
X151409524Y-81685238D01*
X151457143Y-81875714D01*
X151457143Y-82209048D01*
X151409524Y-82399524D01*
X151314286Y-82494762D01*
X151219048Y-82542381D01*
X151028571Y-82542381D01*
X151838095Y-81637619D02*
X151885714Y-81590000D01*
X151980952Y-81542381D01*
X152219048Y-81542381D01*
X152314286Y-81590000D01*
X152361905Y-81637619D01*
X152409524Y-81732857D01*
X152409524Y-81828095D01*
X152361905Y-81970952D01*
X151790476Y-82542381D01*
X152409524Y-82542381D01*
X171357143Y-68166666D02*
X171404762Y-68214285D01*
X171452381Y-68357142D01*
X171452381Y-68452380D01*
X171404762Y-68595238D01*
X171309524Y-68690476D01*
X171214286Y-68738095D01*
X171023810Y-68785714D01*
X170880952Y-68785714D01*
X170690476Y-68738095D01*
X170595238Y-68690476D01*
X170500000Y-68595238D01*
X170452381Y-68452380D01*
X170452381Y-68357142D01*
X170500000Y-68214285D01*
X170547619Y-68166666D01*
X171452381Y-67214285D02*
X171452381Y-67785714D01*
X171452381Y-67500000D02*
X170452381Y-67500000D01*
X170595238Y-67595238D01*
X170690476Y-67690476D01*
X170738095Y-67785714D01*
X171452381Y-66166666D02*
X171452381Y-66738095D01*
X171452381Y-66452381D02*
X170452381Y-66452381D01*
X170595238Y-66547619D01*
X170690476Y-66642857D01*
X170738095Y-66738095D01*
X170785714Y-65738095D02*
X171452381Y-65738095D01*
X170880952Y-65738095D02*
X170833333Y-65690476D01*
X170785714Y-65595238D01*
X170785714Y-65452380D01*
X170833333Y-65357142D01*
X170928571Y-65309523D01*
X171452381Y-65309523D01*
X173157143Y-68166666D02*
X173204762Y-68214285D01*
X173252381Y-68357142D01*
X173252381Y-68452380D01*
X173204762Y-68595238D01*
X173109524Y-68690476D01*
X173014286Y-68738095D01*
X172823810Y-68785714D01*
X172680952Y-68785714D01*
X172490476Y-68738095D01*
X172395238Y-68690476D01*
X172300000Y-68595238D01*
X172252381Y-68452380D01*
X172252381Y-68357142D01*
X172300000Y-68214285D01*
X172347619Y-68166666D01*
X172347619Y-67785714D02*
X172300000Y-67738095D01*
X172252381Y-67642857D01*
X172252381Y-67404761D01*
X172300000Y-67309523D01*
X172347619Y-67261904D01*
X172442857Y-67214285D01*
X172538095Y-67214285D01*
X172680952Y-67261904D01*
X173252381Y-67833333D01*
X173252381Y-67214285D01*
X173252381Y-66166666D02*
X173252381Y-66738095D01*
X173252381Y-66452381D02*
X172252381Y-66452381D01*
X172395238Y-66547619D01*
X172490476Y-66642857D01*
X172538095Y-66738095D01*
X172585714Y-65309523D02*
X173252381Y-65309523D01*
X172585714Y-65738095D02*
X173109524Y-65738095D01*
X173204762Y-65690476D01*
X173252381Y-65595238D01*
X173252381Y-65452380D01*
X173204762Y-65357142D01*
X173157143Y-65309523D01*
X176473334Y-86077143D02*
X176425715Y-86124762D01*
X176282858Y-86172381D01*
X176187620Y-86172381D01*
X176044762Y-86124762D01*
X175949524Y-86029524D01*
X175901905Y-85934286D01*
X175854286Y-85743810D01*
X175854286Y-85600952D01*
X175901905Y-85410476D01*
X175949524Y-85315238D01*
X176044762Y-85220000D01*
X176187620Y-85172381D01*
X176282858Y-85172381D01*
X176425715Y-85220000D01*
X176473334Y-85267619D01*
X176806667Y-85172381D02*
X177425715Y-85172381D01*
X177092381Y-85553333D01*
X177235239Y-85553333D01*
X177330477Y-85600952D01*
X177378096Y-85648571D01*
X177425715Y-85743810D01*
X177425715Y-85981905D01*
X177378096Y-86077143D01*
X177330477Y-86124762D01*
X177235239Y-86172381D01*
X176949524Y-86172381D01*
X176854286Y-86124762D01*
X176806667Y-86077143D01*
X179412381Y-84326666D02*
X179412381Y-84898095D01*
X179412381Y-84612381D02*
X178412381Y-84612381D01*
X178555238Y-84707619D01*
X178650476Y-84802857D01*
X178698095Y-84898095D01*
X178745714Y-83898095D02*
X179412381Y-83898095D01*
X178840952Y-83898095D02*
X178793333Y-83850476D01*
X178745714Y-83755238D01*
X178745714Y-83612380D01*
X178793333Y-83517142D01*
X178888571Y-83469523D01*
X179412381Y-83469523D01*
X179397143Y-82256666D02*
X179444762Y-82304285D01*
X179492381Y-82447142D01*
X179492381Y-82542380D01*
X179444762Y-82685238D01*
X179349524Y-82780476D01*
X179254286Y-82828095D01*
X179063810Y-82875714D01*
X178920952Y-82875714D01*
X178730476Y-82828095D01*
X178635238Y-82780476D01*
X178540000Y-82685238D01*
X178492381Y-82542380D01*
X178492381Y-82447142D01*
X178540000Y-82304285D01*
X178587619Y-82256666D01*
X178825714Y-81399523D02*
X179492381Y-81399523D01*
X178444762Y-81637619D02*
X179159048Y-81875714D01*
X179159048Y-81256666D01*
X176613334Y-81502381D02*
X176041905Y-81502381D01*
X176327619Y-81502381D02*
X176327619Y-80502381D01*
X176232381Y-80645238D01*
X176137143Y-80740476D01*
X176041905Y-80788095D01*
X177041905Y-80835714D02*
X177041905Y-81502381D01*
X177041905Y-80930952D02*
X177089524Y-80883333D01*
X177184762Y-80835714D01*
X177327620Y-80835714D01*
X177422858Y-80883333D01*
X177470477Y-80978571D01*
X177470477Y-81502381D01*
X152603334Y-91237143D02*
X152555715Y-91284762D01*
X152412858Y-91332381D01*
X152317620Y-91332381D01*
X152174762Y-91284762D01*
X152079524Y-91189524D01*
X152031905Y-91094286D01*
X151984286Y-90903810D01*
X151984286Y-90760952D01*
X152031905Y-90570476D01*
X152079524Y-90475238D01*
X152174762Y-90380000D01*
X152317620Y-90332381D01*
X152412858Y-90332381D01*
X152555715Y-90380000D01*
X152603334Y-90427619D01*
X153508096Y-90332381D02*
X153031905Y-90332381D01*
X152984286Y-90808571D01*
X153031905Y-90760952D01*
X153127143Y-90713333D01*
X153365239Y-90713333D01*
X153460477Y-90760952D01*
X153508096Y-90808571D01*
X153555715Y-90903810D01*
X153555715Y-91141905D01*
X153508096Y-91237143D01*
X153460477Y-91284762D01*
X153365239Y-91332381D01*
X153127143Y-91332381D01*
X153031905Y-91284762D01*
X152984286Y-91237143D01*
X154587143Y-94048571D02*
X154634762Y-94000952D01*
X154682381Y-94048571D01*
X154634762Y-94096190D01*
X154587143Y-94048571D01*
X154682381Y-94048571D01*
X154682381Y-93048571D02*
X154682381Y-93620000D01*
X154682381Y-93334286D02*
X153682381Y-93334286D01*
X153825238Y-93429524D01*
X153920476Y-93524762D01*
X153968095Y-93620000D01*
X154015714Y-92191428D02*
X154682381Y-92191428D01*
X154015714Y-92620000D02*
X154539524Y-92620000D01*
X154634762Y-92572381D01*
X154682381Y-92477143D01*
X154682381Y-92334285D01*
X154634762Y-92239047D01*
X154587143Y-92191428D01*
X134524688Y-77870389D02*
X134524688Y-77937732D01*
X134457344Y-78072419D01*
X134390001Y-78139763D01*
X134255313Y-78207107D01*
X134120626Y-78207107D01*
X134019611Y-78173435D01*
X133851253Y-78072420D01*
X133750237Y-77971404D01*
X133649222Y-77803045D01*
X133615550Y-77702030D01*
X133615550Y-77567343D01*
X133682894Y-77432656D01*
X133750237Y-77365312D01*
X133884924Y-77297969D01*
X133952268Y-77297969D01*
X134491016Y-76624534D02*
X134356328Y-76759222D01*
X134322657Y-76860237D01*
X134322657Y-76927580D01*
X134356328Y-77095939D01*
X134457343Y-77264297D01*
X134726718Y-77533672D01*
X134827733Y-77567343D01*
X134895076Y-77567343D01*
X134996092Y-77533672D01*
X135130779Y-77398984D01*
X135164451Y-77297969D01*
X135164451Y-77230626D01*
X135130779Y-77129610D01*
X134962421Y-76961252D01*
X134861405Y-76927579D01*
X134794061Y-76927579D01*
X134693046Y-76961251D01*
X134558359Y-77095939D01*
X134524687Y-77196954D01*
X134524687Y-77264297D01*
X134558359Y-77365313D01*
X134965938Y-75609137D02*
X135033282Y-75609137D01*
X135033282Y-75676481D01*
X134965938Y-75676481D01*
X134965938Y-75609137D01*
X135033282Y-75676481D01*
X135740389Y-74969374D02*
X135336327Y-75373435D01*
X135538358Y-75171405D02*
X134831251Y-74464298D01*
X134864923Y-74632657D01*
X134864923Y-74767343D01*
X134831251Y-74868359D01*
X135875075Y-73891877D02*
X136346480Y-74363282D01*
X135572029Y-74194924D02*
X135942419Y-74565313D01*
X136043434Y-74598985D01*
X136144449Y-74565313D01*
X136245465Y-74464297D01*
X136279137Y-74363282D01*
X136279137Y-74295939D01*
X151897143Y-96726666D02*
X151944762Y-96774285D01*
X151992381Y-96917142D01*
X151992381Y-97012380D01*
X151944762Y-97155238D01*
X151849524Y-97250476D01*
X151754286Y-97298095D01*
X151563810Y-97345714D01*
X151420952Y-97345714D01*
X151230476Y-97298095D01*
X151135238Y-97250476D01*
X151040000Y-97155238D01*
X150992381Y-97012380D01*
X150992381Y-96917142D01*
X151040000Y-96774285D01*
X151087619Y-96726666D01*
X150992381Y-96393333D02*
X150992381Y-95726666D01*
X151992381Y-96155238D01*
X155392381Y-95892857D02*
X155392381Y-96464286D01*
X155392381Y-96178572D02*
X154392381Y-96178572D01*
X154535238Y-96273810D01*
X154630476Y-96369048D01*
X154678095Y-96464286D01*
X154392381Y-95273810D02*
X154392381Y-95178571D01*
X154440000Y-95083333D01*
X154487619Y-95035714D01*
X154582857Y-94988095D01*
X154773333Y-94940476D01*
X155011429Y-94940476D01*
X155201905Y-94988095D01*
X155297143Y-95035714D01*
X155344762Y-95083333D01*
X155392381Y-95178571D01*
X155392381Y-95273810D01*
X155344762Y-95369048D01*
X155297143Y-95416667D01*
X155201905Y-95464286D01*
X155011429Y-95511905D01*
X154773333Y-95511905D01*
X154582857Y-95464286D01*
X154487619Y-95416667D01*
X154440000Y-95369048D01*
X154392381Y-95273810D01*
X154725714Y-94083333D02*
X155392381Y-94083333D01*
X154725714Y-94511905D02*
X155249524Y-94511905D01*
X155344762Y-94464286D01*
X155392381Y-94369048D01*
X155392381Y-94226190D01*
X155344762Y-94130952D01*
X155297143Y-94083333D01*
X139223334Y-90957143D02*
X139175715Y-91004762D01*
X139032858Y-91052381D01*
X138937620Y-91052381D01*
X138794762Y-91004762D01*
X138699524Y-90909524D01*
X138651905Y-90814286D01*
X138604286Y-90623810D01*
X138604286Y-90480952D01*
X138651905Y-90290476D01*
X138699524Y-90195238D01*
X138794762Y-90100000D01*
X138937620Y-90052381D01*
X139032858Y-90052381D01*
X139175715Y-90100000D01*
X139223334Y-90147619D01*
X139794762Y-90480952D02*
X139699524Y-90433333D01*
X139651905Y-90385714D01*
X139604286Y-90290476D01*
X139604286Y-90242857D01*
X139651905Y-90147619D01*
X139699524Y-90100000D01*
X139794762Y-90052381D01*
X139985239Y-90052381D01*
X140080477Y-90100000D01*
X140128096Y-90147619D01*
X140175715Y-90242857D01*
X140175715Y-90290476D01*
X140128096Y-90385714D01*
X140080477Y-90433333D01*
X139985239Y-90480952D01*
X139794762Y-90480952D01*
X139699524Y-90528571D01*
X139651905Y-90576190D01*
X139604286Y-90671429D01*
X139604286Y-90861905D01*
X139651905Y-90957143D01*
X139699524Y-91004762D01*
X139794762Y-91052381D01*
X139985239Y-91052381D01*
X140080477Y-91004762D01*
X140128096Y-90957143D01*
X140175715Y-90861905D01*
X140175715Y-90671429D01*
X140128096Y-90576190D01*
X140080477Y-90528571D01*
X139985239Y-90480952D01*
X141761429Y-92317143D02*
X141809048Y-92364762D01*
X141761429Y-92412381D01*
X141713810Y-92364762D01*
X141761429Y-92317143D01*
X141761429Y-92412381D01*
X142761429Y-92412381D02*
X142190000Y-92412381D01*
X142475714Y-92412381D02*
X142475714Y-91412381D01*
X142380476Y-91555238D01*
X142285238Y-91650476D01*
X142190000Y-91698095D01*
X143618572Y-91745714D02*
X143618572Y-92412381D01*
X143190000Y-91745714D02*
X143190000Y-92269524D01*
X143237619Y-92364762D01*
X143332857Y-92412381D01*
X143475715Y-92412381D01*
X143570953Y-92364762D01*
X143618572Y-92317143D01*
X154583334Y-88957143D02*
X154535715Y-89004762D01*
X154392858Y-89052381D01*
X154297620Y-89052381D01*
X154154762Y-89004762D01*
X154059524Y-88909524D01*
X154011905Y-88814286D01*
X153964286Y-88623810D01*
X153964286Y-88480952D01*
X154011905Y-88290476D01*
X154059524Y-88195238D01*
X154154762Y-88100000D01*
X154297620Y-88052381D01*
X154392858Y-88052381D01*
X154535715Y-88100000D01*
X154583334Y-88147619D01*
X155059524Y-89052381D02*
X155250000Y-89052381D01*
X155345239Y-89004762D01*
X155392858Y-88957143D01*
X155488096Y-88814286D01*
X155535715Y-88623810D01*
X155535715Y-88242857D01*
X155488096Y-88147619D01*
X155440477Y-88100000D01*
X155345239Y-88052381D01*
X155154762Y-88052381D01*
X155059524Y-88100000D01*
X155011905Y-88147619D01*
X154964286Y-88242857D01*
X154964286Y-88480952D01*
X155011905Y-88576190D01*
X155059524Y-88623810D01*
X155154762Y-88671429D01*
X155345239Y-88671429D01*
X155440477Y-88623810D01*
X155488096Y-88576190D01*
X155535715Y-88480952D01*
X154593334Y-90422381D02*
X154021905Y-90422381D01*
X154307619Y-90422381D02*
X154307619Y-89422381D01*
X154212381Y-89565238D01*
X154117143Y-89660476D01*
X154021905Y-89708095D01*
X155450477Y-89755714D02*
X155450477Y-90422381D01*
X155021905Y-89755714D02*
X155021905Y-90279524D01*
X155069524Y-90374762D01*
X155164762Y-90422381D01*
X155307620Y-90422381D01*
X155402858Y-90374762D01*
X155450477Y-90327143D01*
X121292893Y-68197970D02*
X121225550Y-68197970D01*
X121090863Y-68130626D01*
X121023519Y-68063283D01*
X120956175Y-67928595D01*
X120956175Y-67793908D01*
X120989847Y-67692893D01*
X121090862Y-67524535D01*
X121191878Y-67423519D01*
X121360237Y-67322504D01*
X121461252Y-67288832D01*
X121595939Y-67288832D01*
X121730626Y-67356176D01*
X121797970Y-67423519D01*
X121865313Y-67558206D01*
X121865313Y-67625550D01*
X121898985Y-68938748D02*
X121494924Y-68534687D01*
X121696954Y-68736717D02*
X122404061Y-68029610D01*
X122235702Y-68063282D01*
X122101015Y-68063282D01*
X122000000Y-68029610D01*
X122572420Y-69612183D02*
X122168359Y-69208122D01*
X122370389Y-69410152D02*
X123077496Y-68703045D01*
X122909137Y-68736717D01*
X122774450Y-68736717D01*
X122673435Y-68703045D01*
X121469222Y-66275855D02*
X121536565Y-66275855D01*
X121536565Y-66343198D01*
X121469222Y-66343198D01*
X121469222Y-66275855D01*
X121536565Y-66343198D01*
X121098832Y-65366718D02*
X121536565Y-64928985D01*
X121570236Y-65434061D01*
X121671252Y-65333045D01*
X121772267Y-65299374D01*
X121839610Y-65299374D01*
X121940626Y-65333046D01*
X122108985Y-65501405D01*
X122142657Y-65602420D01*
X122142657Y-65669763D01*
X122108985Y-65770778D01*
X121906954Y-65972810D01*
X121805939Y-66006481D01*
X121738595Y-66006481D01*
X121772267Y-64693283D02*
X122210000Y-64255550D01*
X122243671Y-64760626D01*
X122344687Y-64659610D01*
X122445702Y-64625939D01*
X122513045Y-64625939D01*
X122614061Y-64659611D01*
X122782420Y-64827970D01*
X122816092Y-64928985D01*
X122816092Y-64996328D01*
X122782420Y-65097343D01*
X122580389Y-65299374D01*
X122479374Y-65333046D01*
X122412030Y-65333046D01*
X123051794Y-63885160D02*
X123523198Y-64356565D01*
X122748747Y-64188206D02*
X123119137Y-64558596D01*
X123220152Y-64592268D01*
X123321167Y-64558596D01*
X123422183Y-64457580D01*
X123455855Y-64356565D01*
X123455855Y-64289222D01*
X122492893Y-66997970D02*
X122425550Y-66997970D01*
X122290863Y-66930626D01*
X122223519Y-66863283D01*
X122156175Y-66728595D01*
X122156175Y-66593908D01*
X122189847Y-66492893D01*
X122290862Y-66324535D01*
X122391878Y-66223519D01*
X122560237Y-66122504D01*
X122661252Y-66088832D01*
X122795939Y-66088832D01*
X122930626Y-66156176D01*
X122997970Y-66223519D01*
X123065313Y-66358206D01*
X123065313Y-66425550D01*
X123098985Y-67738748D02*
X122694924Y-67334687D01*
X122896954Y-67536717D02*
X123604061Y-66829610D01*
X123435702Y-66863282D01*
X123301015Y-66863282D01*
X123200000Y-66829610D01*
X124008122Y-67368359D02*
X124075465Y-67368359D01*
X124176481Y-67402030D01*
X124344840Y-67570390D01*
X124378512Y-67671405D01*
X124378512Y-67738748D01*
X124344840Y-67839763D01*
X124277496Y-67907107D01*
X124142810Y-67974450D01*
X123334687Y-67974450D01*
X123772420Y-68412183D01*
X119179222Y-68465855D02*
X119246565Y-68465855D01*
X119246565Y-68533198D01*
X119179222Y-68533198D01*
X119179222Y-68465855D01*
X119246565Y-68533198D01*
X118808832Y-67556718D02*
X119246565Y-67118985D01*
X119280236Y-67624061D01*
X119381252Y-67523045D01*
X119482267Y-67489374D01*
X119549610Y-67489374D01*
X119650626Y-67523046D01*
X119818985Y-67691405D01*
X119852657Y-67792420D01*
X119852657Y-67859763D01*
X119818985Y-67960778D01*
X119616954Y-68162810D01*
X119515939Y-68196481D01*
X119448595Y-68196481D01*
X119482267Y-66883283D02*
X119920000Y-66445550D01*
X119953671Y-66950626D01*
X120054687Y-66849610D01*
X120155702Y-66815939D01*
X120223045Y-66815939D01*
X120324061Y-66849611D01*
X120492420Y-67017970D01*
X120526092Y-67118985D01*
X120526092Y-67186328D01*
X120492420Y-67287343D01*
X120290389Y-67489374D01*
X120189374Y-67523046D01*
X120122030Y-67523046D01*
X120761794Y-66075160D02*
X121233198Y-66546565D01*
X120458747Y-66378206D02*
X120829137Y-66748596D01*
X120930152Y-66782268D01*
X121031167Y-66748596D01*
X121132183Y-66647580D01*
X121165855Y-66546565D01*
X121165855Y-66479222D01*
X123892893Y-65907970D02*
X123825550Y-65907970D01*
X123690863Y-65840626D01*
X123623519Y-65773283D01*
X123556175Y-65638595D01*
X123556175Y-65503908D01*
X123589847Y-65402893D01*
X123690862Y-65234535D01*
X123791878Y-65133519D01*
X123960237Y-65032504D01*
X124061252Y-64998832D01*
X124195939Y-64998832D01*
X124330626Y-65066176D01*
X124397970Y-65133519D01*
X124465313Y-65268206D01*
X124465313Y-65335550D01*
X124498985Y-66648748D02*
X124094924Y-66244687D01*
X124296954Y-66446717D02*
X125004061Y-65739610D01*
X124835702Y-65773282D01*
X124701015Y-65773282D01*
X124600000Y-65739610D01*
X125441794Y-66177343D02*
X125879527Y-66615076D01*
X125374450Y-66648747D01*
X125475466Y-66749763D01*
X125509138Y-66850778D01*
X125509138Y-66918122D01*
X125475465Y-67019138D01*
X125307107Y-67187496D01*
X125206092Y-67221168D01*
X125138748Y-67221168D01*
X125037733Y-67187496D01*
X124835702Y-66985465D01*
X124802030Y-66884450D01*
X124802030Y-66817107D01*
X123504145Y-63709222D02*
X123504145Y-63776565D01*
X123436802Y-63776565D01*
X123436802Y-63709222D01*
X123504145Y-63709222D01*
X123436802Y-63776565D01*
X124413282Y-63338832D02*
X124851015Y-63776565D01*
X124345939Y-63810236D01*
X124446955Y-63911252D01*
X124480626Y-64012267D01*
X124480626Y-64079610D01*
X124446954Y-64180626D01*
X124278595Y-64348985D01*
X124177580Y-64382657D01*
X124110237Y-64382657D01*
X124009222Y-64348985D01*
X123807190Y-64146954D01*
X123773519Y-64045939D01*
X123773519Y-63978595D01*
X125086717Y-64012267D02*
X125524450Y-64450000D01*
X125019374Y-64483671D01*
X125120390Y-64584687D01*
X125154061Y-64685702D01*
X125154061Y-64753045D01*
X125120389Y-64854061D01*
X124952030Y-65022420D01*
X124851015Y-65056092D01*
X124783672Y-65056092D01*
X124682657Y-65022420D01*
X124480626Y-64820389D01*
X124446954Y-64719374D01*
X124446954Y-64652030D01*
X125894840Y-65291794D02*
X125423435Y-65763198D01*
X125591794Y-64988747D02*
X125221404Y-65359137D01*
X125187732Y-65460152D01*
X125221404Y-65561167D01*
X125322420Y-65662183D01*
X125423435Y-65695855D01*
X125490778Y-65695855D01*
X130857970Y-83707107D02*
X130857970Y-83774450D01*
X130790626Y-83909137D01*
X130723283Y-83976481D01*
X130588595Y-84043825D01*
X130453908Y-84043825D01*
X130352893Y-84010153D01*
X130184535Y-83909138D01*
X130083519Y-83808122D01*
X129982504Y-83639763D01*
X129948832Y-83538748D01*
X129948832Y-83404061D01*
X130016176Y-83269374D01*
X130083519Y-83202030D01*
X130218206Y-83134687D01*
X130285550Y-83134687D01*
X131598748Y-83101015D02*
X131194687Y-83505076D01*
X131396717Y-83303046D02*
X130689610Y-82595939D01*
X130723282Y-82764298D01*
X130723282Y-82898985D01*
X130689610Y-83000000D01*
X131733435Y-82023519D02*
X132204840Y-82494924D01*
X131295702Y-81922504D02*
X131632420Y-82595939D01*
X132070153Y-82158206D01*
X131040084Y-84070152D02*
X131040084Y-84002809D01*
X131073756Y-83901794D01*
X131242115Y-83733434D01*
X131343131Y-83699763D01*
X131410474Y-83699763D01*
X131511489Y-83733434D01*
X131578833Y-83800778D01*
X131646176Y-83935465D01*
X131646176Y-84743587D01*
X132083909Y-84305854D01*
X132319611Y-83935465D02*
X132386955Y-83935465D01*
X132386955Y-84002809D01*
X132319611Y-84002809D01*
X132319611Y-83935465D01*
X132386955Y-84002809D01*
X132050237Y-83060000D02*
X132050237Y-82992657D01*
X132083908Y-82891641D01*
X132252268Y-82723282D01*
X132353283Y-82689610D01*
X132420626Y-82689610D01*
X132521641Y-82723282D01*
X132588985Y-82790626D01*
X132656328Y-82925312D01*
X132656328Y-83733435D01*
X133094061Y-83295702D01*
X133228748Y-82218206D02*
X133700153Y-82689610D01*
X132925702Y-82521252D02*
X133296092Y-82891641D01*
X133397107Y-82925313D01*
X133498122Y-82891641D01*
X133599138Y-82790626D01*
X133632810Y-82689610D01*
X133632810Y-82622267D01*
X133902183Y-81746801D02*
X133666481Y-81982504D01*
X134036870Y-82352893D02*
X133329763Y-81645786D01*
X133666481Y-81309069D01*
X120092893Y-69397970D02*
X120025550Y-69397970D01*
X119890863Y-69330626D01*
X119823519Y-69263283D01*
X119756175Y-69128595D01*
X119756175Y-68993908D01*
X119789847Y-68892893D01*
X119890862Y-68724535D01*
X119991878Y-68623519D01*
X120160237Y-68522504D01*
X120261252Y-68488832D01*
X120395939Y-68488832D01*
X120530626Y-68556176D01*
X120597970Y-68623519D01*
X120665313Y-68758206D01*
X120665313Y-68825550D01*
X120698985Y-70138748D02*
X120294924Y-69734687D01*
X120496954Y-69936717D02*
X121204061Y-69229610D01*
X121035702Y-69263282D01*
X120901015Y-69263282D01*
X120800000Y-69229610D01*
X122045855Y-70071405D02*
X121709137Y-69734687D01*
X121338748Y-70037732D01*
X121406092Y-70037732D01*
X121507107Y-70071404D01*
X121675466Y-70239763D01*
X121709138Y-70340778D01*
X121709138Y-70408122D01*
X121675465Y-70509138D01*
X121507107Y-70677496D01*
X121406092Y-70711168D01*
X121338748Y-70711168D01*
X121237733Y-70677496D01*
X121069374Y-70509137D01*
X121035702Y-70408122D01*
X121035702Y-70340778D01*
X117930863Y-68955939D02*
X117930863Y-69023283D01*
X117863519Y-69023283D01*
X117863519Y-68955939D01*
X117930863Y-68955939D01*
X117863519Y-69023283D01*
X118570626Y-69730390D02*
X118166565Y-69326328D01*
X118368595Y-69528359D02*
X119075702Y-68821252D01*
X118907343Y-68854924D01*
X118772657Y-68854924D01*
X118671641Y-68821252D01*
X119648123Y-69865076D02*
X119176718Y-70336481D01*
X119345076Y-69562030D02*
X118974687Y-69932420D01*
X118941015Y-70033435D01*
X118974687Y-70134450D01*
X119075703Y-70235466D01*
X119176718Y-70269138D01*
X119244061Y-70269138D01*
X129182893Y-80587971D02*
X129115550Y-80587971D01*
X128980863Y-80520627D01*
X128913519Y-80453284D01*
X128846175Y-80318596D01*
X128846175Y-80183909D01*
X128879847Y-80082894D01*
X128980862Y-79914536D01*
X129081878Y-79813520D01*
X129250237Y-79712505D01*
X129351252Y-79678833D01*
X129485939Y-79678833D01*
X129620626Y-79746177D01*
X129687970Y-79813520D01*
X129755313Y-79948207D01*
X129755313Y-80015551D01*
X129788985Y-81328749D02*
X129384924Y-80924688D01*
X129586954Y-81126718D02*
X130294061Y-80419611D01*
X130125702Y-80453283D01*
X129991015Y-80453283D01*
X129890000Y-80419611D01*
X131102183Y-81227734D02*
X130967496Y-81093046D01*
X130866481Y-81059375D01*
X130799137Y-81059375D01*
X130630778Y-81093046D01*
X130462420Y-81194062D01*
X130193045Y-81463436D01*
X130159374Y-81564451D01*
X130159374Y-81631795D01*
X130193045Y-81732810D01*
X130327733Y-81867497D01*
X130428748Y-81901169D01*
X130496092Y-81901169D01*
X130597107Y-81867497D01*
X130765465Y-81699139D01*
X130799138Y-81598123D01*
X130799138Y-81530779D01*
X130765466Y-81429764D01*
X130630778Y-81295077D01*
X130529763Y-81261405D01*
X130462420Y-81261405D01*
X130361404Y-81295077D01*
X127505939Y-82569137D02*
X127573283Y-82569137D01*
X127573283Y-82636481D01*
X127505939Y-82636481D01*
X127505939Y-82569137D01*
X127573283Y-82636481D01*
X128280390Y-81929374D02*
X127876328Y-82333435D01*
X128078359Y-82131405D02*
X127371252Y-81424298D01*
X127404924Y-81592657D01*
X127404924Y-81727343D01*
X127371252Y-81828359D01*
X128415076Y-80851877D02*
X128886481Y-81323282D01*
X128112030Y-81154924D02*
X128482420Y-81525313D01*
X128583435Y-81558985D01*
X128684450Y-81525313D01*
X128785466Y-81424297D01*
X128819138Y-81323282D01*
X128819138Y-81255939D01*
X120382893Y-75887970D02*
X120315550Y-75887970D01*
X120180863Y-75820626D01*
X120113519Y-75753283D01*
X120046175Y-75618595D01*
X120046175Y-75483908D01*
X120079847Y-75382893D01*
X120180862Y-75214535D01*
X120281878Y-75113519D01*
X120450237Y-75012504D01*
X120551252Y-74978832D01*
X120685939Y-74978832D01*
X120820626Y-75046176D01*
X120887970Y-75113519D01*
X120955313Y-75248206D01*
X120955313Y-75315550D01*
X120988985Y-76628748D02*
X120584924Y-76224687D01*
X120786954Y-76426717D02*
X121494061Y-75719610D01*
X121325702Y-75753282D01*
X121191015Y-75753282D01*
X121090000Y-75719610D01*
X121931794Y-76157343D02*
X122403198Y-76628748D01*
X121393045Y-77032809D01*
X119751488Y-71231725D02*
X119818832Y-71231725D01*
X119919847Y-71265397D01*
X120088206Y-71433756D01*
X120121878Y-71534771D01*
X120121878Y-71602115D01*
X120088206Y-71703130D01*
X120020863Y-71770473D01*
X119886176Y-71837817D01*
X119078053Y-71837817D01*
X119515786Y-72275550D01*
X120424924Y-71905160D02*
X120492267Y-71905160D01*
X120593282Y-71938832D01*
X120761641Y-72107191D01*
X120795313Y-72208206D01*
X120795313Y-72275550D01*
X120761641Y-72376565D01*
X120694298Y-72443908D01*
X120559611Y-72511252D01*
X119751488Y-72511252D01*
X120189222Y-72948985D01*
X121334061Y-72679610D02*
X121401405Y-72746955D01*
X121435076Y-72847970D01*
X121435076Y-72915313D01*
X121401405Y-73016328D01*
X121300390Y-73184687D01*
X121132030Y-73353046D01*
X120963672Y-73454061D01*
X120862657Y-73487733D01*
X120795313Y-73487733D01*
X120694298Y-73454061D01*
X120626954Y-73386717D01*
X120593282Y-73285702D01*
X120593282Y-73218359D01*
X120626954Y-73117343D01*
X120727969Y-72948985D01*
X120896328Y-72780626D01*
X121064687Y-72679610D01*
X121165702Y-72645939D01*
X121233045Y-72645939D01*
X121334061Y-72679610D01*
X121637107Y-73454061D02*
X120930000Y-74161167D01*
X121603435Y-73487732D02*
X121704450Y-73521404D01*
X121839138Y-73656092D01*
X121872810Y-73757107D01*
X121872810Y-73824450D01*
X121839138Y-73925465D01*
X121637107Y-74127496D01*
X121536092Y-74161168D01*
X121468748Y-74161168D01*
X121367733Y-74127496D01*
X121233045Y-73992809D01*
X121199374Y-73891794D01*
X122411558Y-74430542D02*
X122175855Y-74194839D01*
X121805465Y-74565229D02*
X122512572Y-73858122D01*
X122849290Y-74194840D01*
X125122268Y-85562031D02*
X124785550Y-85225313D01*
X125492657Y-84518206D01*
X125728359Y-86168123D02*
X125324298Y-85764061D01*
X125526328Y-85966092D02*
X126233435Y-85258985D01*
X126065076Y-85292657D01*
X125930390Y-85292657D01*
X125829374Y-85258985D01*
X121632504Y-78679458D02*
X121161100Y-79150863D01*
X121733519Y-78241725D02*
X121060084Y-78578443D01*
X121497817Y-79016176D01*
X122171252Y-78746802D02*
X122642657Y-79218206D01*
X121632504Y-79622267D01*
X123046717Y-79622267D02*
X123114061Y-79689611D01*
X123147733Y-79790626D01*
X123147733Y-79857970D01*
X123114061Y-79958985D01*
X123013046Y-80127343D01*
X122844687Y-80295703D01*
X122676328Y-80396718D01*
X122575313Y-80430390D01*
X122507970Y-80430390D01*
X122406955Y-80396718D01*
X122339610Y-80329374D01*
X122305939Y-80228359D01*
X122305939Y-80161015D01*
X122339610Y-80060000D01*
X122440626Y-79891641D01*
X122608985Y-79723282D01*
X122777343Y-79622267D01*
X122878359Y-79588595D01*
X122945702Y-79588595D01*
X123046717Y-79622267D01*
X123349763Y-80396717D02*
X122878359Y-80868122D01*
X123282420Y-80464061D02*
X123349763Y-80464061D01*
X123450778Y-80497732D01*
X123551794Y-80598748D01*
X123585466Y-80699763D01*
X123551794Y-80800778D01*
X123181405Y-81171168D01*
X123518122Y-81507885D02*
X124225229Y-80800778D01*
X123888512Y-81137496D02*
X124292573Y-81541557D01*
X123922183Y-81911947D02*
X124629290Y-81204840D01*
X124552381Y-84166666D02*
X124552381Y-84642857D01*
X123552381Y-84642857D01*
X123647619Y-83880952D02*
X123600000Y-83833333D01*
X123552381Y-83738095D01*
X123552381Y-83499999D01*
X123600000Y-83404761D01*
X123647619Y-83357142D01*
X123742857Y-83309523D01*
X123838095Y-83309523D01*
X123980952Y-83357142D01*
X124552381Y-83928571D01*
X124552381Y-83309523D01*
X119685714Y-85738095D02*
X120352381Y-85738095D01*
X119304762Y-85976191D02*
X120019048Y-86214286D01*
X120019048Y-85595238D01*
X119352381Y-85309524D02*
X119352381Y-84642857D01*
X120352381Y-85071429D01*
X119352381Y-84071429D02*
X119352381Y-83976190D01*
X119400000Y-83880952D01*
X119447619Y-83833333D01*
X119542857Y-83785714D01*
X119733333Y-83738095D01*
X119971429Y-83738095D01*
X120161905Y-83785714D01*
X120257143Y-83833333D01*
X120304762Y-83880952D01*
X120352381Y-83976190D01*
X120352381Y-84071429D01*
X120304762Y-84166667D01*
X120257143Y-84214286D01*
X120161905Y-84261905D01*
X119971429Y-84309524D01*
X119733333Y-84309524D01*
X119542857Y-84261905D01*
X119447619Y-84214286D01*
X119400000Y-84166667D01*
X119352381Y-84071429D01*
X119685714Y-83309524D02*
X120352381Y-83309524D01*
X119780952Y-83309524D02*
X119733333Y-83261905D01*
X119685714Y-83166667D01*
X119685714Y-83023809D01*
X119733333Y-82928571D01*
X119828571Y-82880952D01*
X120352381Y-82880952D01*
X120352381Y-82404762D02*
X119352381Y-82404762D01*
X119828571Y-82404762D02*
X119828571Y-81833333D01*
X120352381Y-81833333D02*
X119352381Y-81833333D01*
X145441905Y-97037381D02*
X145441905Y-96037381D01*
X145822858Y-96037381D01*
X145918096Y-96085000D01*
X145965715Y-96132619D01*
X146013334Y-96227857D01*
X146013334Y-96370714D01*
X145965715Y-96465952D01*
X145918096Y-96513571D01*
X145822858Y-96561190D01*
X145441905Y-96561190D01*
X146394286Y-96132619D02*
X146441905Y-96085000D01*
X146537143Y-96037381D01*
X146775239Y-96037381D01*
X146870477Y-96085000D01*
X146918096Y-96132619D01*
X146965715Y-96227857D01*
X146965715Y-96323095D01*
X146918096Y-96465952D01*
X146346667Y-97037381D01*
X146965715Y-97037381D01*
X126261905Y-102452381D02*
X126261905Y-101452381D01*
X126642858Y-101452381D01*
X126738096Y-101500000D01*
X126785715Y-101547619D01*
X126833334Y-101642857D01*
X126833334Y-101785714D01*
X126785715Y-101880952D01*
X126738096Y-101928571D01*
X126642858Y-101976190D01*
X126261905Y-101976190D01*
X127690477Y-101785714D02*
X127690477Y-102452381D01*
X127452381Y-101404762D02*
X127214286Y-102119048D01*
X127833334Y-102119048D01*
X126380953Y-102452381D02*
X126047619Y-101976190D01*
X125809524Y-102452381D02*
X125809524Y-101452381D01*
X126190477Y-101452381D01*
X126285715Y-101500000D01*
X126333334Y-101547619D01*
X126380953Y-101642857D01*
X126380953Y-101785714D01*
X126333334Y-101880952D01*
X126285715Y-101928571D01*
X126190477Y-101976190D01*
X125809524Y-101976190D01*
X127380953Y-102357143D02*
X127333334Y-102404762D01*
X127190477Y-102452381D01*
X127095239Y-102452381D01*
X126952381Y-102404762D01*
X126857143Y-102309524D01*
X126809524Y-102214286D01*
X126761905Y-102023810D01*
X126761905Y-101880952D01*
X126809524Y-101690476D01*
X126857143Y-101595238D01*
X126952381Y-101500000D01*
X127095239Y-101452381D01*
X127190477Y-101452381D01*
X127333334Y-101500000D01*
X127380953Y-101547619D01*
X127761905Y-102166667D02*
X128238096Y-102166667D01*
X127666667Y-102452381D02*
X128000000Y-101452381D01*
X128333334Y-102452381D01*
X122555550Y-92705312D02*
X122656565Y-92132892D01*
X122151488Y-92301251D02*
X122858595Y-91594144D01*
X123127970Y-91863518D01*
X123161641Y-91964534D01*
X123161641Y-92031877D01*
X123127970Y-92132892D01*
X123026955Y-92233907D01*
X122925939Y-92267579D01*
X122858596Y-92267579D01*
X122757581Y-92233907D01*
X122488206Y-91964533D01*
X123228985Y-93378747D02*
X122824924Y-92974686D01*
X123026954Y-93176716D02*
X123734061Y-92469609D01*
X123565702Y-92503281D01*
X123431015Y-92503281D01*
X123330000Y-92469609D01*
X124171794Y-92907342D02*
X124643198Y-93378747D01*
X123633045Y-93782808D01*
X121758714Y-89028478D02*
X121354653Y-88624416D01*
X121556683Y-88826447D02*
X122263790Y-88119340D01*
X122095431Y-88153012D01*
X121960745Y-88153012D01*
X121859729Y-88119340D01*
X122903553Y-88759103D02*
X122970898Y-88826447D01*
X123004569Y-88927462D01*
X123004569Y-88994806D01*
X122970898Y-89095821D01*
X122869882Y-89264180D01*
X122701523Y-89432539D01*
X122533164Y-89533554D01*
X122432149Y-89567226D01*
X122364806Y-89567226D01*
X122263791Y-89533554D01*
X122196447Y-89466210D01*
X122162775Y-89365195D01*
X122162775Y-89297851D01*
X122196447Y-89196836D01*
X122297462Y-89028478D01*
X122465821Y-88860118D01*
X122634180Y-88759103D01*
X122735195Y-88725431D01*
X122802538Y-88725431D01*
X122903553Y-88759103D01*
X123576988Y-89432538D02*
X123644333Y-89499882D01*
X123678004Y-89600898D01*
X123678004Y-89668241D01*
X123644333Y-89769256D01*
X123543317Y-89937615D01*
X123374958Y-90105974D01*
X123206600Y-90206989D01*
X123105584Y-90240661D01*
X123038241Y-90240661D01*
X122937226Y-90206989D01*
X122869882Y-90139645D01*
X122836210Y-90038630D01*
X122836210Y-89971286D01*
X122869882Y-89870271D01*
X122970897Y-89701913D01*
X123139256Y-89533553D01*
X123307615Y-89432538D01*
X123408630Y-89398867D01*
X123475973Y-89398867D01*
X123576988Y-89432538D01*
X125557143Y-94802381D02*
X125223809Y-94326190D01*
X124985714Y-94802381D02*
X124985714Y-93802381D01*
X125366667Y-93802381D01*
X125461905Y-93850000D01*
X125509524Y-93897619D01*
X125557143Y-93992857D01*
X125557143Y-94135714D01*
X125509524Y-94230952D01*
X125461905Y-94278571D01*
X125366667Y-94326190D01*
X124985714Y-94326190D01*
X126509524Y-94802381D02*
X125938095Y-94802381D01*
X126223809Y-94802381D02*
X126223809Y-93802381D01*
X126128571Y-93945238D01*
X126033333Y-94040476D01*
X125938095Y-94088095D01*
X127080952Y-94230952D02*
X126985714Y-94183333D01*
X126938095Y-94135714D01*
X126890476Y-94040476D01*
X126890476Y-93992857D01*
X126938095Y-93897619D01*
X126985714Y-93850000D01*
X127080952Y-93802381D01*
X127271429Y-93802381D01*
X127366667Y-93850000D01*
X127414286Y-93897619D01*
X127461905Y-93992857D01*
X127461905Y-94040476D01*
X127414286Y-94135714D01*
X127366667Y-94183333D01*
X127271429Y-94230952D01*
X127080952Y-94230952D01*
X126985714Y-94278571D01*
X126938095Y-94326190D01*
X126890476Y-94421429D01*
X126890476Y-94611905D01*
X126938095Y-94707143D01*
X126985714Y-94754762D01*
X127080952Y-94802381D01*
X127271429Y-94802381D01*
X127366667Y-94754762D01*
X127414286Y-94707143D01*
X127461905Y-94611905D01*
X127461905Y-94421429D01*
X127414286Y-94326190D01*
X127366667Y-94278571D01*
X127271429Y-94230952D01*
X127413334Y-92882381D02*
X126841905Y-92882381D01*
X127127619Y-92882381D02*
X127127619Y-91882381D01*
X127032381Y-92025238D01*
X126937143Y-92120476D01*
X126841905Y-92168095D01*
X128032381Y-91882381D02*
X128127620Y-91882381D01*
X128222858Y-91930000D01*
X128270477Y-91977619D01*
X128318096Y-92072857D01*
X128365715Y-92263333D01*
X128365715Y-92501429D01*
X128318096Y-92691905D01*
X128270477Y-92787143D01*
X128222858Y-92834762D01*
X128127620Y-92882381D01*
X128032381Y-92882381D01*
X127937143Y-92834762D01*
X127889524Y-92787143D01*
X127841905Y-92691905D01*
X127794286Y-92501429D01*
X127794286Y-92263333D01*
X127841905Y-92072857D01*
X127889524Y-91977619D01*
X127937143Y-91930000D01*
X128032381Y-91882381D01*
X128984762Y-91882381D02*
X129080001Y-91882381D01*
X129175239Y-91930000D01*
X129222858Y-91977619D01*
X129270477Y-92072857D01*
X129318096Y-92263333D01*
X129318096Y-92501429D01*
X129270477Y-92691905D01*
X129222858Y-92787143D01*
X129175239Y-92834762D01*
X129080001Y-92882381D01*
X128984762Y-92882381D01*
X128889524Y-92834762D01*
X128841905Y-92787143D01*
X128794286Y-92691905D01*
X128746667Y-92501429D01*
X128746667Y-92263333D01*
X128794286Y-92072857D01*
X128841905Y-91977619D01*
X128889524Y-91930000D01*
X128984762Y-91882381D01*
X155909524Y-86752381D02*
X155576190Y-86276190D01*
X155338095Y-86752381D02*
X155338095Y-85752381D01*
X155719048Y-85752381D01*
X155814286Y-85800000D01*
X155861905Y-85847619D01*
X155909524Y-85942857D01*
X155909524Y-86085714D01*
X155861905Y-86180952D01*
X155814286Y-86228571D01*
X155719048Y-86276190D01*
X155338095Y-86276190D01*
X156338095Y-86752381D02*
X156338095Y-85752381D01*
X156909524Y-86752381D01*
X156909524Y-85752381D01*
X157909524Y-86752381D02*
X157338095Y-86752381D01*
X157623809Y-86752381D02*
X157623809Y-85752381D01*
X157528571Y-85895238D01*
X157433333Y-85990476D01*
X157338095Y-86038095D01*
X155600001Y-87325714D02*
X155600001Y-87992381D01*
X155361905Y-86944762D02*
X155123810Y-87659048D01*
X155742858Y-87659048D01*
X156171429Y-87992381D02*
X156361905Y-87992381D01*
X156457144Y-87944762D01*
X156504763Y-87897143D01*
X156600001Y-87754286D01*
X156647620Y-87563810D01*
X156647620Y-87182857D01*
X156600001Y-87087619D01*
X156552382Y-87040000D01*
X156457144Y-86992381D01*
X156266667Y-86992381D01*
X156171429Y-87040000D01*
X156123810Y-87087619D01*
X156076191Y-87182857D01*
X156076191Y-87420952D01*
X156123810Y-87516190D01*
X156171429Y-87563810D01*
X156266667Y-87611429D01*
X156457144Y-87611429D01*
X156552382Y-87563810D01*
X156600001Y-87516190D01*
X156647620Y-87420952D01*
X157076191Y-87897143D02*
X157123810Y-87944762D01*
X157076191Y-87992381D01*
X157028572Y-87944762D01*
X157076191Y-87897143D01*
X157076191Y-87992381D01*
X157600000Y-87992381D02*
X157790476Y-87992381D01*
X157885715Y-87944762D01*
X157933334Y-87897143D01*
X158028572Y-87754286D01*
X158076191Y-87563810D01*
X158076191Y-87182857D01*
X158028572Y-87087619D01*
X157980953Y-87040000D01*
X157885715Y-86992381D01*
X157695238Y-86992381D01*
X157600000Y-87040000D01*
X157552381Y-87087619D01*
X157504762Y-87182857D01*
X157504762Y-87420952D01*
X157552381Y-87516190D01*
X157600000Y-87563810D01*
X157695238Y-87611429D01*
X157885715Y-87611429D01*
X157980953Y-87563810D01*
X158028572Y-87516190D01*
X158076191Y-87420952D01*
X163788095Y-61702381D02*
X163788095Y-62511905D01*
X163835714Y-62607143D01*
X163883333Y-62654762D01*
X163978571Y-62702381D01*
X164169048Y-62702381D01*
X164264286Y-62654762D01*
X164311905Y-62607143D01*
X164359524Y-62511905D01*
X164359524Y-61702381D01*
X165359524Y-62702381D02*
X164788095Y-62702381D01*
X165073809Y-62702381D02*
X165073809Y-61702381D01*
X164978571Y-61845238D01*
X164883333Y-61940476D01*
X164788095Y-61988095D01*
X168672381Y-75051905D02*
X169481905Y-75051905D01*
X169577143Y-75004286D01*
X169624762Y-74956667D01*
X169672381Y-74861429D01*
X169672381Y-74670952D01*
X169624762Y-74575714D01*
X169577143Y-74528095D01*
X169481905Y-74480476D01*
X168672381Y-74480476D01*
X168767619Y-74051905D02*
X168720000Y-74004286D01*
X168672381Y-73909048D01*
X168672381Y-73670952D01*
X168720000Y-73575714D01*
X168767619Y-73528095D01*
X168862857Y-73480476D01*
X168958095Y-73480476D01*
X169100952Y-73528095D01*
X169672381Y-74099524D01*
X169672381Y-73480476D01*
X163023810Y-68677381D02*
X162547619Y-68677381D01*
X162547619Y-67677381D01*
X163309524Y-68391667D02*
X163785715Y-68391667D01*
X163214286Y-68677381D02*
X163547619Y-67677381D01*
X163880953Y-68677381D01*
X164214286Y-68677381D02*
X164214286Y-67677381D01*
X164785715Y-68677381D01*
X164785715Y-67677381D01*
X165404762Y-68105952D02*
X165309524Y-68058333D01*
X165261905Y-68010714D01*
X165214286Y-67915476D01*
X165214286Y-67867857D01*
X165261905Y-67772619D01*
X165309524Y-67725000D01*
X165404762Y-67677381D01*
X165595239Y-67677381D01*
X165690477Y-67725000D01*
X165738096Y-67772619D01*
X165785715Y-67867857D01*
X165785715Y-67915476D01*
X165738096Y-68010714D01*
X165690477Y-68058333D01*
X165595239Y-68105952D01*
X165404762Y-68105952D01*
X165309524Y-68153571D01*
X165261905Y-68201190D01*
X165214286Y-68296429D01*
X165214286Y-68486905D01*
X165261905Y-68582143D01*
X165309524Y-68629762D01*
X165404762Y-68677381D01*
X165595239Y-68677381D01*
X165690477Y-68629762D01*
X165738096Y-68582143D01*
X165785715Y-68486905D01*
X165785715Y-68296429D01*
X165738096Y-68201190D01*
X165690477Y-68153571D01*
X165595239Y-68105952D01*
X166119048Y-67677381D02*
X166785715Y-67677381D01*
X166357143Y-68677381D01*
X167119048Y-67772619D02*
X167166667Y-67725000D01*
X167261905Y-67677381D01*
X167500001Y-67677381D01*
X167595239Y-67725000D01*
X167642858Y-67772619D01*
X167690477Y-67867857D01*
X167690477Y-67963095D01*
X167642858Y-68105952D01*
X167071429Y-68677381D01*
X167690477Y-68677381D01*
X168309524Y-67677381D02*
X168404763Y-67677381D01*
X168500001Y-67725000D01*
X168547620Y-67772619D01*
X168595239Y-67867857D01*
X168642858Y-68058333D01*
X168642858Y-68296429D01*
X168595239Y-68486905D01*
X168547620Y-68582143D01*
X168500001Y-68629762D01*
X168404763Y-68677381D01*
X168309524Y-68677381D01*
X168214286Y-68629762D01*
X168166667Y-68582143D01*
X168119048Y-68486905D01*
X168071429Y-68296429D01*
X168071429Y-68058333D01*
X168119048Y-67867857D01*
X168166667Y-67772619D01*
X168214286Y-67725000D01*
X168309524Y-67677381D01*
X169023810Y-68391667D02*
X169500001Y-68391667D01*
X168928572Y-68677381D02*
X169261905Y-67677381D01*
X169595239Y-68677381D01*
X139062381Y-88621905D02*
X139871905Y-88621905D01*
X139967143Y-88574286D01*
X140014762Y-88526667D01*
X140062381Y-88431429D01*
X140062381Y-88240952D01*
X140014762Y-88145714D01*
X139967143Y-88098095D01*
X139871905Y-88050476D01*
X139062381Y-88050476D01*
X139062381Y-87098095D02*
X139062381Y-87574286D01*
X139538571Y-87621905D01*
X139490952Y-87574286D01*
X139443333Y-87479048D01*
X139443333Y-87240952D01*
X139490952Y-87145714D01*
X139538571Y-87098095D01*
X139633810Y-87050476D01*
X139871905Y-87050476D01*
X139967143Y-87098095D01*
X140014762Y-87145714D01*
X140062381Y-87240952D01*
X140062381Y-87479048D01*
X140014762Y-87574286D01*
X139967143Y-87621905D01*
X140442381Y-86598095D02*
X139442381Y-86598095D01*
X140156667Y-86264761D01*
X139442381Y-85931428D01*
X140442381Y-85931428D01*
X140347143Y-84883809D02*
X140394762Y-84931428D01*
X140442381Y-85074285D01*
X140442381Y-85169523D01*
X140394762Y-85312381D01*
X140299524Y-85407619D01*
X140204286Y-85455238D01*
X140013810Y-85502857D01*
X139870952Y-85502857D01*
X139680476Y-85455238D01*
X139585238Y-85407619D01*
X139490000Y-85312381D01*
X139442381Y-85169523D01*
X139442381Y-85074285D01*
X139490000Y-84931428D01*
X139537619Y-84883809D01*
X140442381Y-84455238D02*
X139442381Y-84455238D01*
X139442381Y-84074285D01*
X139490000Y-83979047D01*
X139537619Y-83931428D01*
X139632857Y-83883809D01*
X139775714Y-83883809D01*
X139870952Y-83931428D01*
X139918571Y-83979047D01*
X139966190Y-84074285D01*
X139966190Y-84455238D01*
X140442381Y-82931428D02*
X140442381Y-83502857D01*
X140442381Y-83217143D02*
X139442381Y-83217143D01*
X139585238Y-83312381D01*
X139680476Y-83407619D01*
X139728095Y-83502857D01*
X139870952Y-82360000D02*
X139823333Y-82455238D01*
X139775714Y-82502857D01*
X139680476Y-82550476D01*
X139632857Y-82550476D01*
X139537619Y-82502857D01*
X139490000Y-82455238D01*
X139442381Y-82360000D01*
X139442381Y-82169523D01*
X139490000Y-82074285D01*
X139537619Y-82026666D01*
X139632857Y-81979047D01*
X139680476Y-81979047D01*
X139775714Y-82026666D01*
X139823333Y-82074285D01*
X139870952Y-82169523D01*
X139870952Y-82360000D01*
X139918571Y-82455238D01*
X139966190Y-82502857D01*
X140061429Y-82550476D01*
X140251905Y-82550476D01*
X140347143Y-82502857D01*
X140394762Y-82455238D01*
X140442381Y-82360000D01*
X140442381Y-82169523D01*
X140394762Y-82074285D01*
X140347143Y-82026666D01*
X140251905Y-81979047D01*
X140061429Y-81979047D01*
X139966190Y-82026666D01*
X139918571Y-82074285D01*
X139870952Y-82169523D01*
X139537619Y-81598095D02*
X139490000Y-81550476D01*
X139442381Y-81455238D01*
X139442381Y-81217142D01*
X139490000Y-81121904D01*
X139537619Y-81074285D01*
X139632857Y-81026666D01*
X139728095Y-81026666D01*
X139870952Y-81074285D01*
X140442381Y-81645714D01*
X140442381Y-81026666D01*
X139775714Y-80169523D02*
X140442381Y-80169523D01*
X139394762Y-80407619D02*
X140109048Y-80645714D01*
X140109048Y-80026666D01*
X123784027Y-73551523D02*
X124356447Y-74123943D01*
X124457462Y-74157615D01*
X124524805Y-74157615D01*
X124625820Y-74123943D01*
X124760508Y-73989255D01*
X124794180Y-73888240D01*
X124794180Y-73820897D01*
X124760508Y-73719882D01*
X124188088Y-73147462D01*
X124827851Y-72507698D02*
X124693164Y-72642386D01*
X124659492Y-72743401D01*
X124659492Y-72810745D01*
X124693164Y-72979103D01*
X124794179Y-73147462D01*
X125063553Y-73416836D01*
X125164569Y-73450508D01*
X125231912Y-73450508D01*
X125332927Y-73416836D01*
X125467615Y-73282149D01*
X125501286Y-73181133D01*
X125501286Y-73113790D01*
X125467615Y-73012775D01*
X125299256Y-72844416D01*
X125198240Y-72810744D01*
X125130897Y-72810744D01*
X125029882Y-72844416D01*
X124895194Y-72979103D01*
X124861522Y-73080118D01*
X124861522Y-73147462D01*
X124895195Y-73248478D01*
X130447783Y-69727546D02*
X131154890Y-69020439D01*
X130885516Y-69761219D01*
X131626294Y-69491844D01*
X130919188Y-70198951D01*
X131424263Y-70299966D02*
X131760981Y-70636684D01*
X131154890Y-70434653D02*
X132097698Y-69963248D01*
X131626294Y-70906058D01*
X132501760Y-70367310D02*
X132266058Y-71545821D01*
X132973164Y-70838714D02*
X131794653Y-71074416D01*
X132905821Y-72185584D02*
X132501760Y-71781523D01*
X132703790Y-71983553D02*
X133410897Y-71276447D01*
X133242538Y-71310118D01*
X133107851Y-71310118D01*
X133006836Y-71276447D01*
X133579256Y-72859019D02*
X133175195Y-72454958D01*
X133377225Y-72656988D02*
X134084332Y-71949882D01*
X133915973Y-71983553D01*
X133781286Y-71983553D01*
X133680271Y-71949882D01*
X133915973Y-73195737D02*
X134050660Y-73330424D01*
X134151676Y-73364096D01*
X134219019Y-73364096D01*
X134387378Y-73330424D01*
X134555737Y-73229409D01*
X134825111Y-72960035D01*
X134858783Y-72859019D01*
X134858783Y-72791676D01*
X134825111Y-72690661D01*
X134690424Y-72555973D01*
X134589408Y-72522302D01*
X134522065Y-72522302D01*
X134421050Y-72555973D01*
X134252691Y-72724332D01*
X134219019Y-72825347D01*
X134219019Y-72892691D01*
X134252690Y-72993706D01*
X134387378Y-73128394D01*
X134488393Y-73162066D01*
X134555737Y-73162065D01*
X134656753Y-73128393D01*
X135195500Y-73061050D02*
X135633233Y-73498783D01*
X135128157Y-73532454D01*
X135229172Y-73633470D01*
X135262844Y-73734485D01*
X135262844Y-73801828D01*
X135229172Y-73902844D01*
X135060813Y-74071203D01*
X134959798Y-74104874D01*
X134892455Y-74104874D01*
X134791439Y-74071203D01*
X134589408Y-73869172D01*
X134555737Y-73768157D01*
X134555737Y-73700813D01*
X132174027Y-87041523D02*
X132746447Y-87613943D01*
X132847462Y-87647615D01*
X132914805Y-87647615D01*
X133015820Y-87613943D01*
X133150508Y-87479255D01*
X133184180Y-87378240D01*
X133184180Y-87310897D01*
X133150508Y-87209882D01*
X132578088Y-86637462D01*
X132847462Y-86368088D02*
X133318867Y-85896683D01*
X133722927Y-86906836D01*
X134557495Y-81403857D02*
X135264602Y-80696750D01*
X134995228Y-81437529D01*
X135736007Y-81168155D01*
X135028900Y-81875261D01*
X135837022Y-82548697D02*
X135769679Y-82548697D01*
X135634992Y-82481353D01*
X135567648Y-82414010D01*
X135500304Y-82279322D01*
X135500304Y-82144635D01*
X135533976Y-82043620D01*
X135634991Y-81875261D01*
X135736007Y-81774246D01*
X135904366Y-81673230D01*
X136005381Y-81639559D01*
X136140068Y-81639559D01*
X136274755Y-81706903D01*
X136342099Y-81774246D01*
X136409442Y-81908933D01*
X136409442Y-81976277D01*
X136072724Y-82919085D02*
X136779831Y-82211979D01*
X137049205Y-82481353D01*
X137082877Y-82582368D01*
X137082877Y-82649712D01*
X137049205Y-82750727D01*
X136948190Y-82851742D01*
X136847175Y-82885414D01*
X136779832Y-82885414D01*
X136678816Y-82851742D01*
X136409442Y-82582368D01*
X137150220Y-83996582D02*
X136746159Y-83592521D01*
X136948189Y-83794551D02*
X137655296Y-83087444D01*
X137486938Y-83121116D01*
X137352251Y-83121116D01*
X137251236Y-83087444D01*
X137958342Y-83996581D02*
X137924671Y-83895566D01*
X137924671Y-83828223D01*
X137958342Y-83727207D01*
X137992014Y-83693536D01*
X138093029Y-83659864D01*
X138160373Y-83659864D01*
X138261388Y-83693536D01*
X138396075Y-83828223D01*
X138429747Y-83929238D01*
X138429747Y-83996582D01*
X138396075Y-84097597D01*
X138362404Y-84131269D01*
X138261389Y-84164940D01*
X138194045Y-84164940D01*
X138093030Y-84131269D01*
X137958342Y-83996581D01*
X137857327Y-83962909D01*
X137789984Y-83962909D01*
X137688968Y-83996582D01*
X137554281Y-84131269D01*
X137520609Y-84232284D01*
X137520609Y-84299627D01*
X137554281Y-84400642D01*
X137688969Y-84535330D01*
X137789984Y-84569002D01*
X137857327Y-84569002D01*
X137958342Y-84535330D01*
X138093029Y-84400643D01*
X138126702Y-84299627D01*
X138126702Y-84232284D01*
X138093030Y-84131269D01*
X138732793Y-84299627D02*
X138800136Y-84299627D01*
X138901151Y-84333299D01*
X139069511Y-84501658D01*
X139103182Y-84602673D01*
X139103182Y-84670017D01*
X139069511Y-84771032D01*
X139002167Y-84838375D01*
X138867480Y-84905719D01*
X138059358Y-84905719D01*
X138497091Y-85343452D01*
X139574587Y-85478139D02*
X139103182Y-85949544D01*
X139675601Y-85040406D02*
X139002166Y-85377124D01*
X139439899Y-85814857D01*
X144117381Y-93441905D02*
X144926905Y-93441905D01*
X145022143Y-93394286D01*
X145069762Y-93346667D01*
X145117381Y-93251429D01*
X145117381Y-93060952D01*
X145069762Y-92965714D01*
X145022143Y-92918095D01*
X144926905Y-92870476D01*
X144117381Y-92870476D01*
X144545952Y-92251429D02*
X144498333Y-92346667D01*
X144450714Y-92394286D01*
X144355476Y-92441905D01*
X144307857Y-92441905D01*
X144212619Y-92394286D01*
X144165000Y-92346667D01*
X144117381Y-92251429D01*
X144117381Y-92060952D01*
X144165000Y-91965714D01*
X144212619Y-91918095D01*
X144307857Y-91870476D01*
X144355476Y-91870476D01*
X144450714Y-91918095D01*
X144498333Y-91965714D01*
X144545952Y-92060952D01*
X144545952Y-92251429D01*
X144593571Y-92346667D01*
X144641190Y-92394286D01*
X144736429Y-92441905D01*
X144926905Y-92441905D01*
X145022143Y-92394286D01*
X145069762Y-92346667D01*
X145117381Y-92251429D01*
X145117381Y-92060952D01*
X145069762Y-91965714D01*
X145022143Y-91918095D01*
X144926905Y-91870476D01*
X144736429Y-91870476D01*
X144641190Y-91918095D01*
X144593571Y-91965714D01*
X144545952Y-92060952D01*
X151772143Y-94775238D02*
X151819762Y-94822857D01*
X151867381Y-94965714D01*
X151867381Y-95060952D01*
X151819762Y-95203810D01*
X151724524Y-95299048D01*
X151629286Y-95346667D01*
X151438810Y-95394286D01*
X151295952Y-95394286D01*
X151105476Y-95346667D01*
X151010238Y-95299048D01*
X150915000Y-95203810D01*
X150867381Y-95060952D01*
X150867381Y-94965714D01*
X150915000Y-94822857D01*
X150962619Y-94775238D01*
X151867381Y-94346667D02*
X150867381Y-94346667D01*
X150867381Y-93965714D01*
X150915000Y-93870476D01*
X150962619Y-93822857D01*
X151057857Y-93775238D01*
X151200714Y-93775238D01*
X151295952Y-93822857D01*
X151343571Y-93870476D01*
X151391190Y-93965714D01*
X151391190Y-94346667D01*
X150962619Y-93394286D02*
X150915000Y-93346667D01*
X150867381Y-93251429D01*
X150867381Y-93013333D01*
X150915000Y-92918095D01*
X150962619Y-92870476D01*
X151057857Y-92822857D01*
X151153095Y-92822857D01*
X151295952Y-92870476D01*
X151867381Y-93441905D01*
X151867381Y-92822857D01*
X151867381Y-91870476D02*
X151867381Y-92441905D01*
X151867381Y-92156191D02*
X150867381Y-92156191D01*
X151010238Y-92251429D01*
X151105476Y-92346667D01*
X151153095Y-92441905D01*
X150867381Y-91251429D02*
X150867381Y-91156190D01*
X150915000Y-91060952D01*
X150962619Y-91013333D01*
X151057857Y-90965714D01*
X151248333Y-90918095D01*
X151486429Y-90918095D01*
X151676905Y-90965714D01*
X151772143Y-91013333D01*
X151819762Y-91060952D01*
X151867381Y-91156190D01*
X151867381Y-91251429D01*
X151819762Y-91346667D01*
X151772143Y-91394286D01*
X151676905Y-91441905D01*
X151486429Y-91489524D01*
X151248333Y-91489524D01*
X151057857Y-91441905D01*
X150962619Y-91394286D01*
X150915000Y-91346667D01*
X150867381Y-91251429D01*
X151200714Y-90060952D02*
X151867381Y-90060952D01*
X150819762Y-90299048D02*
X151534048Y-90537143D01*
X151534048Y-89918095D01*
X160646667Y-71728571D02*
X160313333Y-71728571D01*
X160313333Y-72252381D02*
X160313333Y-71252381D01*
X160789524Y-71252381D01*
X161503810Y-71728571D02*
X161646667Y-71776190D01*
X161694286Y-71823810D01*
X161741905Y-71919048D01*
X161741905Y-72061905D01*
X161694286Y-72157143D01*
X161646667Y-72204762D01*
X161551429Y-72252381D01*
X161170476Y-72252381D01*
X161170476Y-71252381D01*
X161503810Y-71252381D01*
X161599048Y-71300000D01*
X161646667Y-71347619D01*
X161694286Y-71442857D01*
X161694286Y-71538095D01*
X161646667Y-71633333D01*
X161599048Y-71680952D01*
X161503810Y-71728571D01*
X161170476Y-71728571D01*
X162694286Y-72252381D02*
X162122857Y-72252381D01*
X162408571Y-72252381D02*
X162408571Y-71252381D01*
X162313333Y-71395238D01*
X162218095Y-71490476D01*
X162122857Y-71538095D01*
X168117143Y-65267143D02*
X168069524Y-65314762D01*
X167926667Y-65362381D01*
X167831429Y-65362381D01*
X167688571Y-65314762D01*
X167593333Y-65219524D01*
X167545714Y-65124286D01*
X167498095Y-64933810D01*
X167498095Y-64790952D01*
X167545714Y-64600476D01*
X167593333Y-64505238D01*
X167688571Y-64410000D01*
X167831429Y-64362381D01*
X167926667Y-64362381D01*
X168069524Y-64410000D01*
X168117143Y-64457619D01*
X169069524Y-65362381D02*
X168498095Y-65362381D01*
X168783809Y-65362381D02*
X168783809Y-64362381D01*
X168688571Y-64505238D01*
X168593333Y-64600476D01*
X168498095Y-64648095D01*
X169640952Y-64790952D02*
X169545714Y-64743333D01*
X169498095Y-64695714D01*
X169450476Y-64600476D01*
X169450476Y-64552857D01*
X169498095Y-64457619D01*
X169545714Y-64410000D01*
X169640952Y-64362381D01*
X169831429Y-64362381D01*
X169926667Y-64410000D01*
X169974286Y-64457619D01*
X170021905Y-64552857D01*
X170021905Y-64600476D01*
X169974286Y-64695714D01*
X169926667Y-64743333D01*
X169831429Y-64790952D01*
X169640952Y-64790952D01*
X169545714Y-64838571D01*
X169498095Y-64886190D01*
X169450476Y-64981429D01*
X169450476Y-65171905D01*
X169498095Y-65267143D01*
X169545714Y-65314762D01*
X169640952Y-65362381D01*
X169831429Y-65362381D01*
X169926667Y-65314762D01*
X169974286Y-65267143D01*
X170021905Y-65171905D01*
X170021905Y-64981429D01*
X169974286Y-64886190D01*
X169926667Y-64838571D01*
X169831429Y-64790952D01*
X118261905Y-99404381D02*
X118261905Y-98404381D01*
X118642858Y-98404381D01*
X118738096Y-98452000D01*
X118785715Y-98499619D01*
X118833334Y-98594857D01*
X118833334Y-98737714D01*
X118785715Y-98832952D01*
X118738096Y-98880571D01*
X118642858Y-98928190D01*
X118261905Y-98928190D01*
X119738096Y-98404381D02*
X119261905Y-98404381D01*
X119214286Y-98880571D01*
X119261905Y-98832952D01*
X119357143Y-98785333D01*
X119595239Y-98785333D01*
X119690477Y-98832952D01*
X119738096Y-98880571D01*
X119785715Y-98975810D01*
X119785715Y-99213905D01*
X119738096Y-99309143D01*
X119690477Y-99356762D01*
X119595239Y-99404381D01*
X119357143Y-99404381D01*
X119261905Y-99356762D01*
X119214286Y-99309143D01*
X176261905Y-99404381D02*
X176261905Y-98404381D01*
X176642858Y-98404381D01*
X176738096Y-98452000D01*
X176785715Y-98499619D01*
X176833334Y-98594857D01*
X176833334Y-98737714D01*
X176785715Y-98832952D01*
X176738096Y-98880571D01*
X176642858Y-98928190D01*
X176261905Y-98928190D01*
X177690477Y-98404381D02*
X177500000Y-98404381D01*
X177404762Y-98452000D01*
X177357143Y-98499619D01*
X177261905Y-98642476D01*
X177214286Y-98832952D01*
X177214286Y-99213905D01*
X177261905Y-99309143D01*
X177309524Y-99356762D01*
X177404762Y-99404381D01*
X177595239Y-99404381D01*
X177690477Y-99356762D01*
X177738096Y-99309143D01*
X177785715Y-99213905D01*
X177785715Y-98975810D01*
X177738096Y-98880571D01*
X177690477Y-98832952D01*
X177595239Y-98785333D01*
X177404762Y-98785333D01*
X177309524Y-98832952D01*
X177261905Y-98880571D01*
X177214286Y-98975810D01*
X118261905Y-61404381D02*
X118261905Y-60404381D01*
X118642858Y-60404381D01*
X118738096Y-60452000D01*
X118785715Y-60499619D01*
X118833334Y-60594857D01*
X118833334Y-60737714D01*
X118785715Y-60832952D01*
X118738096Y-60880571D01*
X118642858Y-60928190D01*
X118261905Y-60928190D01*
X119166667Y-60404381D02*
X119833334Y-60404381D01*
X119404762Y-61404381D01*
X176261905Y-61404381D02*
X176261905Y-60404381D01*
X176642858Y-60404381D01*
X176738096Y-60452000D01*
X176785715Y-60499619D01*
X176833334Y-60594857D01*
X176833334Y-60737714D01*
X176785715Y-60832952D01*
X176738096Y-60880571D01*
X176642858Y-60928190D01*
X176261905Y-60928190D01*
X177404762Y-60832952D02*
X177309524Y-60785333D01*
X177261905Y-60737714D01*
X177214286Y-60642476D01*
X177214286Y-60594857D01*
X177261905Y-60499619D01*
X177309524Y-60452000D01*
X177404762Y-60404381D01*
X177595239Y-60404381D01*
X177690477Y-60452000D01*
X177738096Y-60499619D01*
X177785715Y-60594857D01*
X177785715Y-60642476D01*
X177738096Y-60737714D01*
X177690477Y-60785333D01*
X177595239Y-60832952D01*
X177404762Y-60832952D01*
X177309524Y-60880571D01*
X177261905Y-60928190D01*
X177214286Y-61023429D01*
X177214286Y-61213905D01*
X177261905Y-61309143D01*
X177309524Y-61356762D01*
X177404762Y-61404381D01*
X177595239Y-61404381D01*
X177690477Y-61356762D01*
X177738096Y-61309143D01*
X177785715Y-61213905D01*
X177785715Y-61023429D01*
X177738096Y-60928190D01*
X177690477Y-60880571D01*
X177595239Y-60832952D01*
M02*
