G04 #@! TF.FileFunction,Paste,Top*
%FSLAX46Y46*%
G04 Gerber Fmt 4.6, Leading zero omitted, Abs format (unit mm)*
G04 Created by KiCad (PCBNEW 4.0.2+dfsg1-stable) date Mon 01 Oct 2018 11:39:29 PM EDT*
%MOMM*%
G01*
G04 APERTURE LIST*
%ADD10C,0.100000*%
%ADD11R,0.635000X1.778000*%
%ADD12O,2.000000X0.750000*%
%ADD13O,0.750000X2.000000*%
%ADD14R,4.000000X4.000000*%
%ADD15R,1.198880X1.198880*%
%ADD16R,0.900000X0.500000*%
%ADD17R,0.500000X0.900000*%
%ADD18R,0.700000X1.300000*%
%ADD19R,0.800100X0.800100*%
%ADD20R,0.750000X0.800000*%
%ADD21R,0.800000X0.750000*%
%ADD22R,1.300000X0.700000*%
%ADD23R,0.400000X1.650000*%
%ADD24R,1.425000X2.500000*%
%ADD25R,1.000000X0.400000*%
%ADD26R,1.060000X0.650000*%
%ADD27R,0.850000X0.300000*%
%ADD28O,0.850000X0.300000*%
%ADD29O,0.300000X0.850000*%
%ADD30R,0.300000X0.850000*%
%ADD31R,0.780000X0.780000*%
%ADD32R,0.650000X1.060000*%
%ADD33C,0.300000*%
G04 APERTURE END LIST*
D10*
D11*
X160955000Y-86059000D03*
X162225000Y-86059000D03*
X163495000Y-86059000D03*
X164765000Y-86059000D03*
X166035000Y-86059000D03*
X167305000Y-86059000D03*
X168575000Y-86059000D03*
X169845000Y-86059000D03*
X169845000Y-76661000D03*
X168575000Y-76661000D03*
X167305000Y-76661000D03*
X166035000Y-76661000D03*
X164765000Y-76661000D03*
X163495000Y-76661000D03*
X162225000Y-76661000D03*
X160955000Y-76661000D03*
D12*
X139060000Y-61730000D03*
X139060000Y-63000000D03*
X139060000Y-64270000D03*
X139060000Y-65540000D03*
X139060000Y-66810000D03*
X139060000Y-68080000D03*
X139060000Y-69350000D03*
X139060000Y-70620000D03*
X139060000Y-71890000D03*
X139060000Y-73160000D03*
X139060000Y-75700000D03*
X139060000Y-76970000D03*
X139060000Y-78240000D03*
X139060000Y-74430000D03*
D13*
X142485000Y-80010000D03*
X143755000Y-80010000D03*
X145025000Y-80010000D03*
X146295000Y-80010000D03*
X147565000Y-80010000D03*
X148835000Y-80010000D03*
X150105000Y-80010000D03*
X151375000Y-80010000D03*
X152645000Y-80010000D03*
X153915000Y-80010000D03*
D12*
X157340000Y-78240000D03*
X157340000Y-76970000D03*
X157340000Y-75700000D03*
X157340000Y-74430000D03*
X157340000Y-73160000D03*
X157340000Y-71890000D03*
X157340000Y-70620000D03*
X157340000Y-69350000D03*
X157340000Y-68080000D03*
X157340000Y-66810000D03*
X157340000Y-65540000D03*
X157340000Y-64270000D03*
X157340000Y-63000000D03*
X157340000Y-61730000D03*
D14*
X148200000Y-69250000D03*
D15*
X177800000Y-90350980D03*
X177800000Y-92449020D03*
X175600000Y-90350980D03*
X175600000Y-92449020D03*
D16*
X177800000Y-94850000D03*
X177800000Y-96350000D03*
X175600000Y-94850000D03*
X175600000Y-96350000D03*
X171000000Y-72850000D03*
X171000000Y-74350000D03*
X167800000Y-64250000D03*
X167800000Y-65750000D03*
X153400000Y-84550000D03*
X153400000Y-83050000D03*
D17*
X148850000Y-88250000D03*
X147350000Y-88250000D03*
X147350000Y-86500000D03*
X148850000Y-86500000D03*
X174750000Y-84200000D03*
X173250000Y-84200000D03*
X174750000Y-82600000D03*
X173250000Y-82600000D03*
D10*
G36*
X128401091Y-68155305D02*
X127764695Y-67518909D01*
X128118249Y-67165355D01*
X128754645Y-67801751D01*
X128401091Y-68155305D01*
X128401091Y-68155305D01*
G37*
G36*
X129461751Y-67094645D02*
X128825355Y-66458249D01*
X129178909Y-66104695D01*
X129815305Y-66741091D01*
X129461751Y-67094645D01*
X129461751Y-67094645D01*
G37*
G36*
X126254695Y-88311091D02*
X126891091Y-87674695D01*
X127244645Y-88028249D01*
X126608249Y-88664645D01*
X126254695Y-88311091D01*
X126254695Y-88311091D01*
G37*
G36*
X127315355Y-89371751D02*
X127951751Y-88735355D01*
X128305305Y-89088909D01*
X127668909Y-89725305D01*
X127315355Y-89371751D01*
X127315355Y-89371751D01*
G37*
G36*
X125517398Y-78401281D02*
X126401281Y-77517398D01*
X127108388Y-78224505D01*
X126224505Y-79108388D01*
X125517398Y-78401281D01*
X125517398Y-78401281D01*
G37*
G36*
X126931612Y-79815495D02*
X127815495Y-78931612D01*
X128522602Y-79638719D01*
X127638719Y-80522602D01*
X126931612Y-79815495D01*
X126931612Y-79815495D01*
G37*
D16*
X136330000Y-89820000D03*
X136330000Y-91320000D03*
D10*
G36*
X134245305Y-92678909D02*
X133608909Y-93315305D01*
X133255355Y-92961751D01*
X133891751Y-92325355D01*
X134245305Y-92678909D01*
X134245305Y-92678909D01*
G37*
G36*
X133184645Y-91618249D02*
X132548249Y-92254645D01*
X132194695Y-91901091D01*
X132831091Y-91264695D01*
X133184645Y-91618249D01*
X133184645Y-91618249D01*
G37*
D17*
X139250000Y-94000000D03*
X140750000Y-94000000D03*
D18*
X137070000Y-79290000D03*
X135170000Y-79290000D03*
D19*
X145400000Y-84750760D03*
X147300000Y-84750760D03*
X146350000Y-82751780D03*
X148900000Y-84750760D03*
X150800000Y-84750760D03*
X149850000Y-82751780D03*
D20*
X171000000Y-71150000D03*
X171000000Y-69650000D03*
X172800000Y-71150000D03*
X172800000Y-69650000D03*
D21*
X176050000Y-84200000D03*
X177550000Y-84200000D03*
X176050000Y-82600000D03*
X177550000Y-82600000D03*
D20*
X152750000Y-93730000D03*
X152750000Y-92230000D03*
D10*
G36*
X133948008Y-75521662D02*
X134478338Y-76051992D01*
X133912652Y-76617678D01*
X133382322Y-76087348D01*
X133948008Y-75521662D01*
X133948008Y-75521662D01*
G37*
G36*
X132887348Y-76582322D02*
X133417678Y-77112652D01*
X132851992Y-77678338D01*
X132321662Y-77148008D01*
X132887348Y-76582322D01*
X132887348Y-76582322D01*
G37*
D20*
X153440000Y-97310000D03*
X153440000Y-95810000D03*
D21*
X141440000Y-90600000D03*
X142940000Y-90600000D03*
X151500000Y-88600000D03*
X153000000Y-88600000D03*
D10*
G36*
X123121662Y-70051992D02*
X123651992Y-69521662D01*
X124217678Y-70087348D01*
X123687348Y-70617678D01*
X123121662Y-70051992D01*
X123121662Y-70051992D01*
G37*
G36*
X124182322Y-71112652D02*
X124712652Y-70582322D01*
X125278338Y-71148008D01*
X124748008Y-71678338D01*
X124182322Y-71112652D01*
X124182322Y-71112652D01*
G37*
G36*
X124321662Y-68851992D02*
X124851992Y-68321662D01*
X125417678Y-68887348D01*
X124887348Y-69417678D01*
X124321662Y-68851992D01*
X124321662Y-68851992D01*
G37*
G36*
X125382322Y-69912652D02*
X125912652Y-69382322D01*
X126478338Y-69948008D01*
X125948008Y-70478338D01*
X125382322Y-69912652D01*
X125382322Y-69912652D01*
G37*
G36*
X125521662Y-67651992D02*
X126051992Y-67121662D01*
X126617678Y-67687348D01*
X126087348Y-68217678D01*
X125521662Y-67651992D01*
X125521662Y-67651992D01*
G37*
G36*
X126582322Y-68712652D02*
X127112652Y-68182322D01*
X127678338Y-68748008D01*
X127148008Y-69278338D01*
X126582322Y-68712652D01*
X126582322Y-68712652D01*
G37*
G36*
X132131992Y-81388338D02*
X131601662Y-80858008D01*
X132167348Y-80292322D01*
X132697678Y-80822652D01*
X132131992Y-81388338D01*
X132131992Y-81388338D01*
G37*
G36*
X133192652Y-80327678D02*
X132662322Y-79797348D01*
X133228008Y-79231662D01*
X133758338Y-79761992D01*
X133192652Y-80327678D01*
X133192652Y-80327678D01*
G37*
G36*
X124078338Y-72348008D02*
X123548008Y-72878338D01*
X122982322Y-72312652D01*
X123512652Y-71782322D01*
X124078338Y-72348008D01*
X124078338Y-72348008D01*
G37*
G36*
X123017678Y-71287348D02*
X122487348Y-71817678D01*
X121921662Y-71251992D01*
X122451992Y-70721662D01*
X123017678Y-71287348D01*
X123017678Y-71287348D01*
G37*
G36*
X130381992Y-79868338D02*
X129851662Y-79338008D01*
X130417348Y-78772322D01*
X130947678Y-79302652D01*
X130381992Y-79868338D01*
X130381992Y-79868338D01*
G37*
G36*
X131442652Y-78807678D02*
X130912322Y-78277348D01*
X131478008Y-77711662D01*
X132008338Y-78241992D01*
X131442652Y-78807678D01*
X131442652Y-78807678D01*
G37*
G36*
X125662602Y-76788719D02*
X124778719Y-77672602D01*
X124071612Y-76965495D01*
X124955495Y-76081612D01*
X125662602Y-76788719D01*
X125662602Y-76788719D01*
G37*
G36*
X124248388Y-75374505D02*
X123364505Y-76258388D01*
X122657398Y-75551281D01*
X123541281Y-74667398D01*
X124248388Y-75374505D01*
X124248388Y-75374505D01*
G37*
G36*
X124621142Y-82540381D02*
X125540381Y-81621142D01*
X126035356Y-82116117D01*
X125116117Y-83035356D01*
X124621142Y-82540381D01*
X124621142Y-82540381D01*
G37*
G36*
X125964644Y-83883883D02*
X126883883Y-82964644D01*
X127378858Y-83459619D01*
X126459619Y-84378858D01*
X125964644Y-83883883D01*
X125964644Y-83883883D01*
G37*
D22*
X122000000Y-83050000D03*
X122000000Y-84950000D03*
D23*
X146380000Y-99710000D03*
X147030000Y-99710000D03*
X147679100Y-99710000D03*
X148330000Y-99710000D03*
X148980000Y-99710000D03*
D24*
X146717500Y-102835000D03*
X148642500Y-102835000D03*
D10*
G36*
X125745305Y-91918909D02*
X125108909Y-92555305D01*
X124755355Y-92201751D01*
X125391751Y-91565355D01*
X125745305Y-91918909D01*
X125745305Y-91918909D01*
G37*
G36*
X124684645Y-90858249D02*
X124048249Y-91494645D01*
X123694695Y-91141091D01*
X124331091Y-90504695D01*
X124684645Y-90858249D01*
X124684645Y-90858249D01*
G37*
D17*
X128250000Y-94000000D03*
X129750000Y-94000000D03*
D25*
X155670000Y-82600000D03*
X155670000Y-83400000D03*
X155670000Y-84200000D03*
X155670000Y-85000000D03*
X157530000Y-85000000D03*
X157530000Y-84200000D03*
X157530000Y-83400000D03*
X157530000Y-82600000D03*
D26*
X163500000Y-63850000D03*
X163500000Y-64800000D03*
X163500000Y-65750000D03*
X165700000Y-65750000D03*
X165700000Y-63850000D03*
D27*
X167950000Y-72850000D03*
X167950000Y-72350000D03*
X167950000Y-71850000D03*
X167950000Y-71350000D03*
X167950000Y-70850000D03*
D28*
X167950000Y-70350000D03*
D29*
X167250000Y-69650000D03*
D30*
X166750000Y-69650000D03*
X166250000Y-69650000D03*
X165750000Y-69650000D03*
X165250000Y-69650000D03*
D29*
X164750000Y-69650000D03*
D28*
X164050000Y-70350000D03*
D27*
X164050000Y-70850000D03*
X164050000Y-71350000D03*
X164050000Y-71850000D03*
X164050000Y-72350000D03*
D28*
X164050000Y-72850000D03*
D29*
X164750000Y-73550000D03*
D30*
X165250000Y-73550000D03*
X165750000Y-73550000D03*
X166250000Y-73550000D03*
X166750000Y-73550000D03*
D29*
X167250000Y-73550000D03*
D31*
X165350000Y-70950000D03*
X165350000Y-72250000D03*
X166650000Y-70950000D03*
X166650000Y-72250000D03*
D32*
X141210000Y-88910000D03*
X142160000Y-88910000D03*
X143110000Y-88910000D03*
X143110000Y-86710000D03*
X141210000Y-86710000D03*
D33*
X126412474Y-74666205D02*
X126801382Y-74277297D01*
X126766028Y-75019759D02*
X127154936Y-74630851D01*
X127119581Y-75373312D02*
X127508489Y-74984404D01*
X127473134Y-75726866D02*
X127862042Y-75337958D01*
X127826688Y-76080419D02*
X128215596Y-75691511D01*
X128180241Y-76433972D02*
X128569149Y-76045064D01*
X128533795Y-76787526D02*
X128922703Y-76398618D01*
X130266205Y-76787526D02*
X129877297Y-76398618D01*
X130619759Y-76433972D02*
X130230851Y-76045064D01*
X130973312Y-76080419D02*
X130584404Y-75691511D01*
X131326866Y-75726866D02*
X130937958Y-75337958D01*
X131680419Y-75373312D02*
X131291511Y-74984404D01*
X132033972Y-75019759D02*
X131645064Y-74630851D01*
X132387526Y-74666205D02*
X131998618Y-74277297D01*
X131998618Y-73322703D02*
X132387526Y-72933795D01*
X131645064Y-72969149D02*
X132033972Y-72580241D01*
X131291511Y-72615596D02*
X131680419Y-72226688D01*
X130937958Y-72262042D02*
X131326866Y-71873134D01*
X130584404Y-71908489D02*
X130973312Y-71519581D01*
X130230851Y-71554936D02*
X130619759Y-71166028D01*
X129877297Y-71201382D02*
X130266205Y-70812474D01*
X128922703Y-71201382D02*
X128533795Y-70812474D01*
X128569149Y-71554936D02*
X128180241Y-71166028D01*
X128215596Y-71908489D02*
X127826688Y-71519581D01*
X127862042Y-72262042D02*
X127473134Y-71873134D01*
X127508489Y-72615596D02*
X127119581Y-72226688D01*
X127154936Y-72969149D02*
X126766028Y-72580241D01*
X126801382Y-73322703D02*
X126412474Y-72933795D01*
D10*
G36*
X130584404Y-74510642D02*
X129873762Y-73800000D01*
X130584404Y-73089358D01*
X131295046Y-73800000D01*
X130584404Y-74510642D01*
X130584404Y-74510642D01*
G37*
G36*
X129400000Y-73326238D02*
X128689358Y-72615596D01*
X129400000Y-71904954D01*
X130110642Y-72615596D01*
X129400000Y-73326238D01*
X129400000Y-73326238D01*
G37*
G36*
X129400000Y-75695046D02*
X128689358Y-74984404D01*
X129400000Y-74273762D01*
X130110642Y-74984404D01*
X129400000Y-75695046D01*
X129400000Y-75695046D01*
G37*
G36*
X128215596Y-74510642D02*
X127504954Y-73800000D01*
X128215596Y-73089358D01*
X128926238Y-73800000D01*
X128215596Y-74510642D01*
X128215596Y-74510642D01*
G37*
G36*
X136180642Y-86594526D02*
X135721023Y-87054145D01*
X134971490Y-86304612D01*
X135431109Y-85844993D01*
X136180642Y-86594526D01*
X136180642Y-86594526D01*
G37*
G36*
X136852393Y-85922774D02*
X136392774Y-86382393D01*
X135643241Y-85632860D01*
X136102860Y-85173241D01*
X136852393Y-85922774D01*
X136852393Y-85922774D01*
G37*
G36*
X137524145Y-85251023D02*
X137064526Y-85710642D01*
X136314993Y-84961109D01*
X136774612Y-84501490D01*
X137524145Y-85251023D01*
X137524145Y-85251023D01*
G37*
G36*
X135968510Y-83695388D02*
X135508891Y-84155007D01*
X134759358Y-83405474D01*
X135218977Y-82945855D01*
X135968510Y-83695388D01*
X135968510Y-83695388D01*
G37*
G36*
X134625007Y-85038891D02*
X134165388Y-85498510D01*
X133415855Y-84748977D01*
X133875474Y-84289358D01*
X134625007Y-85038891D01*
X134625007Y-85038891D01*
G37*
D29*
X146790000Y-94630000D03*
D30*
X147290000Y-94630000D03*
X147790000Y-94630000D03*
X148290000Y-94630000D03*
X148790000Y-94630000D03*
D29*
X149290000Y-94630000D03*
D28*
X149990000Y-93930000D03*
D27*
X149990000Y-93430000D03*
X149990000Y-92930000D03*
X149990000Y-92430000D03*
X149990000Y-91930000D03*
D28*
X149990000Y-91430000D03*
D29*
X149290000Y-90730000D03*
D30*
X148790000Y-90730000D03*
X148290000Y-90730000D03*
X147790000Y-90730000D03*
X147290000Y-90730000D03*
D29*
X146790000Y-90730000D03*
D28*
X146090000Y-91430000D03*
D27*
X146090000Y-91930000D03*
X146090000Y-92430000D03*
X146090000Y-92930000D03*
X146090000Y-93430000D03*
D28*
X146090000Y-93930000D03*
D31*
X148690000Y-92030000D03*
X147390000Y-92030000D03*
X148690000Y-93330000D03*
X147390000Y-93330000D03*
D18*
X160530000Y-73900000D03*
X162430000Y-73900000D03*
D21*
X168010000Y-66810000D03*
X169510000Y-66810000D03*
M02*
