M48
INCH,TZ
T1C0.013
T2C0.026
T3C0.028
T4C0.035
T5C0.039
T6C0.051
T7C0.120
%
G90
G05
T1
X49524Y-28835
X49791Y-34248
X49870Y-29921
X49882Y-30311
X50479Y-29055
X50807Y-27528
X50945Y-28589
X50945Y-29521
X51138Y-30484
X51411Y-29055
X52646Y-28173
X52783Y-30969
X53067Y-30051
X53803Y-30181
X54008Y-34118
X54752Y-33311
X55240Y-35016
X55496Y-24815
X55555Y-33724
X55906Y-24409
X56039Y-29610
X56299Y-28189
X56303Y-34614
X56362Y-30701
X56406Y-29528
X56472Y-32693
X56677Y-35783
X56681Y-32417
X56701Y-28205
X57008Y-36665
X57087Y-30693
X57161Y-32913
X57433Y-30232
X57539Y-39736
X57764Y-29921
X57886Y-38705
X58028Y-36232
X58028Y-36744
X58268Y-25984
X58386Y-38110
X58398Y-30012
X58539Y-36744
X58705Y-37661
X58744Y-38346
X58972Y-33677
X59622Y-36736
X59772Y-37303
X59827Y-36209
X59921Y-32736
X60118Y-28870
X60512Y-28559
X60728Y-28272
X60862Y-34331
X60890Y-27984
X60976Y-31622
X61091Y-30642
X61283Y-30972
X62539Y-28343
X62634Y-28693
X62685Y-26748
X63083Y-24909
X63276Y-26661
X63291Y-29677
X63339Y-28469
X63846Y-30728
X63882Y-24953
X63913Y-28445
X64205Y-28035
X64331Y-26461
X64504Y-29098
X64618Y-26193
X64618Y-27406
X64693Y-24642
X65091Y-26811
X65098Y-27933
X65098Y-28445
X65161Y-29476
X65516Y-29504
X65610Y-27933
X65610Y-28445
X65618Y-25551
X65819Y-26602
X65953Y-26972
X66209Y-29547
X66343Y-30709
X66398Y-28886
X66492Y-25394
X66634Y-27091
X66732Y-27720
X66913Y-26547
X66984Y-27988
X67004Y-28720
X67303Y-24598
X67409Y-26264
X67409Y-30996
X69508Y-29083
X70126Y-32823
T4
X63526Y-36555
X64026Y-35555
X64526Y-36555
X65026Y-35555
X65526Y-36555
X66026Y-35555
X66526Y-36555
X67026Y-35555
T7
X46850Y-25197
X46850Y-40157
X69685Y-25197
X69685Y-40157
T2
X57187Y-39285G85X57187Y-39128
G05
X59096Y-39285G85X59096Y-39128
G05
T3
X57069Y-40486G85X57069Y-40289
G05
X59215Y-40486G85X59215Y-40289
G05
T5
X48524Y-38996G85X48524Y-38406
G05
X51476Y-38996G85X51476Y-38406
G05
X52854Y-38996G85X52854Y-38406
G05
X55807Y-38996G85X55807Y-38406
G05
T6
X50236Y-40157G85X49764Y-40157
G05
X54567Y-40157G85X54094Y-40157
G05
T0
M30
