G04 #@! TF.FileFunction,Copper,L1,Top,Signal*
%FSLAX46Y46*%
G04 Gerber Fmt 4.6, Leading zero omitted, Abs format (unit mm)*
G04 Created by KiCad (PCBNEW 4.0.2+dfsg1-stable) date Mon 01 Oct 2018 11:39:29 PM EDT*
%MOMM*%
G01*
G04 APERTURE LIST*
%ADD10C,0.100000*%
%ADD11R,0.635000X1.778000*%
%ADD12C,3.649980*%
%ADD13R,1.501140X1.501140*%
%ADD14C,1.501140*%
%ADD15O,3.000000X1.800000*%
%ADD16O,1.500000X3.000000*%
%ADD17O,2.000000X0.750000*%
%ADD18O,0.750000X2.000000*%
%ADD19R,4.000000X4.000000*%
%ADD20R,1.198880X1.198880*%
%ADD21R,0.900000X0.500000*%
%ADD22R,0.500000X0.900000*%
%ADD23R,0.700000X1.300000*%
%ADD24R,0.800100X0.800100*%
%ADD25R,0.750000X0.800000*%
%ADD26R,0.800000X0.750000*%
%ADD27R,1.300000X0.700000*%
%ADD28R,0.400000X1.650000*%
%ADD29O,1.100000X1.500000*%
%ADD30O,1.200000X1.700000*%
%ADD31R,1.425000X2.500000*%
%ADD32R,1.000000X0.400000*%
%ADD33R,1.060000X0.650000*%
%ADD34R,0.850000X0.300000*%
%ADD35O,0.850000X0.300000*%
%ADD36O,0.300000X0.850000*%
%ADD37R,0.300000X0.850000*%
%ADD38R,1.300000X1.300000*%
%ADD39R,0.650000X1.060000*%
%ADD40C,0.300000*%
%ADD41C,4.064000*%
%ADD42C,0.600000*%
%ADD43C,0.241300*%
%ADD44C,0.254000*%
G04 APERTURE END LIST*
D10*
D11*
X160955000Y-86059000D03*
X162225000Y-86059000D03*
X163495000Y-86059000D03*
X164765000Y-86059000D03*
X166035000Y-86059000D03*
X167305000Y-86059000D03*
X168575000Y-86059000D03*
X169845000Y-86059000D03*
X169845000Y-76661000D03*
X168575000Y-76661000D03*
X167305000Y-76661000D03*
X166035000Y-76661000D03*
X164765000Y-76661000D03*
X163495000Y-76661000D03*
X162225000Y-76661000D03*
X160955000Y-76661000D03*
D12*
X171738520Y-99200000D03*
X159869100Y-99200000D03*
D13*
X161355000Y-92850000D03*
D14*
X162625000Y-90310000D03*
X163895000Y-92850000D03*
X165165000Y-90310000D03*
X166435000Y-92850000D03*
X167705000Y-90310000D03*
X168975000Y-92850000D03*
X170245000Y-90310000D03*
D15*
X138000000Y-102000000D03*
D16*
X141750000Y-98300000D03*
X134250000Y-98300000D03*
D17*
X139060000Y-61730000D03*
X139060000Y-63000000D03*
X139060000Y-64270000D03*
X139060000Y-65540000D03*
X139060000Y-66810000D03*
X139060000Y-68080000D03*
X139060000Y-69350000D03*
X139060000Y-70620000D03*
X139060000Y-71890000D03*
X139060000Y-73160000D03*
X139060000Y-75700000D03*
X139060000Y-76970000D03*
X139060000Y-78240000D03*
X139060000Y-74430000D03*
D18*
X142485000Y-80010000D03*
X143755000Y-80010000D03*
X145025000Y-80010000D03*
X146295000Y-80010000D03*
X147565000Y-80010000D03*
X148835000Y-80010000D03*
X150105000Y-80010000D03*
X151375000Y-80010000D03*
X152645000Y-80010000D03*
X153915000Y-80010000D03*
D17*
X157340000Y-78240000D03*
X157340000Y-76970000D03*
X157340000Y-75700000D03*
X157340000Y-74430000D03*
X157340000Y-73160000D03*
X157340000Y-71890000D03*
X157340000Y-70620000D03*
X157340000Y-69350000D03*
X157340000Y-68080000D03*
X157340000Y-66810000D03*
X157340000Y-65540000D03*
X157340000Y-64270000D03*
X157340000Y-63000000D03*
X157340000Y-61730000D03*
D19*
X148200000Y-69250000D03*
D20*
X177800000Y-90350980D03*
X177800000Y-92449020D03*
X175600000Y-90350980D03*
X175600000Y-92449020D03*
D21*
X177800000Y-94850000D03*
X177800000Y-96350000D03*
X175600000Y-94850000D03*
X175600000Y-96350000D03*
X171000000Y-72850000D03*
X171000000Y-74350000D03*
X167800000Y-64250000D03*
X167800000Y-65750000D03*
X153400000Y-84550000D03*
X153400000Y-83050000D03*
D22*
X148850000Y-88250000D03*
X147350000Y-88250000D03*
X147350000Y-86500000D03*
X148850000Y-86500000D03*
X174750000Y-84200000D03*
X173250000Y-84200000D03*
X174750000Y-82600000D03*
X173250000Y-82600000D03*
D10*
G36*
X128401091Y-68155305D02*
X127764695Y-67518909D01*
X128118249Y-67165355D01*
X128754645Y-67801751D01*
X128401091Y-68155305D01*
X128401091Y-68155305D01*
G37*
G36*
X129461751Y-67094645D02*
X128825355Y-66458249D01*
X129178909Y-66104695D01*
X129815305Y-66741091D01*
X129461751Y-67094645D01*
X129461751Y-67094645D01*
G37*
G36*
X126254695Y-88311091D02*
X126891091Y-87674695D01*
X127244645Y-88028249D01*
X126608249Y-88664645D01*
X126254695Y-88311091D01*
X126254695Y-88311091D01*
G37*
G36*
X127315355Y-89371751D02*
X127951751Y-88735355D01*
X128305305Y-89088909D01*
X127668909Y-89725305D01*
X127315355Y-89371751D01*
X127315355Y-89371751D01*
G37*
G36*
X125517398Y-78401281D02*
X126401281Y-77517398D01*
X127108388Y-78224505D01*
X126224505Y-79108388D01*
X125517398Y-78401281D01*
X125517398Y-78401281D01*
G37*
G36*
X126931612Y-79815495D02*
X127815495Y-78931612D01*
X128522602Y-79638719D01*
X127638719Y-80522602D01*
X126931612Y-79815495D01*
X126931612Y-79815495D01*
G37*
D21*
X136330000Y-89820000D03*
X136330000Y-91320000D03*
D10*
G36*
X134245305Y-92678909D02*
X133608909Y-93315305D01*
X133255355Y-92961751D01*
X133891751Y-92325355D01*
X134245305Y-92678909D01*
X134245305Y-92678909D01*
G37*
G36*
X133184645Y-91618249D02*
X132548249Y-92254645D01*
X132194695Y-91901091D01*
X132831091Y-91264695D01*
X133184645Y-91618249D01*
X133184645Y-91618249D01*
G37*
D22*
X139250000Y-94000000D03*
X140750000Y-94000000D03*
D23*
X137070000Y-79290000D03*
X135170000Y-79290000D03*
D24*
X145400000Y-84750760D03*
X147300000Y-84750760D03*
X146350000Y-82751780D03*
X148900000Y-84750760D03*
X150800000Y-84750760D03*
X149850000Y-82751780D03*
D25*
X171000000Y-71150000D03*
X171000000Y-69650000D03*
X172800000Y-71150000D03*
X172800000Y-69650000D03*
D26*
X176050000Y-84200000D03*
X177550000Y-84200000D03*
X176050000Y-82600000D03*
X177550000Y-82600000D03*
D25*
X152750000Y-93730000D03*
X152750000Y-92230000D03*
D10*
G36*
X133948008Y-75521662D02*
X134478338Y-76051992D01*
X133912652Y-76617678D01*
X133382322Y-76087348D01*
X133948008Y-75521662D01*
X133948008Y-75521662D01*
G37*
G36*
X132887348Y-76582322D02*
X133417678Y-77112652D01*
X132851992Y-77678338D01*
X132321662Y-77148008D01*
X132887348Y-76582322D01*
X132887348Y-76582322D01*
G37*
D25*
X153440000Y-97310000D03*
X153440000Y-95810000D03*
D26*
X141440000Y-90600000D03*
X142940000Y-90600000D03*
X151500000Y-88600000D03*
X153000000Y-88600000D03*
D10*
G36*
X123121662Y-70051992D02*
X123651992Y-69521662D01*
X124217678Y-70087348D01*
X123687348Y-70617678D01*
X123121662Y-70051992D01*
X123121662Y-70051992D01*
G37*
G36*
X124182322Y-71112652D02*
X124712652Y-70582322D01*
X125278338Y-71148008D01*
X124748008Y-71678338D01*
X124182322Y-71112652D01*
X124182322Y-71112652D01*
G37*
G36*
X124321662Y-68851992D02*
X124851992Y-68321662D01*
X125417678Y-68887348D01*
X124887348Y-69417678D01*
X124321662Y-68851992D01*
X124321662Y-68851992D01*
G37*
G36*
X125382322Y-69912652D02*
X125912652Y-69382322D01*
X126478338Y-69948008D01*
X125948008Y-70478338D01*
X125382322Y-69912652D01*
X125382322Y-69912652D01*
G37*
G36*
X125521662Y-67651992D02*
X126051992Y-67121662D01*
X126617678Y-67687348D01*
X126087348Y-68217678D01*
X125521662Y-67651992D01*
X125521662Y-67651992D01*
G37*
G36*
X126582322Y-68712652D02*
X127112652Y-68182322D01*
X127678338Y-68748008D01*
X127148008Y-69278338D01*
X126582322Y-68712652D01*
X126582322Y-68712652D01*
G37*
G36*
X132131992Y-81388338D02*
X131601662Y-80858008D01*
X132167348Y-80292322D01*
X132697678Y-80822652D01*
X132131992Y-81388338D01*
X132131992Y-81388338D01*
G37*
G36*
X133192652Y-80327678D02*
X132662322Y-79797348D01*
X133228008Y-79231662D01*
X133758338Y-79761992D01*
X133192652Y-80327678D01*
X133192652Y-80327678D01*
G37*
G36*
X124078338Y-72348008D02*
X123548008Y-72878338D01*
X122982322Y-72312652D01*
X123512652Y-71782322D01*
X124078338Y-72348008D01*
X124078338Y-72348008D01*
G37*
G36*
X123017678Y-71287348D02*
X122487348Y-71817678D01*
X121921662Y-71251992D01*
X122451992Y-70721662D01*
X123017678Y-71287348D01*
X123017678Y-71287348D01*
G37*
G36*
X130381992Y-79868338D02*
X129851662Y-79338008D01*
X130417348Y-78772322D01*
X130947678Y-79302652D01*
X130381992Y-79868338D01*
X130381992Y-79868338D01*
G37*
G36*
X131442652Y-78807678D02*
X130912322Y-78277348D01*
X131478008Y-77711662D01*
X132008338Y-78241992D01*
X131442652Y-78807678D01*
X131442652Y-78807678D01*
G37*
G36*
X125662602Y-76788719D02*
X124778719Y-77672602D01*
X124071612Y-76965495D01*
X124955495Y-76081612D01*
X125662602Y-76788719D01*
X125662602Y-76788719D01*
G37*
G36*
X124248388Y-75374505D02*
X123364505Y-76258388D01*
X122657398Y-75551281D01*
X123541281Y-74667398D01*
X124248388Y-75374505D01*
X124248388Y-75374505D01*
G37*
G36*
X124621142Y-82540381D02*
X125540381Y-81621142D01*
X126035356Y-82116117D01*
X125116117Y-83035356D01*
X124621142Y-82540381D01*
X124621142Y-82540381D01*
G37*
G36*
X125964644Y-83883883D02*
X126883883Y-82964644D01*
X127378858Y-83459619D01*
X126459619Y-84378858D01*
X125964644Y-83883883D01*
X125964644Y-83883883D01*
G37*
D27*
X122000000Y-83050000D03*
X122000000Y-84950000D03*
D28*
X146380000Y-99710000D03*
X147030000Y-99710000D03*
X147679100Y-99710000D03*
X148330000Y-99710000D03*
X148980000Y-99710000D03*
D29*
X145255000Y-99585000D03*
X150105000Y-99585000D03*
D30*
X144955000Y-102585000D03*
X150405000Y-102585000D03*
D31*
X146717500Y-102835000D03*
X148642500Y-102835000D03*
D15*
X127000000Y-102000000D03*
D16*
X130750000Y-98300000D03*
X123250000Y-98300000D03*
D10*
G36*
X125745305Y-91918909D02*
X125108909Y-92555305D01*
X124755355Y-92201751D01*
X125391751Y-91565355D01*
X125745305Y-91918909D01*
X125745305Y-91918909D01*
G37*
G36*
X124684645Y-90858249D02*
X124048249Y-91494645D01*
X123694695Y-91141091D01*
X124331091Y-90504695D01*
X124684645Y-90858249D01*
X124684645Y-90858249D01*
G37*
D22*
X128250000Y-94000000D03*
X129750000Y-94000000D03*
D32*
X155670000Y-82600000D03*
X155670000Y-83400000D03*
X155670000Y-84200000D03*
X155670000Y-85000000D03*
X157530000Y-85000000D03*
X157530000Y-84200000D03*
X157530000Y-83400000D03*
X157530000Y-82600000D03*
D33*
X163500000Y-63850000D03*
X163500000Y-64800000D03*
X163500000Y-65750000D03*
X165700000Y-65750000D03*
X165700000Y-63850000D03*
D34*
X167950000Y-72850000D03*
X167950000Y-72350000D03*
X167950000Y-71850000D03*
X167950000Y-71350000D03*
X167950000Y-70850000D03*
D35*
X167950000Y-70350000D03*
D36*
X167250000Y-69650000D03*
D37*
X166750000Y-69650000D03*
X166250000Y-69650000D03*
X165750000Y-69650000D03*
X165250000Y-69650000D03*
D36*
X164750000Y-69650000D03*
D35*
X164050000Y-70350000D03*
D34*
X164050000Y-70850000D03*
X164050000Y-71350000D03*
X164050000Y-71850000D03*
X164050000Y-72350000D03*
D35*
X164050000Y-72850000D03*
D36*
X164750000Y-73550000D03*
D37*
X165250000Y-73550000D03*
X165750000Y-73550000D03*
X166250000Y-73550000D03*
X166750000Y-73550000D03*
D36*
X167250000Y-73550000D03*
D38*
X165350000Y-70950000D03*
X165350000Y-72250000D03*
X166650000Y-70950000D03*
X166650000Y-72250000D03*
D39*
X141210000Y-88910000D03*
X142160000Y-88910000D03*
X143110000Y-88910000D03*
X143110000Y-86710000D03*
X141210000Y-86710000D03*
D40*
X126412474Y-74666205D02*
X126801382Y-74277297D01*
X126766028Y-75019759D02*
X127154936Y-74630851D01*
X127119581Y-75373312D02*
X127508489Y-74984404D01*
X127473134Y-75726866D02*
X127862042Y-75337958D01*
X127826688Y-76080419D02*
X128215596Y-75691511D01*
X128180241Y-76433972D02*
X128569149Y-76045064D01*
X128533795Y-76787526D02*
X128922703Y-76398618D01*
X130266205Y-76787526D02*
X129877297Y-76398618D01*
X130619759Y-76433972D02*
X130230851Y-76045064D01*
X130973312Y-76080419D02*
X130584404Y-75691511D01*
X131326866Y-75726866D02*
X130937958Y-75337958D01*
X131680419Y-75373312D02*
X131291511Y-74984404D01*
X132033972Y-75019759D02*
X131645064Y-74630851D01*
X132387526Y-74666205D02*
X131998618Y-74277297D01*
X131998618Y-73322703D02*
X132387526Y-72933795D01*
X131645064Y-72969149D02*
X132033972Y-72580241D01*
X131291511Y-72615596D02*
X131680419Y-72226688D01*
X130937958Y-72262042D02*
X131326866Y-71873134D01*
X130584404Y-71908489D02*
X130973312Y-71519581D01*
X130230851Y-71554936D02*
X130619759Y-71166028D01*
X129877297Y-71201382D02*
X130266205Y-70812474D01*
X128922703Y-71201382D02*
X128533795Y-70812474D01*
X128569149Y-71554936D02*
X128180241Y-71166028D01*
X128215596Y-71908489D02*
X127826688Y-71519581D01*
X127862042Y-72262042D02*
X127473134Y-71873134D01*
X127508489Y-72615596D02*
X127119581Y-72226688D01*
X127154936Y-72969149D02*
X126766028Y-72580241D01*
X126801382Y-73322703D02*
X126412474Y-72933795D01*
D10*
G36*
X130584404Y-74984404D02*
X129400000Y-73800000D01*
X130584404Y-72615596D01*
X131768808Y-73800000D01*
X130584404Y-74984404D01*
X130584404Y-74984404D01*
G37*
G36*
X129400000Y-73800000D02*
X128215596Y-72615596D01*
X129400000Y-71431192D01*
X130584404Y-72615596D01*
X129400000Y-73800000D01*
X129400000Y-73800000D01*
G37*
G36*
X129400000Y-76168808D02*
X128215596Y-74984404D01*
X129400000Y-73800000D01*
X130584404Y-74984404D01*
X129400000Y-76168808D01*
X129400000Y-76168808D01*
G37*
G36*
X128215596Y-74984404D02*
X127031192Y-73800000D01*
X128215596Y-72615596D01*
X129400000Y-73800000D01*
X128215596Y-74984404D01*
X128215596Y-74984404D01*
G37*
G36*
X136180642Y-86594526D02*
X135721023Y-87054145D01*
X134971490Y-86304612D01*
X135431109Y-85844993D01*
X136180642Y-86594526D01*
X136180642Y-86594526D01*
G37*
G36*
X136852393Y-85922774D02*
X136392774Y-86382393D01*
X135643241Y-85632860D01*
X136102860Y-85173241D01*
X136852393Y-85922774D01*
X136852393Y-85922774D01*
G37*
G36*
X137524145Y-85251023D02*
X137064526Y-85710642D01*
X136314993Y-84961109D01*
X136774612Y-84501490D01*
X137524145Y-85251023D01*
X137524145Y-85251023D01*
G37*
G36*
X135968510Y-83695388D02*
X135508891Y-84155007D01*
X134759358Y-83405474D01*
X135218977Y-82945855D01*
X135968510Y-83695388D01*
X135968510Y-83695388D01*
G37*
G36*
X134625007Y-85038891D02*
X134165388Y-85498510D01*
X133415855Y-84748977D01*
X133875474Y-84289358D01*
X134625007Y-85038891D01*
X134625007Y-85038891D01*
G37*
D36*
X146790000Y-94630000D03*
D37*
X147290000Y-94630000D03*
X147790000Y-94630000D03*
X148290000Y-94630000D03*
X148790000Y-94630000D03*
D36*
X149290000Y-94630000D03*
D35*
X149990000Y-93930000D03*
D34*
X149990000Y-93430000D03*
X149990000Y-92930000D03*
X149990000Y-92430000D03*
X149990000Y-91930000D03*
D35*
X149990000Y-91430000D03*
D36*
X149290000Y-90730000D03*
D37*
X148790000Y-90730000D03*
X148290000Y-90730000D03*
X147790000Y-90730000D03*
X147290000Y-90730000D03*
D36*
X146790000Y-90730000D03*
D35*
X146090000Y-91430000D03*
D34*
X146090000Y-91930000D03*
X146090000Y-92430000D03*
X146090000Y-92930000D03*
X146090000Y-93430000D03*
D35*
X146090000Y-93930000D03*
D38*
X148690000Y-92030000D03*
X147390000Y-92030000D03*
X148690000Y-93330000D03*
X147390000Y-93330000D03*
D23*
X160530000Y-73900000D03*
X162430000Y-73900000D03*
D26*
X168010000Y-66810000D03*
X169510000Y-66810000D03*
D41*
X119000000Y-102000000D03*
X177000000Y-102000000D03*
X119000000Y-64000000D03*
X177000000Y-64000000D03*
D42*
X142000000Y-62000000D03*
X176550000Y-73870000D03*
X154590000Y-87200000D03*
X171220000Y-78730000D03*
X145190000Y-83600000D03*
X143160000Y-77980000D03*
X178120000Y-83370000D03*
X170950000Y-62480000D03*
X160230000Y-63270000D03*
X148000000Y-66000000D03*
X166670000Y-64900000D03*
X164130000Y-66530000D03*
X169960000Y-67430000D03*
X165350000Y-70950000D03*
X165350000Y-72250000D03*
X166650000Y-70950000D03*
X170140000Y-71090000D03*
X166650000Y-72250000D03*
X170190000Y-72950000D03*
X147390000Y-93330000D03*
X147390000Y-92030000D03*
X143960000Y-90890000D03*
X148690000Y-93330000D03*
X151960000Y-91970000D03*
X143270000Y-75000000D03*
X144020000Y-71640000D03*
X130584404Y-73800000D03*
X129400000Y-72615596D03*
X128215596Y-73800000D03*
X129400000Y-74984404D03*
X126700000Y-76990000D03*
X126470000Y-86990000D03*
X137180000Y-86660000D03*
X139070000Y-84610000D03*
X129050000Y-69920000D03*
X134790000Y-76330000D03*
X140960000Y-63030000D03*
X164320000Y-62590000D03*
X171220000Y-66710000D03*
X168650000Y-73370000D03*
X163840000Y-73910000D03*
X149110000Y-95660000D03*
X141110000Y-85660000D03*
X151440000Y-93310000D03*
X151820000Y-94750000D03*
X149210000Y-97400000D03*
X146150000Y-100930000D03*
X143010000Y-87920000D03*
X140310000Y-88940000D03*
X129890000Y-77430000D03*
X125790000Y-73240000D03*
X147030000Y-98310000D03*
X148300000Y-96800000D03*
X166410000Y-74940000D03*
X168170000Y-75050000D03*
X165510000Y-74870000D03*
X160760000Y-75380000D03*
X155170000Y-77830000D03*
X162260000Y-63380000D03*
X169250000Y-68810000D03*
X169500000Y-70410000D03*
X167520000Y-68510000D03*
X154250000Y-71810000D03*
X167180000Y-67570000D03*
X154660000Y-71080000D03*
X163400000Y-67210000D03*
X152700000Y-73330000D03*
X165330000Y-68100000D03*
X153700000Y-72540000D03*
X164130000Y-69610000D03*
X158850000Y-71990000D03*
X155660000Y-78670000D03*
X163080000Y-71210000D03*
X152200000Y-83150000D03*
X154880000Y-80320000D03*
X159220000Y-67940000D03*
X160720000Y-67720000D03*
X160880000Y-72310000D03*
X162340000Y-72250000D03*
X146720000Y-76000000D03*
X136660000Y-76660000D03*
X168890000Y-64500000D03*
X159090000Y-72880000D03*
X134070000Y-78660000D03*
X126670000Y-76000000D03*
X144800000Y-93130000D03*
X149790000Y-85540000D03*
X142340000Y-75210000D03*
X143000000Y-71600000D03*
X148330000Y-76230000D03*
X133720000Y-71560000D03*
X145880000Y-76790000D03*
X143440000Y-83040000D03*
X145000000Y-77960000D03*
X143970000Y-82340000D03*
X168510000Y-78000000D03*
X162170000Y-78050000D03*
D43*
X155575000Y-99060000D02*
X155575000Y-98425000D01*
X155575000Y-98425000D02*
X156210000Y-97790000D01*
X156210000Y-97790000D02*
X157480000Y-97790000D01*
X157480000Y-97790000D02*
X156845000Y-97155000D01*
X156845000Y-97155000D02*
X156845000Y-98425000D01*
X156845000Y-98425000D02*
X156210000Y-99060000D01*
X156210000Y-99060000D02*
X155575000Y-99060000D01*
X148980000Y-99710000D02*
X150105000Y-99585000D01*
X139060000Y-61730000D02*
X142000000Y-62000000D01*
X176550000Y-73870000D02*
X176550000Y-73850000D01*
X153400000Y-84550000D02*
X154590000Y-87200000D01*
X171220000Y-78730000D02*
X171130000Y-78760000D01*
X153400000Y-84550000D02*
X151710000Y-84040000D01*
X151710000Y-84040000D02*
X151120000Y-83660000D01*
X151120000Y-83660000D02*
X146470000Y-83800000D01*
X146470000Y-83800000D02*
X145190000Y-83600000D01*
X142485000Y-80010000D02*
X143160000Y-77980000D01*
X177550000Y-83320000D02*
X178120000Y-83370000D01*
X160702370Y-63303042D02*
X160230000Y-63270000D01*
X148200000Y-69250000D02*
X148000000Y-66000000D01*
X157340000Y-61730000D02*
X159620000Y-62240000D01*
X159620000Y-62240000D02*
X160702370Y-63303042D01*
X160702370Y-63303042D02*
X161300000Y-63890000D01*
X161300000Y-63890000D02*
X163500000Y-64800000D01*
X169510000Y-66810000D02*
X169380000Y-65560000D01*
X169380000Y-65560000D02*
X168660000Y-65190000D01*
X168660000Y-65190000D02*
X167910000Y-64990000D01*
X167910000Y-64990000D02*
X166670000Y-64900000D01*
X164130000Y-66530000D02*
X163500000Y-65750000D01*
X169510000Y-66810000D02*
X169960000Y-67430000D01*
X165350000Y-70950000D02*
X165350000Y-72250000D01*
X177550000Y-82600000D02*
X176150000Y-77160000D01*
X176150000Y-77160000D02*
X173980000Y-72140000D01*
X173980000Y-72140000D02*
X172800000Y-71150000D01*
X170140000Y-71090000D02*
X171000000Y-71150000D01*
X170190000Y-72950000D02*
X171000000Y-72850000D01*
X171000000Y-71150000D02*
X172800000Y-71150000D01*
X177800000Y-96350000D02*
X175600000Y-96350000D01*
X177550000Y-84200000D02*
X179020000Y-86750000D01*
X179020000Y-86750000D02*
X179240000Y-91580000D01*
X179240000Y-91580000D02*
X179080000Y-96560000D01*
X179080000Y-96560000D02*
X177800000Y-96350000D01*
X177550000Y-82600000D02*
X177550000Y-83320000D01*
X177550000Y-83320000D02*
X177550000Y-84200000D01*
X153000000Y-88600000D02*
X153400000Y-84550000D01*
X147390000Y-93330000D02*
X147390000Y-92030000D01*
X143960000Y-90890000D02*
X142940000Y-90600000D01*
X148690000Y-93330000D02*
X147390000Y-93330000D01*
X151960000Y-91970000D02*
X152750000Y-92230000D01*
X153440000Y-95810000D02*
X154960000Y-94670000D01*
X154960000Y-94670000D02*
X154240000Y-92550000D01*
X154240000Y-92550000D02*
X152750000Y-92230000D01*
X147290000Y-94630000D02*
X147310000Y-94000000D01*
X147310000Y-94000000D02*
X147390000Y-93330000D01*
X147390000Y-93330000D02*
X147390000Y-92030000D01*
X148690000Y-93330000D02*
X147390000Y-93330000D01*
X148690000Y-92030000D02*
X148690000Y-93330000D01*
X153000000Y-88600000D02*
X152750000Y-92230000D01*
X142940000Y-90600000D02*
X142220000Y-89640000D01*
X142220000Y-89640000D02*
X142160000Y-88910000D01*
X142160000Y-88910000D02*
X141790000Y-87950000D01*
X141790000Y-87950000D02*
X140700000Y-87650000D01*
X140700000Y-87650000D02*
X139980000Y-86700000D01*
X139980000Y-86700000D02*
X139070000Y-84610000D01*
X142485000Y-80010000D02*
X143270000Y-75000000D01*
X144020000Y-71640000D02*
X148200000Y-69250000D01*
X157340000Y-61730000D02*
X151790000Y-61960000D01*
X151790000Y-61960000D02*
X148200000Y-69250000D01*
X163500000Y-65750000D02*
X163500000Y-64800000D01*
X126760632Y-76674057D02*
X126700000Y-76990000D01*
X126749670Y-88169670D02*
X126470000Y-86990000D01*
X136330000Y-89820000D02*
X137180000Y-86660000D01*
X136247817Y-85777817D02*
X137180000Y-86660000D01*
X139070000Y-84610000D02*
X138956339Y-84844829D01*
X138956339Y-84844829D02*
X136390000Y-82580000D01*
X136390000Y-82580000D02*
X133210330Y-79779670D01*
X128215596Y-73800000D02*
X126370000Y-73790000D01*
X126370000Y-73790000D02*
X124840000Y-74040000D01*
X124840000Y-74040000D02*
X123220000Y-73390000D01*
X123220000Y-73390000D02*
X122240000Y-72340000D01*
X122240000Y-72340000D02*
X122469670Y-71269670D01*
X130584404Y-73800000D02*
X128215596Y-73800000D01*
X129400000Y-72615596D02*
X130584404Y-73800000D01*
X129400000Y-74984404D02*
X129400000Y-72615596D01*
X131132412Y-75532412D02*
X130660000Y-75120000D01*
X130660000Y-75120000D02*
X130584404Y-73800000D01*
X130778858Y-75885965D02*
X130330000Y-75390000D01*
X130330000Y-75390000D02*
X129400000Y-74984404D01*
X130778858Y-75885965D02*
X132309612Y-77579119D01*
X132869670Y-77130330D02*
X131132412Y-75532412D01*
X131460330Y-78259670D02*
X132309612Y-77579119D01*
X132309612Y-77579119D02*
X132869670Y-77130330D01*
X133210330Y-79779670D02*
X131460330Y-78259670D01*
X126749670Y-88169670D02*
X123910000Y-84170000D01*
X123910000Y-84170000D02*
X123830000Y-80650000D01*
X123830000Y-80650000D02*
X124850000Y-78290000D01*
X124850000Y-78290000D02*
X126530000Y-76710000D01*
X126530000Y-76710000D02*
X126760632Y-76674057D01*
X126760632Y-76674057D02*
X127300000Y-76590000D01*
X127300000Y-76590000D02*
X128021142Y-75885965D01*
X128021142Y-75885965D02*
X128460000Y-75450000D01*
X128460000Y-75450000D02*
X129400000Y-74984404D01*
X127314035Y-75178858D02*
X127800000Y-74700000D01*
X127800000Y-74700000D02*
X128215596Y-73800000D01*
X123669670Y-70069670D02*
X122469670Y-71269670D01*
X124869670Y-68869670D02*
X123669670Y-70069670D01*
X126069670Y-67669670D02*
X124869670Y-68869670D01*
X139060000Y-61730000D02*
X143050000Y-61770000D01*
X143050000Y-61770000D02*
X148200000Y-69250000D01*
D44*
X150105000Y-99585000D02*
X150105000Y-102285000D01*
X150105000Y-102285000D02*
X150405000Y-102585000D01*
X150405000Y-102585000D02*
X148892500Y-102585000D01*
X148892500Y-102585000D02*
X148642500Y-102835000D01*
X146717500Y-102835000D02*
X148642500Y-102835000D01*
X144955000Y-102585000D02*
X146467500Y-102585000D01*
X146467500Y-102585000D02*
X146717500Y-102835000D01*
X145255000Y-99585000D02*
X145255000Y-102285000D01*
X145255000Y-102285000D02*
X144955000Y-102585000D01*
D43*
X171000000Y-69650000D02*
X172800000Y-69650000D01*
X167950000Y-70350000D02*
X169060000Y-69680000D01*
X169060000Y-69680000D02*
X170180000Y-69590000D01*
X170180000Y-69590000D02*
X171000000Y-69650000D01*
X176050000Y-84200000D02*
X174750000Y-84200000D01*
X174750000Y-82600000D02*
X176050000Y-82600000D01*
X163840000Y-73910000D02*
X162430000Y-73900000D01*
X128905510Y-69687455D02*
X129050000Y-69920000D01*
X134790000Y-76330000D02*
X133930330Y-76069670D01*
X139060000Y-63000000D02*
X140960000Y-63030000D01*
X164320000Y-62590000D02*
X165700000Y-63850000D01*
X168010000Y-66810000D02*
X166290000Y-66900000D01*
X171220000Y-66710000D02*
X169310000Y-63150000D01*
X169310000Y-63150000D02*
X167440000Y-62970000D01*
X167440000Y-62970000D02*
X165700000Y-63850000D01*
X167950000Y-72850000D02*
X168650000Y-73370000D01*
X163840000Y-73910000D02*
X164750000Y-73550000D01*
X149050000Y-94630000D02*
X149110000Y-95660000D01*
X141110000Y-85660000D02*
X140963172Y-86058490D01*
X140963172Y-86058490D02*
X140963172Y-86058489D01*
X149990000Y-93930000D02*
X151100000Y-94080000D01*
X151100000Y-94080000D02*
X152750000Y-93730000D01*
X150010000Y-94640000D02*
X149990000Y-93930000D01*
X149290000Y-94630000D02*
X150010000Y-94640000D01*
X148790000Y-94630000D02*
X149050000Y-94630000D01*
X149050000Y-94630000D02*
X149290000Y-94630000D01*
X134900000Y-76810000D02*
X136150000Y-78290000D01*
X136150000Y-78290000D02*
X136200000Y-80590000D01*
X136200000Y-80590000D02*
X140350000Y-84440000D01*
X140350000Y-84440000D02*
X140963172Y-86058489D01*
X140963172Y-86058489D02*
X141210000Y-86710000D01*
X166290000Y-66900000D02*
X164880000Y-66520000D01*
X164880000Y-66520000D02*
X164490000Y-65680000D01*
X164490000Y-65680000D02*
X165700000Y-63850000D01*
X166250000Y-69650000D02*
X166240000Y-68880000D01*
X166240000Y-68880000D02*
X166380000Y-68460000D01*
X166380000Y-68460000D02*
X166440000Y-68060000D01*
X166440000Y-68060000D02*
X166450000Y-67680000D01*
X166450000Y-67680000D02*
X166290000Y-66900000D01*
X133930330Y-76069670D02*
X134900000Y-76810000D01*
X131485965Y-75178858D02*
X132300000Y-76000000D01*
X132300000Y-76000000D02*
X133930330Y-76069670D01*
X129320330Y-66599670D02*
X139060000Y-63000000D01*
X128728249Y-71006928D02*
X128905510Y-69687455D01*
X128905510Y-69687455D02*
X129320330Y-66599670D01*
X128374695Y-71360482D02*
X128728249Y-71006928D01*
X149990000Y-93430000D02*
X151150000Y-93470000D01*
X151150000Y-93470000D02*
X151440000Y-93310000D01*
X151820000Y-94750000D02*
X149210000Y-97400000D01*
X153440000Y-97310000D02*
X149210000Y-97400000D01*
X146150000Y-100930000D02*
X146380000Y-99710000D01*
X141440000Y-90600000D02*
X142460000Y-93680000D01*
X142460000Y-93680000D02*
X144170000Y-95430000D01*
X144170000Y-95430000D02*
X146150000Y-98390000D01*
X146150000Y-98390000D02*
X146430000Y-98800000D01*
X146430000Y-98800000D02*
X146380000Y-99710000D01*
X143110000Y-88910000D02*
X143010000Y-87920000D01*
X140310000Y-88940000D02*
X141210000Y-88910000D01*
X141210000Y-88910000D02*
X141440000Y-90600000D01*
X136919569Y-85106066D02*
X141210000Y-88910000D01*
X135576066Y-86449569D02*
X135070000Y-85530000D01*
X135070000Y-85530000D02*
X135530000Y-85000000D01*
X135530000Y-85000000D02*
X136330000Y-84650000D01*
X136330000Y-84650000D02*
X136919569Y-85106066D01*
X151500000Y-88600000D02*
X148460000Y-89690000D01*
X148460000Y-89690000D02*
X147740000Y-89890000D01*
X147740000Y-89890000D02*
X147790000Y-90730000D01*
X134020431Y-84893934D02*
X132149670Y-80840330D01*
X130399670Y-79320330D02*
X129890000Y-77430000D01*
X132149670Y-80840330D02*
X130399670Y-79320330D01*
X130071751Y-76593072D02*
X129890000Y-77430000D01*
X125790000Y-73240000D02*
X126606928Y-73128249D01*
X130071751Y-76593072D02*
X130425305Y-76239518D01*
X126606928Y-73128249D02*
X123530330Y-72330330D01*
X132689670Y-91759670D02*
X130170000Y-87150000D01*
X130170000Y-87150000D02*
X126671751Y-83671751D01*
X160955000Y-86059000D02*
X161355000Y-92850000D01*
X163495000Y-86059000D02*
X162625000Y-90310000D01*
D44*
X162625000Y-90310000D02*
X162625000Y-90425000D01*
D43*
X167305000Y-86059000D02*
X166980000Y-88300000D01*
X166980000Y-88300000D02*
X166420000Y-90180000D01*
X166420000Y-90180000D02*
X166150000Y-91120000D01*
X166150000Y-91120000D02*
X164970000Y-91940000D01*
X164970000Y-91940000D02*
X163895000Y-92850000D01*
D44*
X163895000Y-92850000D02*
X163850000Y-92850000D01*
D43*
X167705000Y-90310000D02*
X169610000Y-87330000D01*
X169610000Y-87330000D02*
X169845000Y-86059000D01*
D44*
X148290000Y-94630000D02*
X148290000Y-96790000D01*
X147030000Y-98310000D02*
X147030000Y-99710000D01*
X148290000Y-96790000D02*
X148300000Y-96800000D01*
X147790000Y-94630000D02*
X147790000Y-96420000D01*
X147679100Y-96530900D02*
X147679100Y-99710000D01*
X147790000Y-96420000D02*
X147679100Y-96530900D01*
D43*
X138000000Y-102000000D02*
X139250000Y-94000000D01*
X133750330Y-92820330D02*
X139250000Y-94000000D01*
X158220000Y-85070000D02*
X157530000Y-85000000D01*
X158980000Y-84690000D02*
X158220000Y-85070000D01*
X169220000Y-78850000D02*
X158980000Y-84690000D01*
X169770000Y-78090000D02*
X169220000Y-78850000D01*
X169845000Y-76661000D02*
X169770000Y-78090000D01*
X166250000Y-73550000D02*
X166280000Y-74280000D01*
X166280000Y-74280000D02*
X166410000Y-74940000D01*
X168170000Y-75050000D02*
X169150000Y-75350000D01*
X169150000Y-75350000D02*
X169590000Y-75740000D01*
X169590000Y-75740000D02*
X169845000Y-76661000D01*
X157530000Y-84200000D02*
X158980000Y-83930000D01*
X158980000Y-83930000D02*
X166630000Y-78850000D01*
X166630000Y-78850000D02*
X167120000Y-78240000D01*
X167120000Y-78240000D02*
X167270000Y-77650000D01*
X167270000Y-77650000D02*
X167305000Y-76661000D01*
X167305000Y-76661000D02*
X167280000Y-75210000D01*
X167280000Y-75210000D02*
X166840000Y-74160000D01*
X166840000Y-74160000D02*
X166780000Y-74020000D01*
X166780000Y-74020000D02*
X166750000Y-73550000D01*
X157530000Y-83400000D02*
X158710000Y-83270000D01*
X158710000Y-83270000D02*
X160630000Y-82080000D01*
X160630000Y-82080000D02*
X163130000Y-78620000D01*
X163130000Y-78620000D02*
X163340000Y-77720000D01*
X163340000Y-77720000D02*
X163495000Y-76661000D01*
X165250000Y-73550000D02*
X165250000Y-74220000D01*
X165250000Y-74220000D02*
X164740000Y-74830000D01*
X164740000Y-74830000D02*
X163690000Y-75750000D01*
X163690000Y-75750000D02*
X163495000Y-76661000D01*
X157530000Y-82600000D02*
X158160000Y-82510000D01*
X158160000Y-82510000D02*
X158770000Y-81660000D01*
X158770000Y-81660000D02*
X160800000Y-77800000D01*
X160800000Y-77800000D02*
X160955000Y-76661000D01*
X165750000Y-73550000D02*
X165740000Y-74550000D01*
X165740000Y-74550000D02*
X165510000Y-74870000D01*
X160760000Y-75380000D02*
X160955000Y-76661000D01*
X173250000Y-84200000D02*
X171890000Y-84250000D01*
X171890000Y-84250000D02*
X168940000Y-84800000D01*
X168940000Y-84800000D02*
X168600000Y-85070000D01*
X168600000Y-85070000D02*
X168575000Y-86059000D01*
X162225000Y-86059000D02*
X162640000Y-84520000D01*
X162640000Y-84520000D02*
X164240000Y-83620000D01*
X164240000Y-83620000D02*
X172140000Y-82570000D01*
X172140000Y-82570000D02*
X173250000Y-82600000D01*
X155170000Y-77830000D02*
X157340000Y-78240000D01*
X163500000Y-63850000D02*
X162260000Y-63380000D01*
X149850000Y-82751780D02*
X152550000Y-81890000D01*
X152550000Y-81890000D02*
X155510000Y-81310000D01*
X155510000Y-81310000D02*
X157340000Y-78240000D01*
X169032137Y-67839519D02*
X168810000Y-67550000D01*
X168810000Y-67550000D02*
X168750000Y-67230000D01*
X168750000Y-67230000D02*
X168760000Y-65890000D01*
X168760000Y-65890000D02*
X168510000Y-65680000D01*
X168510000Y-65680000D02*
X167800000Y-65750000D01*
X169030000Y-67830000D02*
X169032137Y-67839519D01*
X169032137Y-67839519D02*
X169250000Y-68810000D01*
X169500000Y-70410000D02*
X168920000Y-70840000D01*
X168920000Y-70840000D02*
X167950000Y-70850000D01*
X167800000Y-65750000D02*
X165700000Y-65750000D01*
X167950000Y-72350000D02*
X168870000Y-72400000D01*
X168870000Y-72400000D02*
X169500000Y-73050000D01*
X169500000Y-73050000D02*
X169750000Y-73620000D01*
X169750000Y-73620000D02*
X170200000Y-73720000D01*
X170200000Y-73720000D02*
X171220000Y-73610000D01*
X171220000Y-73610000D02*
X172180000Y-73880000D01*
X172180000Y-73880000D02*
X172970000Y-74970000D01*
X175600000Y-90350980D02*
X174100000Y-85220000D01*
X174100000Y-85220000D02*
X173860000Y-81200000D01*
X173860000Y-81200000D02*
X172970000Y-74970000D01*
X167950000Y-71850000D02*
X170560000Y-72080000D01*
X170560000Y-72080000D02*
X172470000Y-72400000D01*
X172470000Y-72400000D02*
X174100000Y-74250000D01*
X177800000Y-90350980D02*
X176810000Y-84800000D01*
X176810000Y-84800000D02*
X176810000Y-81980000D01*
X176810000Y-81980000D02*
X174100000Y-74250000D01*
X167250000Y-69650000D02*
X167520000Y-68510000D01*
X139060000Y-74430000D02*
X142080000Y-73580000D01*
X142080000Y-73580000D02*
X144210000Y-72970000D01*
X144210000Y-72970000D02*
X154250000Y-71810000D01*
X167180000Y-67570000D02*
X166870000Y-68350000D01*
X166870000Y-68350000D02*
X166780000Y-68960000D01*
X166780000Y-68960000D02*
X166750000Y-69650000D01*
X139060000Y-73160000D02*
X141770000Y-73130000D01*
X141770000Y-73130000D02*
X144150000Y-72400000D01*
X144150000Y-72400000D02*
X151950000Y-71510000D01*
X151950000Y-71510000D02*
X154660000Y-71080000D01*
X163910000Y-67280000D02*
X163400000Y-67210000D01*
X152700000Y-73330000D02*
X145100000Y-74100000D01*
X145100000Y-74100000D02*
X144050000Y-75800000D01*
X144050000Y-75800000D02*
X143755000Y-80010000D01*
X165750000Y-69650000D02*
X165710000Y-68720000D01*
X165710000Y-68720000D02*
X165950000Y-68320000D01*
X165950000Y-68320000D02*
X166000000Y-67810000D01*
X166000000Y-67810000D02*
X165780000Y-67430000D01*
X165780000Y-67430000D02*
X163910000Y-67280000D01*
X165330000Y-68100000D02*
X165240000Y-68900000D01*
X165240000Y-68900000D02*
X165250000Y-69650000D01*
X139060000Y-75700000D02*
X144370000Y-73480000D01*
X144370000Y-73480000D02*
X153700000Y-72540000D01*
X164750000Y-69650000D02*
X164130000Y-69610000D01*
X158850000Y-71990000D02*
X157340000Y-71890000D01*
X164050000Y-70350000D02*
X162650000Y-69550000D01*
X162650000Y-69550000D02*
X160310000Y-64910000D01*
X160310000Y-64910000D02*
X158670000Y-63110000D01*
X158670000Y-63110000D02*
X157340000Y-63000000D01*
X155660000Y-78670000D02*
X154880000Y-80320000D01*
X164050000Y-71350000D02*
X163370000Y-71350000D01*
X163370000Y-71350000D02*
X163080000Y-71210000D01*
X153400000Y-83050000D02*
X152200000Y-83150000D01*
X154880000Y-80320000D02*
X153915000Y-80010000D01*
X157340000Y-68080000D02*
X159220000Y-67940000D01*
X160720000Y-67720000D02*
X161210000Y-69930000D01*
X161210000Y-69930000D02*
X162280000Y-71480000D01*
X162280000Y-71480000D02*
X162920000Y-71880000D01*
X162920000Y-71880000D02*
X164050000Y-71850000D01*
X162340000Y-72250000D02*
X162880000Y-72330000D01*
X162880000Y-72330000D02*
X164050000Y-72350000D01*
X157340000Y-70620000D02*
X159569427Y-70731464D01*
X159569427Y-70731464D02*
X160357443Y-71221627D01*
X160357443Y-71221627D02*
X160880000Y-72310000D01*
X162800000Y-72788525D02*
X162350000Y-72910000D01*
X162350000Y-72910000D02*
X161950000Y-72830000D01*
X161950000Y-72830000D02*
X161690000Y-72440000D01*
X161690000Y-72440000D02*
X161660000Y-72010000D01*
X161660000Y-72010000D02*
X161540000Y-71400000D01*
X161540000Y-71400000D02*
X160710000Y-70310000D01*
X160710000Y-70310000D02*
X160040000Y-68450000D01*
X160040000Y-68450000D02*
X159820952Y-65153842D01*
X157340000Y-64270000D02*
X158390000Y-64180000D01*
X158390000Y-64180000D02*
X159820952Y-65153842D01*
X159820952Y-65153842D02*
X159830000Y-65160000D01*
X162830000Y-72790000D02*
X162800000Y-72788525D01*
X162800000Y-72788525D02*
X164050000Y-72850000D01*
X171000000Y-74350000D02*
X168860000Y-74310000D01*
X168860000Y-74310000D02*
X167250000Y-73550000D01*
X130071751Y-71006928D02*
X130950000Y-70160000D01*
X130950000Y-70160000D02*
X137540000Y-65920000D01*
X137540000Y-65920000D02*
X139060000Y-65540000D01*
X130425305Y-71360482D02*
X131230000Y-70550000D01*
X131230000Y-70550000D02*
X137400000Y-67140000D01*
X137400000Y-67140000D02*
X139060000Y-66810000D01*
X130778858Y-71714035D02*
X131500000Y-70980000D01*
X131500000Y-70980000D02*
X137550000Y-68310000D01*
X137550000Y-68310000D02*
X139060000Y-68080000D01*
X131132412Y-72067588D02*
X131750000Y-71490000D01*
X131750000Y-71490000D02*
X137630000Y-69470000D01*
X137630000Y-69470000D02*
X139060000Y-69350000D01*
X139060000Y-70620000D02*
X135110000Y-72070000D01*
X131839518Y-72774695D02*
X132200000Y-72420000D01*
X132200000Y-72420000D02*
X135110000Y-72070000D01*
X132193072Y-73128249D02*
X135340000Y-72740000D01*
X135340000Y-72740000D02*
X137550000Y-72040000D01*
X137550000Y-72040000D02*
X139060000Y-71890000D01*
X132193072Y-74471751D02*
X133670000Y-73960000D01*
X133670000Y-73960000D02*
X136310000Y-75130000D01*
X136310000Y-75130000D02*
X138030000Y-76920000D01*
X138030000Y-76920000D02*
X139060000Y-76970000D01*
X137070000Y-79290000D02*
X139060000Y-78240000D01*
X155130000Y-74130000D02*
X153390000Y-75000000D01*
X153390000Y-75000000D02*
X148240000Y-75510000D01*
X148240000Y-75510000D02*
X146720000Y-76000000D01*
X131839518Y-74825305D02*
X132340000Y-75350000D01*
X132340000Y-75350000D02*
X133530000Y-75030000D01*
X133530000Y-75030000D02*
X134650000Y-75180000D01*
X134650000Y-75180000D02*
X136660000Y-76660000D01*
X155130000Y-74130000D02*
X156010000Y-73410000D01*
X156010000Y-73410000D02*
X157340000Y-73160000D01*
X168890000Y-64500000D02*
X167800000Y-64250000D01*
X157340000Y-74430000D02*
X158690000Y-74000000D01*
X158690000Y-74000000D02*
X159090000Y-72880000D01*
X135170000Y-79290000D02*
X134070000Y-78660000D01*
X126670000Y-76000000D02*
X127200000Y-76000000D01*
X127200000Y-76000000D02*
X127667588Y-75532412D01*
X147350000Y-86500000D02*
X148070000Y-87050000D01*
X148070000Y-87050000D02*
X147980000Y-89150000D01*
X147980000Y-89150000D02*
X146630000Y-89670000D01*
X146630000Y-89670000D02*
X145870000Y-90170000D01*
X145870000Y-90170000D02*
X146090000Y-91430000D01*
X147350000Y-86500000D02*
X147300000Y-84750760D01*
X146090000Y-93430000D02*
X145180000Y-93500000D01*
X145180000Y-93500000D02*
X144800000Y-93130000D01*
X149790000Y-85540000D02*
X150132211Y-85949095D01*
X148850000Y-88250000D02*
X150132211Y-85949095D01*
X150132211Y-85949095D02*
X150800000Y-84750760D01*
X177800000Y-94850000D02*
X177800000Y-92449020D01*
X175600000Y-92449020D02*
X175600000Y-94850000D01*
X145400000Y-84750760D02*
X147350000Y-88250000D01*
X141899548Y-75945609D02*
X142340000Y-75210000D01*
X143000000Y-71600000D02*
X141330000Y-64410000D01*
X141330000Y-64410000D02*
X139060000Y-64270000D01*
X146350000Y-82751780D02*
X144990000Y-81850000D01*
X144990000Y-81850000D02*
X144020000Y-81610000D01*
X144020000Y-81610000D02*
X142510000Y-81560000D01*
X142510000Y-81560000D02*
X141690000Y-80920000D01*
X141690000Y-80920000D02*
X141899548Y-75945609D01*
X141899548Y-75945609D02*
X141900000Y-75940000D01*
X141900000Y-75940000D02*
X141890000Y-75940000D01*
X148850000Y-86500000D02*
X148900000Y-84750760D01*
X126312893Y-78312893D02*
X125680000Y-80390000D01*
X125680000Y-80390000D02*
X125328249Y-82328249D01*
X126312893Y-78312893D02*
X128374695Y-76239518D01*
X136330000Y-91320000D02*
X133540000Y-89900000D01*
X133540000Y-89900000D02*
X128670000Y-83780000D01*
X128670000Y-83780000D02*
X127727107Y-79727107D01*
X140750000Y-94000000D02*
X138480000Y-91790000D01*
X138480000Y-91790000D02*
X136330000Y-91320000D01*
X141750000Y-98300000D02*
X140750000Y-94000000D01*
X128728249Y-76593072D02*
X127727107Y-79727107D01*
X124730330Y-71130330D02*
X126520000Y-72370000D01*
X126520000Y-72370000D02*
X126960482Y-72774695D01*
X127314035Y-72421142D02*
X126600000Y-71720000D01*
X126600000Y-71720000D02*
X125930330Y-69930330D01*
X127667588Y-72067588D02*
X126970000Y-71430000D01*
X126970000Y-71430000D02*
X127130330Y-68730330D01*
X124867107Y-76877107D02*
X122290000Y-81270000D01*
X122290000Y-81270000D02*
X122000000Y-83050000D01*
X124867107Y-76877107D02*
X126960482Y-74825305D01*
X127850000Y-89280000D02*
X129750000Y-94000000D01*
X123250000Y-98300000D02*
X121090000Y-89770000D01*
X121090000Y-89770000D02*
X120560000Y-82030000D01*
X120560000Y-82030000D02*
X123452893Y-75462893D01*
X129750000Y-94000000D02*
X130750000Y-98300000D01*
X123452893Y-75462893D02*
X126606928Y-74471751D01*
X122000000Y-84950000D02*
X124189670Y-90999670D01*
X127000000Y-102000000D02*
X128250000Y-94000000D01*
X125250330Y-92060330D02*
X128250000Y-94000000D01*
X128021142Y-71714035D02*
X127480000Y-71170000D01*
X127480000Y-71170000D02*
X128160000Y-68550000D01*
X128160000Y-68550000D02*
X128259670Y-67660330D01*
X148330000Y-76230000D02*
X155590000Y-75570000D01*
X131485965Y-72421142D02*
X131950000Y-71930000D01*
X131950000Y-71930000D02*
X133720000Y-71560000D01*
X155590000Y-75570000D02*
X157340000Y-75700000D01*
X157340000Y-66810000D02*
X155970000Y-66830000D01*
X155970000Y-66830000D02*
X155860000Y-67210000D01*
X155860000Y-67210000D02*
X155920000Y-71110000D01*
X155920000Y-71110000D02*
X155430000Y-72220000D01*
X155430000Y-72220000D02*
X154630000Y-73370000D01*
X154630000Y-73370000D02*
X153360000Y-74360000D01*
X153360000Y-74360000D02*
X152920000Y-74540000D01*
X152920000Y-74540000D02*
X145860000Y-75180000D01*
X145860000Y-75180000D02*
X145530000Y-75620000D01*
X145530000Y-75620000D02*
X145880000Y-76790000D01*
X146090000Y-92430000D02*
X145020000Y-92350000D01*
X145020000Y-92350000D02*
X144630000Y-92080000D01*
X144630000Y-92080000D02*
X144660000Y-86350000D01*
X144660000Y-86350000D02*
X143850000Y-85210000D01*
X143850000Y-85210000D02*
X143440000Y-83040000D01*
X145000000Y-77960000D02*
X144900000Y-75590000D01*
X144900000Y-75590000D02*
X145440000Y-74570000D01*
X145440000Y-74570000D02*
X153020000Y-73960000D01*
X153020000Y-73960000D02*
X154320000Y-72920000D01*
X154320000Y-72920000D02*
X155100000Y-71800000D01*
X155100000Y-71800000D02*
X155460000Y-70940000D01*
X155460000Y-70940000D02*
X155370000Y-66230000D01*
X155370000Y-66230000D02*
X155870000Y-65620000D01*
X155870000Y-65620000D02*
X157340000Y-65540000D01*
X146090000Y-91930000D02*
X145370000Y-91900000D01*
X145370000Y-91900000D02*
X145180000Y-91780000D01*
X145180000Y-91780000D02*
X145160000Y-86120000D01*
X145160000Y-86120000D02*
X144440000Y-84960000D01*
X144440000Y-84960000D02*
X143970000Y-82340000D01*
X160530000Y-73900000D02*
X159680000Y-75610000D01*
X161750000Y-75560000D02*
X161440000Y-74670000D01*
X161440000Y-74670000D02*
X160530000Y-73900000D01*
X168510000Y-78000000D02*
X168575000Y-76661000D01*
X162225000Y-76661000D02*
X162170000Y-78050000D01*
X162225000Y-76691000D02*
X161750000Y-75560000D01*
X159680000Y-75610000D02*
X159410000Y-77660000D01*
X159410000Y-77660000D02*
X158849038Y-79275888D01*
X158849038Y-79275888D02*
X157999038Y-80325888D01*
X157999038Y-80325888D02*
X156120000Y-81950000D01*
X156120000Y-81950000D02*
X155670000Y-82600000D01*
X155670000Y-84200000D02*
X155670000Y-85000000D01*
X155670000Y-83400000D02*
X155670000Y-84200000D01*
X155670000Y-82600000D02*
X155670000Y-83400000D01*
D44*
G36*
X141863224Y-93877634D02*
X141872870Y-93894632D01*
X141876461Y-93913844D01*
X141933089Y-94000753D01*
X141984282Y-94090966D01*
X141999698Y-94102979D01*
X142010368Y-94119354D01*
X143679770Y-95827806D01*
X145382000Y-98372553D01*
X145382000Y-99458000D01*
X145402000Y-99458000D01*
X145402000Y-99712000D01*
X145382000Y-99712000D01*
X145382000Y-100672581D01*
X145342140Y-100768574D01*
X145341860Y-101090016D01*
X145371033Y-101160621D01*
X145364376Y-101156714D01*
X145272609Y-101141538D01*
X145082000Y-101266269D01*
X145082000Y-102458000D01*
X145102000Y-102458000D01*
X145102000Y-102712000D01*
X145082000Y-102712000D01*
X145082000Y-103903731D01*
X145272609Y-104028462D01*
X145364376Y-104013286D01*
X145370000Y-104009985D01*
X145370000Y-104211309D01*
X145455200Y-104417000D01*
X141127000Y-104417000D01*
X141127000Y-102907696D01*
X143709744Y-102907696D01*
X143832353Y-103378701D01*
X144125875Y-103766933D01*
X144545624Y-104013286D01*
X144637391Y-104028462D01*
X144828000Y-103903731D01*
X144828000Y-102712000D01*
X143872453Y-102712000D01*
X143709744Y-102907696D01*
X141127000Y-102907696D01*
X141127000Y-102262304D01*
X143709744Y-102262304D01*
X143872453Y-102458000D01*
X144828000Y-102458000D01*
X144828000Y-101266269D01*
X144637391Y-101141538D01*
X144545624Y-101156714D01*
X144125875Y-101403067D01*
X143832353Y-101791299D01*
X143709744Y-102262304D01*
X141127000Y-102262304D01*
X141127000Y-100156976D01*
X141268584Y-100251579D01*
X141750000Y-100347339D01*
X142231416Y-100251579D01*
X142639540Y-99978879D01*
X142692991Y-99898883D01*
X144069320Y-99898883D01*
X144203156Y-100343954D01*
X144497125Y-100703929D01*
X144906474Y-100924006D01*
X144945256Y-100928803D01*
X145128000Y-100803361D01*
X145128000Y-99712000D01*
X144224852Y-99712000D01*
X144069320Y-99898883D01*
X142692991Y-99898883D01*
X142912240Y-99570755D01*
X142971841Y-99271117D01*
X144069320Y-99271117D01*
X144224852Y-99458000D01*
X145128000Y-99458000D01*
X145128000Y-98366639D01*
X144945256Y-98241197D01*
X144906474Y-98245994D01*
X144497125Y-98466071D01*
X144203156Y-98826046D01*
X144069320Y-99271117D01*
X142971841Y-99271117D01*
X143008000Y-99089339D01*
X143008000Y-97510661D01*
X142912240Y-97029245D01*
X142639540Y-96621121D01*
X142231416Y-96348421D01*
X141927512Y-96287970D01*
X141509632Y-94491086D01*
X141517952Y-94450000D01*
X141517952Y-93550000D01*
X141482530Y-93361747D01*
X141371272Y-93188847D01*
X141201512Y-93072855D01*
X141127000Y-93057766D01*
X141127000Y-91654525D01*
X141863224Y-93877634D01*
X141863224Y-93877634D01*
G37*
X141863224Y-93877634D02*
X141872870Y-93894632D01*
X141876461Y-93913844D01*
X141933089Y-94000753D01*
X141984282Y-94090966D01*
X141999698Y-94102979D01*
X142010368Y-94119354D01*
X143679770Y-95827806D01*
X145382000Y-98372553D01*
X145382000Y-99458000D01*
X145402000Y-99458000D01*
X145402000Y-99712000D01*
X145382000Y-99712000D01*
X145382000Y-100672581D01*
X145342140Y-100768574D01*
X145341860Y-101090016D01*
X145371033Y-101160621D01*
X145364376Y-101156714D01*
X145272609Y-101141538D01*
X145082000Y-101266269D01*
X145082000Y-102458000D01*
X145102000Y-102458000D01*
X145102000Y-102712000D01*
X145082000Y-102712000D01*
X145082000Y-103903731D01*
X145272609Y-104028462D01*
X145364376Y-104013286D01*
X145370000Y-104009985D01*
X145370000Y-104211309D01*
X145455200Y-104417000D01*
X141127000Y-104417000D01*
X141127000Y-102907696D01*
X143709744Y-102907696D01*
X143832353Y-103378701D01*
X144125875Y-103766933D01*
X144545624Y-104013286D01*
X144637391Y-104028462D01*
X144828000Y-103903731D01*
X144828000Y-102712000D01*
X143872453Y-102712000D01*
X143709744Y-102907696D01*
X141127000Y-102907696D01*
X141127000Y-102262304D01*
X143709744Y-102262304D01*
X143872453Y-102458000D01*
X144828000Y-102458000D01*
X144828000Y-101266269D01*
X144637391Y-101141538D01*
X144545624Y-101156714D01*
X144125875Y-101403067D01*
X143832353Y-101791299D01*
X143709744Y-102262304D01*
X141127000Y-102262304D01*
X141127000Y-100156976D01*
X141268584Y-100251579D01*
X141750000Y-100347339D01*
X142231416Y-100251579D01*
X142639540Y-99978879D01*
X142692991Y-99898883D01*
X144069320Y-99898883D01*
X144203156Y-100343954D01*
X144497125Y-100703929D01*
X144906474Y-100924006D01*
X144945256Y-100928803D01*
X145128000Y-100803361D01*
X145128000Y-99712000D01*
X144224852Y-99712000D01*
X144069320Y-99898883D01*
X142692991Y-99898883D01*
X142912240Y-99570755D01*
X142971841Y-99271117D01*
X144069320Y-99271117D01*
X144224852Y-99458000D01*
X145128000Y-99458000D01*
X145128000Y-98366639D01*
X144945256Y-98241197D01*
X144906474Y-98245994D01*
X144497125Y-98466071D01*
X144203156Y-98826046D01*
X144069320Y-99271117D01*
X142971841Y-99271117D01*
X143008000Y-99089339D01*
X143008000Y-97510661D01*
X142912240Y-97029245D01*
X142639540Y-96621121D01*
X142231416Y-96348421D01*
X141927512Y-96287970D01*
X141509632Y-94491086D01*
X141517952Y-94450000D01*
X141517952Y-93550000D01*
X141482530Y-93361747D01*
X141371272Y-93188847D01*
X141201512Y-93072855D01*
X141127000Y-93057766D01*
X141127000Y-91654525D01*
X141863224Y-93877634D01*
G36*
X155873277Y-61603000D02*
X157213000Y-61603000D01*
X157213000Y-61583000D01*
X157467000Y-61583000D01*
X157467000Y-61603000D01*
X158806723Y-61603000D01*
X158823227Y-61583000D01*
X175855808Y-61583000D01*
X175506154Y-61727832D01*
X175281484Y-62101879D01*
X177000000Y-63820395D01*
X178718516Y-62101879D01*
X178493846Y-61727832D01*
X178136687Y-61583000D01*
X179417000Y-61583000D01*
X179417000Y-62855808D01*
X179272168Y-62506154D01*
X178898121Y-62281484D01*
X177179605Y-64000000D01*
X178898121Y-65718516D01*
X179272168Y-65493846D01*
X179417000Y-65136687D01*
X179417000Y-100855808D01*
X179272168Y-100506154D01*
X178898121Y-100281484D01*
X177179605Y-102000000D01*
X178898121Y-103718516D01*
X179272168Y-103493846D01*
X179417000Y-103136687D01*
X179417000Y-104417000D01*
X178144192Y-104417000D01*
X178493846Y-104272168D01*
X178718516Y-103898121D01*
X177000000Y-102179605D01*
X175281484Y-103898121D01*
X175506154Y-104272168D01*
X175863313Y-104417000D01*
X149904800Y-104417000D01*
X149990000Y-104211309D01*
X149990000Y-104009985D01*
X149995624Y-104013286D01*
X150087391Y-104028462D01*
X150278000Y-103903731D01*
X150278000Y-102712000D01*
X150532000Y-102712000D01*
X150532000Y-103903731D01*
X150722609Y-104028462D01*
X150814376Y-104013286D01*
X151234125Y-103766933D01*
X151527647Y-103378701D01*
X151650256Y-102907696D01*
X151487547Y-102712000D01*
X150532000Y-102712000D01*
X150278000Y-102712000D01*
X150258000Y-102712000D01*
X150258000Y-102458000D01*
X150278000Y-102458000D01*
X150278000Y-101266269D01*
X150532000Y-101266269D01*
X150532000Y-102458000D01*
X151487547Y-102458000D01*
X151650256Y-102262304D01*
X151527647Y-101791299D01*
X151234125Y-101403067D01*
X150814376Y-101156714D01*
X150722609Y-101141538D01*
X150532000Y-101266269D01*
X150278000Y-101266269D01*
X150087391Y-101141538D01*
X149995624Y-101156714D01*
X149887940Y-101219915D01*
X149714699Y-101046673D01*
X149609802Y-101003223D01*
X149712604Y-100900421D01*
X149756474Y-100924006D01*
X149795256Y-100928803D01*
X149978000Y-100803361D01*
X149978000Y-99712000D01*
X150232000Y-99712000D01*
X150232000Y-100803361D01*
X150414744Y-100928803D01*
X150453526Y-100924006D01*
X150862875Y-100703929D01*
X151156844Y-100343954D01*
X151290680Y-99898883D01*
X151135148Y-99712000D01*
X150232000Y-99712000D01*
X149978000Y-99712000D01*
X149958000Y-99712000D01*
X149958000Y-99458000D01*
X149978000Y-99458000D01*
X149978000Y-98366639D01*
X150232000Y-98366639D01*
X150232000Y-99458000D01*
X151135148Y-99458000D01*
X151290680Y-99271117D01*
X151156844Y-98826046D01*
X150862875Y-98466071D01*
X150786482Y-98425000D01*
X154946350Y-98425000D01*
X154946350Y-99060000D01*
X154994203Y-99300574D01*
X155130477Y-99504523D01*
X155334426Y-99640797D01*
X155575000Y-99688650D01*
X156210000Y-99688650D01*
X156450574Y-99640797D01*
X156654523Y-99504523D01*
X157289520Y-98869525D01*
X157289523Y-98869523D01*
X157425797Y-98665574D01*
X157440501Y-98591652D01*
X157473651Y-98425000D01*
X157473650Y-98424995D01*
X157473650Y-98418650D01*
X157479995Y-98418650D01*
X157480000Y-98418651D01*
X157684295Y-98378014D01*
X157536516Y-98733904D01*
X157535706Y-99662024D01*
X157890134Y-100519806D01*
X158545842Y-101176659D01*
X159403004Y-101532584D01*
X160331124Y-101533394D01*
X161188906Y-101178966D01*
X161845759Y-100523258D01*
X162201684Y-99666096D01*
X162201687Y-99662024D01*
X169405126Y-99662024D01*
X169759554Y-100519806D01*
X170415262Y-101176659D01*
X171272424Y-101532584D01*
X172200544Y-101533394D01*
X172307046Y-101489388D01*
X174329120Y-101489388D01*
X174337025Y-102550357D01*
X174727832Y-103493846D01*
X175101879Y-103718516D01*
X176820395Y-102000000D01*
X175101879Y-100281484D01*
X174727832Y-100506154D01*
X174329120Y-101489388D01*
X172307046Y-101489388D01*
X173058326Y-101178966D01*
X173715179Y-100523258D01*
X173890150Y-100101879D01*
X175281484Y-100101879D01*
X177000000Y-101820395D01*
X178718516Y-100101879D01*
X178493846Y-99727832D01*
X177510612Y-99329120D01*
X176449643Y-99337025D01*
X175506154Y-99727832D01*
X175281484Y-100101879D01*
X173890150Y-100101879D01*
X174071104Y-99666096D01*
X174071914Y-98737976D01*
X173717486Y-97880194D01*
X173061778Y-97223341D01*
X172204616Y-96867416D01*
X171276496Y-96866606D01*
X170418714Y-97221034D01*
X169761861Y-97876742D01*
X169405936Y-98733904D01*
X169405126Y-99662024D01*
X162201687Y-99662024D01*
X162202494Y-98737976D01*
X161848066Y-97880194D01*
X161192358Y-97223341D01*
X160335196Y-96867416D01*
X159407076Y-96866606D01*
X158549294Y-97221034D01*
X158087227Y-97682296D01*
X158060797Y-97549426D01*
X158034895Y-97510661D01*
X157924523Y-97345477D01*
X157924520Y-97345475D01*
X157289523Y-96710477D01*
X157174693Y-96633750D01*
X174515000Y-96633750D01*
X174515000Y-96726309D01*
X174611673Y-96959698D01*
X174790301Y-97138327D01*
X175023690Y-97235000D01*
X175314250Y-97235000D01*
X175473000Y-97076250D01*
X175473000Y-96475000D01*
X175727000Y-96475000D01*
X175727000Y-97076250D01*
X175885750Y-97235000D01*
X176176310Y-97235000D01*
X176409699Y-97138327D01*
X176588327Y-96959698D01*
X176685000Y-96726309D01*
X176685000Y-96633750D01*
X176715000Y-96633750D01*
X176715000Y-96726309D01*
X176811673Y-96959698D01*
X176990301Y-97138327D01*
X177223690Y-97235000D01*
X177514250Y-97235000D01*
X177673000Y-97076250D01*
X177673000Y-96475000D01*
X177927000Y-96475000D01*
X177927000Y-97076250D01*
X178085750Y-97235000D01*
X178376310Y-97235000D01*
X178609699Y-97138327D01*
X178788327Y-96959698D01*
X178885000Y-96726309D01*
X178885000Y-96633750D01*
X178726250Y-96475000D01*
X177927000Y-96475000D01*
X177673000Y-96475000D01*
X176873750Y-96475000D01*
X176715000Y-96633750D01*
X176685000Y-96633750D01*
X176526250Y-96475000D01*
X175727000Y-96475000D01*
X175473000Y-96475000D01*
X174673750Y-96475000D01*
X174515000Y-96633750D01*
X157174693Y-96633750D01*
X157085574Y-96574203D01*
X156845000Y-96526350D01*
X156604426Y-96574203D01*
X156400477Y-96710477D01*
X156264203Y-96914426D01*
X156216350Y-97155000D01*
X156216350Y-97161350D01*
X156210005Y-97161350D01*
X156210000Y-97161349D01*
X155969426Y-97209203D01*
X155765477Y-97345477D01*
X155765475Y-97345480D01*
X155130477Y-97980477D01*
X154994203Y-98184426D01*
X154946350Y-98425000D01*
X150786482Y-98425000D01*
X150453526Y-98245994D01*
X150414744Y-98241197D01*
X150232000Y-98366639D01*
X149978000Y-98366639D01*
X149795256Y-98241197D01*
X149756474Y-98245994D01*
X149550017Y-98356991D01*
X149539699Y-98346673D01*
X149306310Y-98250000D01*
X149238750Y-98250000D01*
X149080000Y-98408750D01*
X149080000Y-98793175D01*
X149053156Y-98826046D01*
X149043132Y-98859382D01*
X149012530Y-98696747D01*
X148901272Y-98523847D01*
X148880000Y-98509312D01*
X148880000Y-98408750D01*
X148721250Y-98250000D01*
X148653690Y-98250000D01*
X148420301Y-98346673D01*
X148399926Y-98367048D01*
X148314100Y-98367048D01*
X148314100Y-97608013D01*
X148421731Y-97608107D01*
X148524611Y-97857097D01*
X148751707Y-98084590D01*
X149048574Y-98207860D01*
X149370016Y-98208140D01*
X149667097Y-98085389D01*
X149734982Y-98017623D01*
X152619786Y-97956244D01*
X152693728Y-98071153D01*
X152863488Y-98187145D01*
X153065000Y-98227952D01*
X153815000Y-98227952D01*
X154003253Y-98192530D01*
X154176153Y-98081272D01*
X154292145Y-97911512D01*
X154332952Y-97710000D01*
X154332952Y-96910000D01*
X154297530Y-96721747D01*
X154259844Y-96663181D01*
X154353327Y-96569698D01*
X154450000Y-96336309D01*
X154450000Y-96095750D01*
X154291250Y-95937000D01*
X153567000Y-95937000D01*
X153567000Y-95957000D01*
X153313000Y-95957000D01*
X153313000Y-95937000D01*
X152588750Y-95937000D01*
X152430000Y-96095750D01*
X152430000Y-96336309D01*
X152526673Y-96569698D01*
X152619357Y-96662383D01*
X152594199Y-96699203D01*
X150743804Y-96738573D01*
X151906483Y-95558076D01*
X151980016Y-95558140D01*
X152277097Y-95435389D01*
X152430663Y-95282091D01*
X152430000Y-95283691D01*
X152430000Y-95524250D01*
X152588750Y-95683000D01*
X153313000Y-95683000D01*
X153313000Y-94933750D01*
X153567000Y-94933750D01*
X153567000Y-95683000D01*
X154291250Y-95683000D01*
X154450000Y-95524250D01*
X154450000Y-95283691D01*
X154353327Y-95050302D01*
X154174699Y-94871673D01*
X153941310Y-94775000D01*
X153725750Y-94775000D01*
X153567000Y-94933750D01*
X153313000Y-94933750D01*
X153154250Y-94775000D01*
X152938690Y-94775000D01*
X152705301Y-94871673D01*
X152601098Y-94975877D01*
X152627860Y-94911426D01*
X152628090Y-94647952D01*
X153125000Y-94647952D01*
X153313253Y-94612530D01*
X153486153Y-94501272D01*
X153602145Y-94331512D01*
X153642952Y-94130000D01*
X153642952Y-93330000D01*
X153607530Y-93141747D01*
X153569844Y-93083181D01*
X153663327Y-92989698D01*
X153760000Y-92756309D01*
X153760000Y-92515750D01*
X153601250Y-92357000D01*
X152877000Y-92357000D01*
X152877000Y-92377000D01*
X152623000Y-92377000D01*
X152623000Y-92357000D01*
X151898750Y-92357000D01*
X151740000Y-92515750D01*
X151740000Y-92559681D01*
X151601426Y-92502140D01*
X151279984Y-92501860D01*
X150982903Y-92624611D01*
X150916236Y-92691162D01*
X150913445Y-92676329D01*
X150932952Y-92580000D01*
X150932952Y-92280000D01*
X150913445Y-92176329D01*
X150932952Y-92080000D01*
X150932952Y-91780000D01*
X150918594Y-91703691D01*
X151740000Y-91703691D01*
X151740000Y-91944250D01*
X151898750Y-92103000D01*
X152623000Y-92103000D01*
X152623000Y-91353750D01*
X152877000Y-91353750D01*
X152877000Y-92103000D01*
X153601250Y-92103000D01*
X153760000Y-91944250D01*
X153760000Y-91703691D01*
X153663327Y-91470302D01*
X153484699Y-91291673D01*
X153251310Y-91195000D01*
X153035750Y-91195000D01*
X152877000Y-91353750D01*
X152623000Y-91353750D01*
X152464250Y-91195000D01*
X152248690Y-91195000D01*
X152015301Y-91291673D01*
X151836673Y-91470302D01*
X151740000Y-91703691D01*
X150918594Y-91703691D01*
X150903157Y-91621653D01*
X150941279Y-91430000D01*
X150891192Y-91178194D01*
X150748555Y-90964724D01*
X150535085Y-90822087D01*
X150283279Y-90772000D01*
X149948000Y-90772000D01*
X149948000Y-90436721D01*
X149897913Y-90184915D01*
X149755276Y-89971445D01*
X149679276Y-89920663D01*
X150954394Y-89463466D01*
X151100000Y-89492952D01*
X151900000Y-89492952D01*
X152088253Y-89457530D01*
X152146819Y-89419844D01*
X152240302Y-89513327D01*
X152473691Y-89610000D01*
X152714250Y-89610000D01*
X152873000Y-89451250D01*
X152873000Y-88727000D01*
X153127000Y-88727000D01*
X153127000Y-89451250D01*
X153285750Y-89610000D01*
X153526309Y-89610000D01*
X153759698Y-89513327D01*
X153938327Y-89334699D01*
X154035000Y-89101310D01*
X154035000Y-88885750D01*
X153876250Y-88727000D01*
X153127000Y-88727000D01*
X152873000Y-88727000D01*
X152853000Y-88727000D01*
X152853000Y-88473000D01*
X152873000Y-88473000D01*
X152873000Y-87748750D01*
X153127000Y-87748750D01*
X153127000Y-88473000D01*
X153876250Y-88473000D01*
X154035000Y-88314250D01*
X154035000Y-88098690D01*
X153938327Y-87865301D01*
X153759698Y-87686673D01*
X153526309Y-87590000D01*
X153285750Y-87590000D01*
X153127000Y-87748750D01*
X152873000Y-87748750D01*
X152714250Y-87590000D01*
X152473691Y-87590000D01*
X152240302Y-87686673D01*
X152147617Y-87779357D01*
X152101512Y-87747855D01*
X151900000Y-87707048D01*
X151100000Y-87707048D01*
X150911747Y-87742470D01*
X150738847Y-87853728D01*
X150622855Y-88023488D01*
X150582048Y-88225000D01*
X150582048Y-88261296D01*
X149617952Y-88606975D01*
X149617952Y-88163362D01*
X150681351Y-86255111D01*
X151008102Y-85668762D01*
X151200050Y-85668762D01*
X151388303Y-85633340D01*
X151561203Y-85522082D01*
X151677195Y-85352322D01*
X151718002Y-85150810D01*
X151718002Y-84833750D01*
X152315000Y-84833750D01*
X152315000Y-84926309D01*
X152411673Y-85159698D01*
X152590301Y-85338327D01*
X152823690Y-85435000D01*
X153114250Y-85435000D01*
X153273000Y-85276250D01*
X153273000Y-84675000D01*
X153527000Y-84675000D01*
X153527000Y-85276250D01*
X153685750Y-85435000D01*
X153976310Y-85435000D01*
X154209699Y-85338327D01*
X154388327Y-85159698D01*
X154485000Y-84926309D01*
X154485000Y-84833750D01*
X154326250Y-84675000D01*
X153527000Y-84675000D01*
X153273000Y-84675000D01*
X152473750Y-84675000D01*
X152315000Y-84833750D01*
X151718002Y-84833750D01*
X151718002Y-84350710D01*
X151682580Y-84162457D01*
X151571322Y-83989557D01*
X151401562Y-83873565D01*
X151200050Y-83832758D01*
X150399950Y-83832758D01*
X150211697Y-83868180D01*
X150038797Y-83979438D01*
X149922805Y-84149198D01*
X149881998Y-84350710D01*
X149881998Y-84732080D01*
X149818002Y-84732024D01*
X149818002Y-84350710D01*
X149782580Y-84162457D01*
X149671322Y-83989557D01*
X149501562Y-83873565D01*
X149300050Y-83832758D01*
X148499950Y-83832758D01*
X148311697Y-83868180D01*
X148138797Y-83979438D01*
X148100694Y-84035203D01*
X148071322Y-83989557D01*
X147901562Y-83873565D01*
X147700050Y-83832758D01*
X146899950Y-83832758D01*
X146711697Y-83868180D01*
X146538797Y-83979438D01*
X146422805Y-84149198D01*
X146381998Y-84350710D01*
X146381998Y-85150810D01*
X146402080Y-85257536D01*
X146318002Y-85106660D01*
X146318002Y-84350710D01*
X146282580Y-84162457D01*
X146171322Y-83989557D01*
X146001562Y-83873565D01*
X145800050Y-83832758D01*
X144999950Y-83832758D01*
X144880502Y-83855234D01*
X144679945Y-82737232D01*
X144777860Y-82501426D01*
X144777893Y-82463650D01*
X145431998Y-82897370D01*
X145431998Y-83151830D01*
X145467420Y-83340083D01*
X145578678Y-83512983D01*
X145748438Y-83628975D01*
X145949950Y-83669782D01*
X146750050Y-83669782D01*
X146938303Y-83634360D01*
X147111203Y-83523102D01*
X147227195Y-83353342D01*
X147268002Y-83151830D01*
X147268002Y-82351730D01*
X147232580Y-82163477D01*
X147121322Y-81990577D01*
X146951562Y-81874585D01*
X146750050Y-81833778D01*
X146103106Y-81833778D01*
X145466087Y-81411388D01*
X145649375Y-81288918D01*
X145660000Y-81273017D01*
X145670625Y-81288918D01*
X145957091Y-81480329D01*
X146295000Y-81547543D01*
X146632909Y-81480329D01*
X146919375Y-81288918D01*
X146930000Y-81273017D01*
X146940625Y-81288918D01*
X147227091Y-81480329D01*
X147565000Y-81547543D01*
X147902909Y-81480329D01*
X148189375Y-81288918D01*
X148200000Y-81273017D01*
X148210625Y-81288918D01*
X148497091Y-81480329D01*
X148835000Y-81547543D01*
X149172909Y-81480329D01*
X149459375Y-81288918D01*
X149470000Y-81273017D01*
X149480625Y-81288918D01*
X149767091Y-81480329D01*
X150105000Y-81547543D01*
X150442909Y-81480329D01*
X150729375Y-81288918D01*
X150740000Y-81273017D01*
X150750625Y-81288918D01*
X151037091Y-81480329D01*
X151375000Y-81547543D01*
X151712909Y-81480329D01*
X151999375Y-81288918D01*
X152010000Y-81273017D01*
X152020625Y-81288918D01*
X152132187Y-81363462D01*
X150476795Y-81891826D01*
X150451562Y-81874585D01*
X150250050Y-81833778D01*
X149449950Y-81833778D01*
X149261697Y-81869200D01*
X149088797Y-81980458D01*
X148972805Y-82150218D01*
X148931998Y-82351730D01*
X148931998Y-83151830D01*
X148967420Y-83340083D01*
X149078678Y-83512983D01*
X149248438Y-83628975D01*
X149449950Y-83669782D01*
X150250050Y-83669782D01*
X150438303Y-83634360D01*
X150611203Y-83523102D01*
X150727195Y-83353342D01*
X150768002Y-83151830D01*
X150768002Y-83118669D01*
X151425224Y-82908899D01*
X151392140Y-82988574D01*
X151391860Y-83310016D01*
X151514611Y-83607097D01*
X151741707Y-83834590D01*
X152038574Y-83957860D01*
X152360016Y-83958140D01*
X152417648Y-83934327D01*
X152411673Y-83940302D01*
X152315000Y-84173691D01*
X152315000Y-84266250D01*
X152473750Y-84425000D01*
X153273000Y-84425000D01*
X153273000Y-84403000D01*
X153527000Y-84403000D01*
X153527000Y-84425000D01*
X154326250Y-84425000D01*
X154485000Y-84266250D01*
X154485000Y-84173691D01*
X154388327Y-83940302D01*
X154209699Y-83761673D01*
X154125114Y-83726637D01*
X154211153Y-83671272D01*
X154327145Y-83501512D01*
X154367952Y-83300000D01*
X154367952Y-82800000D01*
X154332530Y-82611747D01*
X154221272Y-82438847D01*
X154051512Y-82322855D01*
X153850000Y-82282048D01*
X153818495Y-82282048D01*
X154762094Y-82097154D01*
X154692855Y-82198488D01*
X154652048Y-82400000D01*
X154652048Y-82800000D01*
X154687470Y-82988253D01*
X154693474Y-82997583D01*
X154692855Y-82998488D01*
X154652048Y-83200000D01*
X154652048Y-83600000D01*
X154687470Y-83788253D01*
X154693474Y-83797583D01*
X154692855Y-83798488D01*
X154652048Y-84000000D01*
X154652048Y-84400000D01*
X154687470Y-84588253D01*
X154693474Y-84597583D01*
X154692855Y-84598488D01*
X154652048Y-84800000D01*
X154652048Y-85200000D01*
X154687470Y-85388253D01*
X154798728Y-85561153D01*
X154968488Y-85677145D01*
X155170000Y-85717952D01*
X156170000Y-85717952D01*
X156358253Y-85682530D01*
X156531153Y-85571272D01*
X156600207Y-85470208D01*
X156658728Y-85561153D01*
X156828488Y-85677145D01*
X157030000Y-85717952D01*
X158030000Y-85717952D01*
X158152062Y-85694985D01*
X158156550Y-85695440D01*
X158210646Y-85690272D01*
X158264564Y-85697069D01*
X158331568Y-85678720D01*
X158400725Y-85672113D01*
X158448728Y-85646636D01*
X158501141Y-85632282D01*
X159261141Y-85252282D01*
X159274909Y-85241596D01*
X159291438Y-85236083D01*
X169531438Y-79396084D01*
X169539486Y-79389101D01*
X169549472Y-79385396D01*
X169631840Y-79308969D01*
X169716708Y-79235333D01*
X169721470Y-79225805D01*
X169729280Y-79218558D01*
X170279280Y-78458558D01*
X170303143Y-78406539D01*
X170337390Y-78360684D01*
X170353788Y-78296138D01*
X170381554Y-78235610D01*
X170383694Y-78178420D01*
X170397786Y-78122949D01*
X170404341Y-77998047D01*
X170523653Y-77921272D01*
X170639645Y-77751512D01*
X170680452Y-77550000D01*
X170680452Y-75772000D01*
X170645030Y-75583747D01*
X170533772Y-75410847D01*
X170364012Y-75294855D01*
X170162500Y-75254048D01*
X169989497Y-75254048D01*
X169650456Y-74953534D01*
X170182122Y-74963472D01*
X170348488Y-75077145D01*
X170550000Y-75117952D01*
X171450000Y-75117952D01*
X171638253Y-75082530D01*
X171811153Y-74971272D01*
X171927145Y-74801512D01*
X171958667Y-74645852D01*
X172369672Y-75212935D01*
X173234009Y-81263289D01*
X173256024Y-81632048D01*
X173000000Y-81632048D01*
X172811747Y-81667470D01*
X172638847Y-81778728D01*
X172522855Y-81948488D01*
X172522255Y-81951451D01*
X172156984Y-81941579D01*
X172107385Y-81950059D01*
X172057174Y-81946830D01*
X164157174Y-82996830D01*
X164044733Y-83035154D01*
X163931797Y-83072084D01*
X162331797Y-83972084D01*
X162329460Y-83974088D01*
X162326542Y-83975073D01*
X162236436Y-84053841D01*
X162145579Y-84131736D01*
X162144186Y-84134483D01*
X162141868Y-84136509D01*
X162088774Y-84243741D01*
X162034632Y-84350497D01*
X162034396Y-84353568D01*
X162033030Y-84356327D01*
X161953287Y-84652048D01*
X161907500Y-84652048D01*
X161719247Y-84687470D01*
X161588893Y-84771350D01*
X161474012Y-84692855D01*
X161272500Y-84652048D01*
X160637500Y-84652048D01*
X160449247Y-84687470D01*
X160276347Y-84798728D01*
X160160355Y-84968488D01*
X160119548Y-85170000D01*
X160119548Y-86948000D01*
X160154970Y-87136253D01*
X160266228Y-87309153D01*
X160404460Y-87403603D01*
X160650543Y-91581478D01*
X160604430Y-91581478D01*
X160416177Y-91616900D01*
X160243277Y-91728158D01*
X160127285Y-91897918D01*
X160086478Y-92099430D01*
X160086478Y-93600570D01*
X160121900Y-93788823D01*
X160233158Y-93961723D01*
X160402918Y-94077715D01*
X160604430Y-94118522D01*
X162105570Y-94118522D01*
X162293823Y-94083100D01*
X162466723Y-93971842D01*
X162582715Y-93802082D01*
X162623522Y-93600570D01*
X162623522Y-92099430D01*
X162588100Y-91911177D01*
X162476842Y-91738277D01*
X162307082Y-91622285D01*
X162105570Y-91581478D01*
X161910021Y-91581478D01*
X161897110Y-91362282D01*
X161911146Y-91376342D01*
X162373557Y-91568351D01*
X162874247Y-91568788D01*
X163336991Y-91377586D01*
X163691342Y-91023854D01*
X163883351Y-90561443D01*
X163883788Y-90060753D01*
X163692586Y-89598009D01*
X163460065Y-89365081D01*
X163850188Y-87458861D01*
X164000753Y-87430530D01*
X164131107Y-87346650D01*
X164245988Y-87425145D01*
X164447500Y-87465952D01*
X165082500Y-87465952D01*
X165270753Y-87430530D01*
X165401107Y-87346650D01*
X165515988Y-87425145D01*
X165717500Y-87465952D01*
X166352500Y-87465952D01*
X166468907Y-87444049D01*
X166364432Y-88164442D01*
X166005248Y-89370274D01*
X165878854Y-89243658D01*
X165416443Y-89051649D01*
X164915753Y-89051212D01*
X164453009Y-89242414D01*
X164098658Y-89596146D01*
X163906649Y-90058557D01*
X163906212Y-90559247D01*
X164097414Y-91021991D01*
X164451146Y-91376342D01*
X164598130Y-91437375D01*
X164590272Y-91445525D01*
X164563829Y-91460182D01*
X164322275Y-91664660D01*
X164146443Y-91591649D01*
X163645753Y-91591212D01*
X163183009Y-91782414D01*
X162828658Y-92136146D01*
X162636649Y-92598557D01*
X162636212Y-93099247D01*
X162827414Y-93561991D01*
X163181146Y-93916342D01*
X163643557Y-94108351D01*
X164144247Y-94108788D01*
X164606991Y-93917586D01*
X164961342Y-93563854D01*
X165153351Y-93101443D01*
X165153782Y-92608074D01*
X165182950Y-92583383D01*
X165176649Y-92598557D01*
X165176212Y-93099247D01*
X165367414Y-93561991D01*
X165721146Y-93916342D01*
X166183557Y-94108351D01*
X166684247Y-94108788D01*
X167146991Y-93917586D01*
X167501342Y-93563854D01*
X167693351Y-93101443D01*
X167693352Y-93099247D01*
X167716212Y-93099247D01*
X167907414Y-93561991D01*
X168261146Y-93916342D01*
X168723557Y-94108351D01*
X169224247Y-94108788D01*
X169686991Y-93917586D01*
X170041342Y-93563854D01*
X170233351Y-93101443D01*
X170233788Y-92600753D01*
X170042586Y-92138009D01*
X169688854Y-91783658D01*
X169226443Y-91591649D01*
X168725753Y-91591212D01*
X168263009Y-91782414D01*
X167908658Y-92136146D01*
X167716649Y-92598557D01*
X167716212Y-93099247D01*
X167693352Y-93099247D01*
X167693788Y-92600753D01*
X167502586Y-92138009D01*
X167148854Y-91783658D01*
X166686443Y-91591649D01*
X166551848Y-91591532D01*
X166572101Y-91570525D01*
X166641810Y-91511566D01*
X166656597Y-91482887D01*
X166678992Y-91459659D01*
X166712382Y-91374694D01*
X166754219Y-91293552D01*
X166788692Y-91173534D01*
X166991146Y-91376342D01*
X167453557Y-91568351D01*
X167954247Y-91568788D01*
X168416991Y-91377586D01*
X168771342Y-91023854D01*
X168963351Y-90561443D01*
X168963352Y-90559247D01*
X168986212Y-90559247D01*
X169177414Y-91021991D01*
X169531146Y-91376342D01*
X169993557Y-91568351D01*
X170494247Y-91568788D01*
X170956991Y-91377586D01*
X171311342Y-91023854D01*
X171503351Y-90561443D01*
X171503788Y-90060753D01*
X171312586Y-89598009D01*
X170958854Y-89243658D01*
X170496443Y-89051649D01*
X169995753Y-89051212D01*
X169533009Y-89242414D01*
X169178658Y-89596146D01*
X168986649Y-90058557D01*
X168986212Y-90559247D01*
X168963352Y-90559247D01*
X168963788Y-90060753D01*
X168825071Y-89725033D01*
X170139672Y-87668598D01*
X170183571Y-87556230D01*
X170224166Y-87454349D01*
X170350753Y-87430530D01*
X170523653Y-87319272D01*
X170639645Y-87149512D01*
X170680452Y-86948000D01*
X170680452Y-85170000D01*
X170670452Y-85116856D01*
X171959534Y-84876519D01*
X172528630Y-84855596D01*
X172628728Y-85011153D01*
X172798488Y-85127145D01*
X173000000Y-85167952D01*
X173467123Y-85167952D01*
X173472467Y-85257465D01*
X173490383Y-85325920D01*
X173496606Y-85396397D01*
X174657798Y-89368434D01*
X174639407Y-89380268D01*
X174523415Y-89550028D01*
X174482608Y-89751540D01*
X174482608Y-90950420D01*
X174518030Y-91138673D01*
X174629288Y-91311573D01*
X174759867Y-91400794D01*
X174639407Y-91478308D01*
X174523415Y-91648068D01*
X174482608Y-91849580D01*
X174482608Y-93048460D01*
X174518030Y-93236713D01*
X174629288Y-93409613D01*
X174799048Y-93525605D01*
X174971350Y-93560497D01*
X174971350Y-94115663D01*
X174961747Y-94117470D01*
X174788847Y-94228728D01*
X174672855Y-94398488D01*
X174632048Y-94600000D01*
X174632048Y-95100000D01*
X174667470Y-95288253D01*
X174778728Y-95461153D01*
X174874687Y-95526719D01*
X174790301Y-95561673D01*
X174611673Y-95740302D01*
X174515000Y-95973691D01*
X174515000Y-96066250D01*
X174673750Y-96225000D01*
X175473000Y-96225000D01*
X175473000Y-96203000D01*
X175727000Y-96203000D01*
X175727000Y-96225000D01*
X176526250Y-96225000D01*
X176685000Y-96066250D01*
X176685000Y-95973691D01*
X176588327Y-95740302D01*
X176409699Y-95561673D01*
X176325114Y-95526637D01*
X176411153Y-95471272D01*
X176527145Y-95301512D01*
X176567952Y-95100000D01*
X176567952Y-94600000D01*
X176532530Y-94411747D01*
X176421272Y-94238847D01*
X176251512Y-94122855D01*
X176228650Y-94118225D01*
X176228650Y-93560916D01*
X176387693Y-93530990D01*
X176560593Y-93419732D01*
X176676585Y-93249972D01*
X176699361Y-93137498D01*
X176718030Y-93236713D01*
X176829288Y-93409613D01*
X176999048Y-93525605D01*
X177171350Y-93560497D01*
X177171350Y-94115663D01*
X177161747Y-94117470D01*
X176988847Y-94228728D01*
X176872855Y-94398488D01*
X176832048Y-94600000D01*
X176832048Y-95100000D01*
X176867470Y-95288253D01*
X176978728Y-95461153D01*
X177074687Y-95526719D01*
X176990301Y-95561673D01*
X176811673Y-95740302D01*
X176715000Y-95973691D01*
X176715000Y-96066250D01*
X176873750Y-96225000D01*
X177673000Y-96225000D01*
X177673000Y-96203000D01*
X177927000Y-96203000D01*
X177927000Y-96225000D01*
X178726250Y-96225000D01*
X178885000Y-96066250D01*
X178885000Y-95973691D01*
X178788327Y-95740302D01*
X178609699Y-95561673D01*
X178525114Y-95526637D01*
X178611153Y-95471272D01*
X178727145Y-95301512D01*
X178767952Y-95100000D01*
X178767952Y-94600000D01*
X178732530Y-94411747D01*
X178621272Y-94238847D01*
X178451512Y-94122855D01*
X178428650Y-94118225D01*
X178428650Y-93560916D01*
X178587693Y-93530990D01*
X178760593Y-93419732D01*
X178876585Y-93249972D01*
X178917392Y-93048460D01*
X178917392Y-91849580D01*
X178881970Y-91661327D01*
X178770712Y-91488427D01*
X178640133Y-91399206D01*
X178760593Y-91321692D01*
X178876585Y-91151932D01*
X178917392Y-90950420D01*
X178917392Y-89751540D01*
X178881970Y-89563287D01*
X178770712Y-89390387D01*
X178600952Y-89274395D01*
X178399440Y-89233588D01*
X178239286Y-89233588D01*
X177438650Y-84744382D01*
X177438650Y-84327000D01*
X177677000Y-84327000D01*
X177677000Y-85051250D01*
X177835750Y-85210000D01*
X178076309Y-85210000D01*
X178309698Y-85113327D01*
X178488327Y-84934699D01*
X178585000Y-84701310D01*
X178585000Y-84485750D01*
X178426250Y-84327000D01*
X177677000Y-84327000D01*
X177438650Y-84327000D01*
X177438650Y-82727000D01*
X177677000Y-82727000D01*
X177677000Y-84073000D01*
X178426250Y-84073000D01*
X178585000Y-83914250D01*
X178585000Y-83698690D01*
X178488327Y-83465301D01*
X178423026Y-83400000D01*
X178488327Y-83334699D01*
X178585000Y-83101310D01*
X178585000Y-82885750D01*
X178426250Y-82727000D01*
X177677000Y-82727000D01*
X177438650Y-82727000D01*
X177438650Y-81980000D01*
X177423000Y-81901322D01*
X177423000Y-81748750D01*
X177677000Y-81748750D01*
X177677000Y-82473000D01*
X178426250Y-82473000D01*
X178585000Y-82314250D01*
X178585000Y-82098690D01*
X178488327Y-81865301D01*
X178309698Y-81686673D01*
X178076309Y-81590000D01*
X177835750Y-81590000D01*
X177677000Y-81748750D01*
X177423000Y-81748750D01*
X177380026Y-81705776D01*
X174693249Y-74042018D01*
X174632072Y-73938449D01*
X174571683Y-73834409D01*
X173118420Y-72185000D01*
X173301310Y-72185000D01*
X173534699Y-72088327D01*
X173713327Y-71909698D01*
X173810000Y-71676309D01*
X173810000Y-71435750D01*
X173651250Y-71277000D01*
X172927000Y-71277000D01*
X172927000Y-71297000D01*
X172673000Y-71297000D01*
X172673000Y-71277000D01*
X171948750Y-71277000D01*
X171900000Y-71325750D01*
X171851250Y-71277000D01*
X171127000Y-71277000D01*
X171127000Y-71297000D01*
X170873000Y-71297000D01*
X170873000Y-71277000D01*
X170148750Y-71277000D01*
X170024064Y-71401686D01*
X169303580Y-71338195D01*
X169465742Y-71217971D01*
X169660016Y-71218140D01*
X169957097Y-71095389D01*
X170089233Y-70963483D01*
X170148750Y-71023000D01*
X170873000Y-71023000D01*
X170873000Y-71003000D01*
X171127000Y-71003000D01*
X171127000Y-71023000D01*
X171851250Y-71023000D01*
X171900000Y-70974250D01*
X171948750Y-71023000D01*
X172673000Y-71023000D01*
X172673000Y-71003000D01*
X172927000Y-71003000D01*
X172927000Y-71023000D01*
X173651250Y-71023000D01*
X173810000Y-70864250D01*
X173810000Y-70623691D01*
X173713327Y-70390302D01*
X173620643Y-70297617D01*
X173652145Y-70251512D01*
X173692952Y-70050000D01*
X173692952Y-69250000D01*
X173657530Y-69061747D01*
X173546272Y-68888847D01*
X173376512Y-68772855D01*
X173175000Y-68732048D01*
X172425000Y-68732048D01*
X172236747Y-68767470D01*
X172063847Y-68878728D01*
X171966398Y-69021350D01*
X171831535Y-69021350D01*
X171746272Y-68888847D01*
X171576512Y-68772855D01*
X171375000Y-68732048D01*
X170625000Y-68732048D01*
X170436747Y-68767470D01*
X170263847Y-68878728D01*
X170204433Y-68965684D01*
X170177782Y-68968987D01*
X170129646Y-68963370D01*
X170057862Y-68969138D01*
X170058140Y-68649984D01*
X169935389Y-68352903D01*
X169749989Y-68167179D01*
X169645521Y-67701821D01*
X169645520Y-67701819D01*
X169645520Y-67701816D01*
X169643383Y-67692297D01*
X169639866Y-67684361D01*
X169639373Y-67676837D01*
X169637002Y-67672029D01*
X169637002Y-67661252D01*
X169795750Y-67820000D01*
X170036309Y-67820000D01*
X170269698Y-67723327D01*
X170448327Y-67544699D01*
X170545000Y-67311310D01*
X170545000Y-67177504D01*
X170761707Y-67394590D01*
X171058574Y-67517860D01*
X171380016Y-67518140D01*
X171677097Y-67395389D01*
X171904590Y-67168293D01*
X172027860Y-66871426D01*
X172028140Y-66549984D01*
X171905389Y-66252903D01*
X171678293Y-66025410D01*
X171533967Y-65965480D01*
X171497828Y-65898121D01*
X175281484Y-65898121D01*
X175506154Y-66272168D01*
X176489388Y-66670880D01*
X177550357Y-66662975D01*
X178493846Y-66272168D01*
X178718516Y-65898121D01*
X177000000Y-64179605D01*
X175281484Y-65898121D01*
X171497828Y-65898121D01*
X170205502Y-63489388D01*
X174329120Y-63489388D01*
X174337025Y-64550357D01*
X174727832Y-65493846D01*
X175101879Y-65718516D01*
X176820395Y-64000000D01*
X175101879Y-62281484D01*
X174727832Y-62506154D01*
X174329120Y-63489388D01*
X170205502Y-63489388D01*
X169863957Y-62852793D01*
X169824474Y-62804836D01*
X169795069Y-62750114D01*
X169747277Y-62711068D01*
X169708053Y-62663426D01*
X169653222Y-62634228D01*
X169605115Y-62594925D01*
X169546022Y-62577142D01*
X169491550Y-62548135D01*
X169429717Y-62542143D01*
X169370233Y-62524242D01*
X167500233Y-62344242D01*
X167446337Y-62349671D01*
X167392560Y-62343142D01*
X167325473Y-62361845D01*
X167256181Y-62368825D01*
X167208464Y-62394467D01*
X167156283Y-62409014D01*
X165973807Y-63007048D01*
X165709109Y-63007048D01*
X165128099Y-62476561D01*
X165128140Y-62429984D01*
X165005389Y-62132903D01*
X164778293Y-61905410D01*
X164481426Y-61782140D01*
X164159984Y-61781860D01*
X163862903Y-61904611D01*
X163635410Y-62131707D01*
X163512140Y-62428574D01*
X163511860Y-62750016D01*
X163618063Y-63007048D01*
X163049750Y-63007048D01*
X162967234Y-62975772D01*
X162945389Y-62922903D01*
X162718293Y-62695410D01*
X162421426Y-62572140D01*
X162099984Y-62571860D01*
X161802903Y-62694611D01*
X161575410Y-62921707D01*
X161452140Y-63218574D01*
X161451860Y-63540016D01*
X161574611Y-63837097D01*
X161801707Y-64064590D01*
X162098574Y-64187860D01*
X162401509Y-64188124D01*
X162335000Y-64348690D01*
X162335000Y-64514250D01*
X162493750Y-64673000D01*
X162871474Y-64673000D01*
X162970000Y-64692952D01*
X163647000Y-64692952D01*
X163647000Y-64927000D01*
X163627000Y-64927000D01*
X163627000Y-65623000D01*
X163647000Y-65623000D01*
X163647000Y-65877000D01*
X163627000Y-65877000D01*
X163627000Y-65897000D01*
X163373000Y-65897000D01*
X163373000Y-65877000D01*
X162493750Y-65877000D01*
X162335000Y-66035750D01*
X162335000Y-66201310D01*
X162431673Y-66434699D01*
X162610302Y-66613327D01*
X162782557Y-66684677D01*
X162715410Y-66751707D01*
X162592140Y-67048574D01*
X162591860Y-67370016D01*
X162714611Y-67667097D01*
X162941707Y-67894590D01*
X163238574Y-68017860D01*
X163560016Y-68018140D01*
X163841618Y-67901785D01*
X163842452Y-67901735D01*
X163859735Y-67906637D01*
X164522122Y-67959770D01*
X164521860Y-68260016D01*
X164644611Y-68557097D01*
X164645824Y-68558312D01*
X164627282Y-68723131D01*
X164498194Y-68748808D01*
X164369721Y-68834651D01*
X164291426Y-68802140D01*
X163969984Y-68801860D01*
X163672903Y-68924611D01*
X163445410Y-69151707D01*
X163402196Y-69255778D01*
X163126135Y-69098029D01*
X161102702Y-65085750D01*
X162335000Y-65085750D01*
X162335000Y-65251310D01*
X162344813Y-65275000D01*
X162335000Y-65298690D01*
X162335000Y-65464250D01*
X162493750Y-65623000D01*
X162569975Y-65623000D01*
X162610302Y-65663327D01*
X162843691Y-65760000D01*
X163214250Y-65760000D01*
X163351250Y-65623000D01*
X163373000Y-65623000D01*
X163373000Y-64927000D01*
X163351250Y-64927000D01*
X163214250Y-64790000D01*
X162843691Y-64790000D01*
X162610302Y-64886673D01*
X162569975Y-64927000D01*
X162493750Y-64927000D01*
X162335000Y-65085750D01*
X161102702Y-65085750D01*
X160871311Y-64626925D01*
X160818757Y-64559690D01*
X160774696Y-64486611D01*
X159134696Y-62686611D01*
X159044943Y-62620408D01*
X158957628Y-62551009D01*
X158946562Y-62547840D01*
X158937299Y-62541008D01*
X158829034Y-62514189D01*
X158721817Y-62483489D01*
X158689187Y-62480790D01*
X158664962Y-62444534D01*
X158768981Y-62354376D01*
X158934781Y-62012181D01*
X158806723Y-61857000D01*
X157467000Y-61857000D01*
X157467000Y-61877000D01*
X157213000Y-61877000D01*
X157213000Y-61857000D01*
X155873277Y-61857000D01*
X155745219Y-62012181D01*
X155911019Y-62354376D01*
X156015038Y-62444534D01*
X155869671Y-62662091D01*
X155802457Y-63000000D01*
X155869671Y-63337909D01*
X156061082Y-63624375D01*
X156076983Y-63635000D01*
X156061082Y-63645625D01*
X155869671Y-63932091D01*
X155802457Y-64270000D01*
X155869671Y-64607909D01*
X156061082Y-64894375D01*
X156076983Y-64905000D01*
X156061082Y-64915625D01*
X156016430Y-64982451D01*
X155835838Y-64992279D01*
X155822110Y-64995795D01*
X155808005Y-64994414D01*
X155703770Y-65026102D01*
X155598220Y-65053134D01*
X155586880Y-65061638D01*
X155573323Y-65065759D01*
X155489152Y-65134921D01*
X155401978Y-65200290D01*
X155394756Y-65212484D01*
X155383807Y-65221481D01*
X154883807Y-65831481D01*
X154837630Y-65917998D01*
X154784713Y-66000566D01*
X154780244Y-66025516D01*
X154768310Y-66047875D01*
X154758756Y-66145478D01*
X154741465Y-66242010D01*
X154818474Y-70272137D01*
X154499984Y-70271860D01*
X154202903Y-70394611D01*
X154058304Y-70538957D01*
X151865059Y-70886963D01*
X150835000Y-71004495D01*
X150835000Y-69535750D01*
X150676250Y-69377000D01*
X148327000Y-69377000D01*
X148327000Y-69397000D01*
X148073000Y-69397000D01*
X148073000Y-69377000D01*
X145723750Y-69377000D01*
X145565000Y-69535750D01*
X145565000Y-71376310D01*
X145655774Y-71595458D01*
X144078732Y-71775403D01*
X144023428Y-71793116D01*
X143965656Y-71798986D01*
X143766957Y-71859931D01*
X143807860Y-71761426D01*
X143808140Y-71439984D01*
X143685389Y-71142903D01*
X143494893Y-70952074D01*
X142605686Y-67123690D01*
X145565000Y-67123690D01*
X145565000Y-68964250D01*
X145723750Y-69123000D01*
X148073000Y-69123000D01*
X148073000Y-66773750D01*
X148327000Y-66773750D01*
X148327000Y-69123000D01*
X150676250Y-69123000D01*
X150835000Y-68964250D01*
X150835000Y-67123690D01*
X150738327Y-66890301D01*
X150559698Y-66711673D01*
X150326309Y-66615000D01*
X148485750Y-66615000D01*
X148327000Y-66773750D01*
X148073000Y-66773750D01*
X147914250Y-66615000D01*
X146073691Y-66615000D01*
X145840302Y-66711673D01*
X145661673Y-66890301D01*
X145565000Y-67123690D01*
X142605686Y-67123690D01*
X141942349Y-64267771D01*
X141928893Y-64238005D01*
X141924504Y-64205634D01*
X141878754Y-64127093D01*
X141841309Y-64044262D01*
X141817484Y-64021909D01*
X141801043Y-63993684D01*
X141728720Y-63938630D01*
X141662426Y-63876432D01*
X141631862Y-63864899D01*
X141605870Y-63845113D01*
X141517980Y-63821926D01*
X141432934Y-63789834D01*
X141400284Y-63790875D01*
X141368698Y-63782542D01*
X141269396Y-63776418D01*
X141417097Y-63715389D01*
X141644590Y-63488293D01*
X141767860Y-63191426D01*
X141768140Y-62869984D01*
X141645389Y-62572903D01*
X141418293Y-62345410D01*
X141127000Y-62224455D01*
X141127000Y-61583000D01*
X155856773Y-61583000D01*
X155873277Y-61603000D01*
X155873277Y-61603000D01*
G37*
X155873277Y-61603000D02*
X157213000Y-61603000D01*
X157213000Y-61583000D01*
X157467000Y-61583000D01*
X157467000Y-61603000D01*
X158806723Y-61603000D01*
X158823227Y-61583000D01*
X175855808Y-61583000D01*
X175506154Y-61727832D01*
X175281484Y-62101879D01*
X177000000Y-63820395D01*
X178718516Y-62101879D01*
X178493846Y-61727832D01*
X178136687Y-61583000D01*
X179417000Y-61583000D01*
X179417000Y-62855808D01*
X179272168Y-62506154D01*
X178898121Y-62281484D01*
X177179605Y-64000000D01*
X178898121Y-65718516D01*
X179272168Y-65493846D01*
X179417000Y-65136687D01*
X179417000Y-100855808D01*
X179272168Y-100506154D01*
X178898121Y-100281484D01*
X177179605Y-102000000D01*
X178898121Y-103718516D01*
X179272168Y-103493846D01*
X179417000Y-103136687D01*
X179417000Y-104417000D01*
X178144192Y-104417000D01*
X178493846Y-104272168D01*
X178718516Y-103898121D01*
X177000000Y-102179605D01*
X175281484Y-103898121D01*
X175506154Y-104272168D01*
X175863313Y-104417000D01*
X149904800Y-104417000D01*
X149990000Y-104211309D01*
X149990000Y-104009985D01*
X149995624Y-104013286D01*
X150087391Y-104028462D01*
X150278000Y-103903731D01*
X150278000Y-102712000D01*
X150532000Y-102712000D01*
X150532000Y-103903731D01*
X150722609Y-104028462D01*
X150814376Y-104013286D01*
X151234125Y-103766933D01*
X151527647Y-103378701D01*
X151650256Y-102907696D01*
X151487547Y-102712000D01*
X150532000Y-102712000D01*
X150278000Y-102712000D01*
X150258000Y-102712000D01*
X150258000Y-102458000D01*
X150278000Y-102458000D01*
X150278000Y-101266269D01*
X150532000Y-101266269D01*
X150532000Y-102458000D01*
X151487547Y-102458000D01*
X151650256Y-102262304D01*
X151527647Y-101791299D01*
X151234125Y-101403067D01*
X150814376Y-101156714D01*
X150722609Y-101141538D01*
X150532000Y-101266269D01*
X150278000Y-101266269D01*
X150087391Y-101141538D01*
X149995624Y-101156714D01*
X149887940Y-101219915D01*
X149714699Y-101046673D01*
X149609802Y-101003223D01*
X149712604Y-100900421D01*
X149756474Y-100924006D01*
X149795256Y-100928803D01*
X149978000Y-100803361D01*
X149978000Y-99712000D01*
X150232000Y-99712000D01*
X150232000Y-100803361D01*
X150414744Y-100928803D01*
X150453526Y-100924006D01*
X150862875Y-100703929D01*
X151156844Y-100343954D01*
X151290680Y-99898883D01*
X151135148Y-99712000D01*
X150232000Y-99712000D01*
X149978000Y-99712000D01*
X149958000Y-99712000D01*
X149958000Y-99458000D01*
X149978000Y-99458000D01*
X149978000Y-98366639D01*
X150232000Y-98366639D01*
X150232000Y-99458000D01*
X151135148Y-99458000D01*
X151290680Y-99271117D01*
X151156844Y-98826046D01*
X150862875Y-98466071D01*
X150786482Y-98425000D01*
X154946350Y-98425000D01*
X154946350Y-99060000D01*
X154994203Y-99300574D01*
X155130477Y-99504523D01*
X155334426Y-99640797D01*
X155575000Y-99688650D01*
X156210000Y-99688650D01*
X156450574Y-99640797D01*
X156654523Y-99504523D01*
X157289520Y-98869525D01*
X157289523Y-98869523D01*
X157425797Y-98665574D01*
X157440501Y-98591652D01*
X157473651Y-98425000D01*
X157473650Y-98424995D01*
X157473650Y-98418650D01*
X157479995Y-98418650D01*
X157480000Y-98418651D01*
X157684295Y-98378014D01*
X157536516Y-98733904D01*
X157535706Y-99662024D01*
X157890134Y-100519806D01*
X158545842Y-101176659D01*
X159403004Y-101532584D01*
X160331124Y-101533394D01*
X161188906Y-101178966D01*
X161845759Y-100523258D01*
X162201684Y-99666096D01*
X162201687Y-99662024D01*
X169405126Y-99662024D01*
X169759554Y-100519806D01*
X170415262Y-101176659D01*
X171272424Y-101532584D01*
X172200544Y-101533394D01*
X172307046Y-101489388D01*
X174329120Y-101489388D01*
X174337025Y-102550357D01*
X174727832Y-103493846D01*
X175101879Y-103718516D01*
X176820395Y-102000000D01*
X175101879Y-100281484D01*
X174727832Y-100506154D01*
X174329120Y-101489388D01*
X172307046Y-101489388D01*
X173058326Y-101178966D01*
X173715179Y-100523258D01*
X173890150Y-100101879D01*
X175281484Y-100101879D01*
X177000000Y-101820395D01*
X178718516Y-100101879D01*
X178493846Y-99727832D01*
X177510612Y-99329120D01*
X176449643Y-99337025D01*
X175506154Y-99727832D01*
X175281484Y-100101879D01*
X173890150Y-100101879D01*
X174071104Y-99666096D01*
X174071914Y-98737976D01*
X173717486Y-97880194D01*
X173061778Y-97223341D01*
X172204616Y-96867416D01*
X171276496Y-96866606D01*
X170418714Y-97221034D01*
X169761861Y-97876742D01*
X169405936Y-98733904D01*
X169405126Y-99662024D01*
X162201687Y-99662024D01*
X162202494Y-98737976D01*
X161848066Y-97880194D01*
X161192358Y-97223341D01*
X160335196Y-96867416D01*
X159407076Y-96866606D01*
X158549294Y-97221034D01*
X158087227Y-97682296D01*
X158060797Y-97549426D01*
X158034895Y-97510661D01*
X157924523Y-97345477D01*
X157924520Y-97345475D01*
X157289523Y-96710477D01*
X157174693Y-96633750D01*
X174515000Y-96633750D01*
X174515000Y-96726309D01*
X174611673Y-96959698D01*
X174790301Y-97138327D01*
X175023690Y-97235000D01*
X175314250Y-97235000D01*
X175473000Y-97076250D01*
X175473000Y-96475000D01*
X175727000Y-96475000D01*
X175727000Y-97076250D01*
X175885750Y-97235000D01*
X176176310Y-97235000D01*
X176409699Y-97138327D01*
X176588327Y-96959698D01*
X176685000Y-96726309D01*
X176685000Y-96633750D01*
X176715000Y-96633750D01*
X176715000Y-96726309D01*
X176811673Y-96959698D01*
X176990301Y-97138327D01*
X177223690Y-97235000D01*
X177514250Y-97235000D01*
X177673000Y-97076250D01*
X177673000Y-96475000D01*
X177927000Y-96475000D01*
X177927000Y-97076250D01*
X178085750Y-97235000D01*
X178376310Y-97235000D01*
X178609699Y-97138327D01*
X178788327Y-96959698D01*
X178885000Y-96726309D01*
X178885000Y-96633750D01*
X178726250Y-96475000D01*
X177927000Y-96475000D01*
X177673000Y-96475000D01*
X176873750Y-96475000D01*
X176715000Y-96633750D01*
X176685000Y-96633750D01*
X176526250Y-96475000D01*
X175727000Y-96475000D01*
X175473000Y-96475000D01*
X174673750Y-96475000D01*
X174515000Y-96633750D01*
X157174693Y-96633750D01*
X157085574Y-96574203D01*
X156845000Y-96526350D01*
X156604426Y-96574203D01*
X156400477Y-96710477D01*
X156264203Y-96914426D01*
X156216350Y-97155000D01*
X156216350Y-97161350D01*
X156210005Y-97161350D01*
X156210000Y-97161349D01*
X155969426Y-97209203D01*
X155765477Y-97345477D01*
X155765475Y-97345480D01*
X155130477Y-97980477D01*
X154994203Y-98184426D01*
X154946350Y-98425000D01*
X150786482Y-98425000D01*
X150453526Y-98245994D01*
X150414744Y-98241197D01*
X150232000Y-98366639D01*
X149978000Y-98366639D01*
X149795256Y-98241197D01*
X149756474Y-98245994D01*
X149550017Y-98356991D01*
X149539699Y-98346673D01*
X149306310Y-98250000D01*
X149238750Y-98250000D01*
X149080000Y-98408750D01*
X149080000Y-98793175D01*
X149053156Y-98826046D01*
X149043132Y-98859382D01*
X149012530Y-98696747D01*
X148901272Y-98523847D01*
X148880000Y-98509312D01*
X148880000Y-98408750D01*
X148721250Y-98250000D01*
X148653690Y-98250000D01*
X148420301Y-98346673D01*
X148399926Y-98367048D01*
X148314100Y-98367048D01*
X148314100Y-97608013D01*
X148421731Y-97608107D01*
X148524611Y-97857097D01*
X148751707Y-98084590D01*
X149048574Y-98207860D01*
X149370016Y-98208140D01*
X149667097Y-98085389D01*
X149734982Y-98017623D01*
X152619786Y-97956244D01*
X152693728Y-98071153D01*
X152863488Y-98187145D01*
X153065000Y-98227952D01*
X153815000Y-98227952D01*
X154003253Y-98192530D01*
X154176153Y-98081272D01*
X154292145Y-97911512D01*
X154332952Y-97710000D01*
X154332952Y-96910000D01*
X154297530Y-96721747D01*
X154259844Y-96663181D01*
X154353327Y-96569698D01*
X154450000Y-96336309D01*
X154450000Y-96095750D01*
X154291250Y-95937000D01*
X153567000Y-95937000D01*
X153567000Y-95957000D01*
X153313000Y-95957000D01*
X153313000Y-95937000D01*
X152588750Y-95937000D01*
X152430000Y-96095750D01*
X152430000Y-96336309D01*
X152526673Y-96569698D01*
X152619357Y-96662383D01*
X152594199Y-96699203D01*
X150743804Y-96738573D01*
X151906483Y-95558076D01*
X151980016Y-95558140D01*
X152277097Y-95435389D01*
X152430663Y-95282091D01*
X152430000Y-95283691D01*
X152430000Y-95524250D01*
X152588750Y-95683000D01*
X153313000Y-95683000D01*
X153313000Y-94933750D01*
X153567000Y-94933750D01*
X153567000Y-95683000D01*
X154291250Y-95683000D01*
X154450000Y-95524250D01*
X154450000Y-95283691D01*
X154353327Y-95050302D01*
X154174699Y-94871673D01*
X153941310Y-94775000D01*
X153725750Y-94775000D01*
X153567000Y-94933750D01*
X153313000Y-94933750D01*
X153154250Y-94775000D01*
X152938690Y-94775000D01*
X152705301Y-94871673D01*
X152601098Y-94975877D01*
X152627860Y-94911426D01*
X152628090Y-94647952D01*
X153125000Y-94647952D01*
X153313253Y-94612530D01*
X153486153Y-94501272D01*
X153602145Y-94331512D01*
X153642952Y-94130000D01*
X153642952Y-93330000D01*
X153607530Y-93141747D01*
X153569844Y-93083181D01*
X153663327Y-92989698D01*
X153760000Y-92756309D01*
X153760000Y-92515750D01*
X153601250Y-92357000D01*
X152877000Y-92357000D01*
X152877000Y-92377000D01*
X152623000Y-92377000D01*
X152623000Y-92357000D01*
X151898750Y-92357000D01*
X151740000Y-92515750D01*
X151740000Y-92559681D01*
X151601426Y-92502140D01*
X151279984Y-92501860D01*
X150982903Y-92624611D01*
X150916236Y-92691162D01*
X150913445Y-92676329D01*
X150932952Y-92580000D01*
X150932952Y-92280000D01*
X150913445Y-92176329D01*
X150932952Y-92080000D01*
X150932952Y-91780000D01*
X150918594Y-91703691D01*
X151740000Y-91703691D01*
X151740000Y-91944250D01*
X151898750Y-92103000D01*
X152623000Y-92103000D01*
X152623000Y-91353750D01*
X152877000Y-91353750D01*
X152877000Y-92103000D01*
X153601250Y-92103000D01*
X153760000Y-91944250D01*
X153760000Y-91703691D01*
X153663327Y-91470302D01*
X153484699Y-91291673D01*
X153251310Y-91195000D01*
X153035750Y-91195000D01*
X152877000Y-91353750D01*
X152623000Y-91353750D01*
X152464250Y-91195000D01*
X152248690Y-91195000D01*
X152015301Y-91291673D01*
X151836673Y-91470302D01*
X151740000Y-91703691D01*
X150918594Y-91703691D01*
X150903157Y-91621653D01*
X150941279Y-91430000D01*
X150891192Y-91178194D01*
X150748555Y-90964724D01*
X150535085Y-90822087D01*
X150283279Y-90772000D01*
X149948000Y-90772000D01*
X149948000Y-90436721D01*
X149897913Y-90184915D01*
X149755276Y-89971445D01*
X149679276Y-89920663D01*
X150954394Y-89463466D01*
X151100000Y-89492952D01*
X151900000Y-89492952D01*
X152088253Y-89457530D01*
X152146819Y-89419844D01*
X152240302Y-89513327D01*
X152473691Y-89610000D01*
X152714250Y-89610000D01*
X152873000Y-89451250D01*
X152873000Y-88727000D01*
X153127000Y-88727000D01*
X153127000Y-89451250D01*
X153285750Y-89610000D01*
X153526309Y-89610000D01*
X153759698Y-89513327D01*
X153938327Y-89334699D01*
X154035000Y-89101310D01*
X154035000Y-88885750D01*
X153876250Y-88727000D01*
X153127000Y-88727000D01*
X152873000Y-88727000D01*
X152853000Y-88727000D01*
X152853000Y-88473000D01*
X152873000Y-88473000D01*
X152873000Y-87748750D01*
X153127000Y-87748750D01*
X153127000Y-88473000D01*
X153876250Y-88473000D01*
X154035000Y-88314250D01*
X154035000Y-88098690D01*
X153938327Y-87865301D01*
X153759698Y-87686673D01*
X153526309Y-87590000D01*
X153285750Y-87590000D01*
X153127000Y-87748750D01*
X152873000Y-87748750D01*
X152714250Y-87590000D01*
X152473691Y-87590000D01*
X152240302Y-87686673D01*
X152147617Y-87779357D01*
X152101512Y-87747855D01*
X151900000Y-87707048D01*
X151100000Y-87707048D01*
X150911747Y-87742470D01*
X150738847Y-87853728D01*
X150622855Y-88023488D01*
X150582048Y-88225000D01*
X150582048Y-88261296D01*
X149617952Y-88606975D01*
X149617952Y-88163362D01*
X150681351Y-86255111D01*
X151008102Y-85668762D01*
X151200050Y-85668762D01*
X151388303Y-85633340D01*
X151561203Y-85522082D01*
X151677195Y-85352322D01*
X151718002Y-85150810D01*
X151718002Y-84833750D01*
X152315000Y-84833750D01*
X152315000Y-84926309D01*
X152411673Y-85159698D01*
X152590301Y-85338327D01*
X152823690Y-85435000D01*
X153114250Y-85435000D01*
X153273000Y-85276250D01*
X153273000Y-84675000D01*
X153527000Y-84675000D01*
X153527000Y-85276250D01*
X153685750Y-85435000D01*
X153976310Y-85435000D01*
X154209699Y-85338327D01*
X154388327Y-85159698D01*
X154485000Y-84926309D01*
X154485000Y-84833750D01*
X154326250Y-84675000D01*
X153527000Y-84675000D01*
X153273000Y-84675000D01*
X152473750Y-84675000D01*
X152315000Y-84833750D01*
X151718002Y-84833750D01*
X151718002Y-84350710D01*
X151682580Y-84162457D01*
X151571322Y-83989557D01*
X151401562Y-83873565D01*
X151200050Y-83832758D01*
X150399950Y-83832758D01*
X150211697Y-83868180D01*
X150038797Y-83979438D01*
X149922805Y-84149198D01*
X149881998Y-84350710D01*
X149881998Y-84732080D01*
X149818002Y-84732024D01*
X149818002Y-84350710D01*
X149782580Y-84162457D01*
X149671322Y-83989557D01*
X149501562Y-83873565D01*
X149300050Y-83832758D01*
X148499950Y-83832758D01*
X148311697Y-83868180D01*
X148138797Y-83979438D01*
X148100694Y-84035203D01*
X148071322Y-83989557D01*
X147901562Y-83873565D01*
X147700050Y-83832758D01*
X146899950Y-83832758D01*
X146711697Y-83868180D01*
X146538797Y-83979438D01*
X146422805Y-84149198D01*
X146381998Y-84350710D01*
X146381998Y-85150810D01*
X146402080Y-85257536D01*
X146318002Y-85106660D01*
X146318002Y-84350710D01*
X146282580Y-84162457D01*
X146171322Y-83989557D01*
X146001562Y-83873565D01*
X145800050Y-83832758D01*
X144999950Y-83832758D01*
X144880502Y-83855234D01*
X144679945Y-82737232D01*
X144777860Y-82501426D01*
X144777893Y-82463650D01*
X145431998Y-82897370D01*
X145431998Y-83151830D01*
X145467420Y-83340083D01*
X145578678Y-83512983D01*
X145748438Y-83628975D01*
X145949950Y-83669782D01*
X146750050Y-83669782D01*
X146938303Y-83634360D01*
X147111203Y-83523102D01*
X147227195Y-83353342D01*
X147268002Y-83151830D01*
X147268002Y-82351730D01*
X147232580Y-82163477D01*
X147121322Y-81990577D01*
X146951562Y-81874585D01*
X146750050Y-81833778D01*
X146103106Y-81833778D01*
X145466087Y-81411388D01*
X145649375Y-81288918D01*
X145660000Y-81273017D01*
X145670625Y-81288918D01*
X145957091Y-81480329D01*
X146295000Y-81547543D01*
X146632909Y-81480329D01*
X146919375Y-81288918D01*
X146930000Y-81273017D01*
X146940625Y-81288918D01*
X147227091Y-81480329D01*
X147565000Y-81547543D01*
X147902909Y-81480329D01*
X148189375Y-81288918D01*
X148200000Y-81273017D01*
X148210625Y-81288918D01*
X148497091Y-81480329D01*
X148835000Y-81547543D01*
X149172909Y-81480329D01*
X149459375Y-81288918D01*
X149470000Y-81273017D01*
X149480625Y-81288918D01*
X149767091Y-81480329D01*
X150105000Y-81547543D01*
X150442909Y-81480329D01*
X150729375Y-81288918D01*
X150740000Y-81273017D01*
X150750625Y-81288918D01*
X151037091Y-81480329D01*
X151375000Y-81547543D01*
X151712909Y-81480329D01*
X151999375Y-81288918D01*
X152010000Y-81273017D01*
X152020625Y-81288918D01*
X152132187Y-81363462D01*
X150476795Y-81891826D01*
X150451562Y-81874585D01*
X150250050Y-81833778D01*
X149449950Y-81833778D01*
X149261697Y-81869200D01*
X149088797Y-81980458D01*
X148972805Y-82150218D01*
X148931998Y-82351730D01*
X148931998Y-83151830D01*
X148967420Y-83340083D01*
X149078678Y-83512983D01*
X149248438Y-83628975D01*
X149449950Y-83669782D01*
X150250050Y-83669782D01*
X150438303Y-83634360D01*
X150611203Y-83523102D01*
X150727195Y-83353342D01*
X150768002Y-83151830D01*
X150768002Y-83118669D01*
X151425224Y-82908899D01*
X151392140Y-82988574D01*
X151391860Y-83310016D01*
X151514611Y-83607097D01*
X151741707Y-83834590D01*
X152038574Y-83957860D01*
X152360016Y-83958140D01*
X152417648Y-83934327D01*
X152411673Y-83940302D01*
X152315000Y-84173691D01*
X152315000Y-84266250D01*
X152473750Y-84425000D01*
X153273000Y-84425000D01*
X153273000Y-84403000D01*
X153527000Y-84403000D01*
X153527000Y-84425000D01*
X154326250Y-84425000D01*
X154485000Y-84266250D01*
X154485000Y-84173691D01*
X154388327Y-83940302D01*
X154209699Y-83761673D01*
X154125114Y-83726637D01*
X154211153Y-83671272D01*
X154327145Y-83501512D01*
X154367952Y-83300000D01*
X154367952Y-82800000D01*
X154332530Y-82611747D01*
X154221272Y-82438847D01*
X154051512Y-82322855D01*
X153850000Y-82282048D01*
X153818495Y-82282048D01*
X154762094Y-82097154D01*
X154692855Y-82198488D01*
X154652048Y-82400000D01*
X154652048Y-82800000D01*
X154687470Y-82988253D01*
X154693474Y-82997583D01*
X154692855Y-82998488D01*
X154652048Y-83200000D01*
X154652048Y-83600000D01*
X154687470Y-83788253D01*
X154693474Y-83797583D01*
X154692855Y-83798488D01*
X154652048Y-84000000D01*
X154652048Y-84400000D01*
X154687470Y-84588253D01*
X154693474Y-84597583D01*
X154692855Y-84598488D01*
X154652048Y-84800000D01*
X154652048Y-85200000D01*
X154687470Y-85388253D01*
X154798728Y-85561153D01*
X154968488Y-85677145D01*
X155170000Y-85717952D01*
X156170000Y-85717952D01*
X156358253Y-85682530D01*
X156531153Y-85571272D01*
X156600207Y-85470208D01*
X156658728Y-85561153D01*
X156828488Y-85677145D01*
X157030000Y-85717952D01*
X158030000Y-85717952D01*
X158152062Y-85694985D01*
X158156550Y-85695440D01*
X158210646Y-85690272D01*
X158264564Y-85697069D01*
X158331568Y-85678720D01*
X158400725Y-85672113D01*
X158448728Y-85646636D01*
X158501141Y-85632282D01*
X159261141Y-85252282D01*
X159274909Y-85241596D01*
X159291438Y-85236083D01*
X169531438Y-79396084D01*
X169539486Y-79389101D01*
X169549472Y-79385396D01*
X169631840Y-79308969D01*
X169716708Y-79235333D01*
X169721470Y-79225805D01*
X169729280Y-79218558D01*
X170279280Y-78458558D01*
X170303143Y-78406539D01*
X170337390Y-78360684D01*
X170353788Y-78296138D01*
X170381554Y-78235610D01*
X170383694Y-78178420D01*
X170397786Y-78122949D01*
X170404341Y-77998047D01*
X170523653Y-77921272D01*
X170639645Y-77751512D01*
X170680452Y-77550000D01*
X170680452Y-75772000D01*
X170645030Y-75583747D01*
X170533772Y-75410847D01*
X170364012Y-75294855D01*
X170162500Y-75254048D01*
X169989497Y-75254048D01*
X169650456Y-74953534D01*
X170182122Y-74963472D01*
X170348488Y-75077145D01*
X170550000Y-75117952D01*
X171450000Y-75117952D01*
X171638253Y-75082530D01*
X171811153Y-74971272D01*
X171927145Y-74801512D01*
X171958667Y-74645852D01*
X172369672Y-75212935D01*
X173234009Y-81263289D01*
X173256024Y-81632048D01*
X173000000Y-81632048D01*
X172811747Y-81667470D01*
X172638847Y-81778728D01*
X172522855Y-81948488D01*
X172522255Y-81951451D01*
X172156984Y-81941579D01*
X172107385Y-81950059D01*
X172057174Y-81946830D01*
X164157174Y-82996830D01*
X164044733Y-83035154D01*
X163931797Y-83072084D01*
X162331797Y-83972084D01*
X162329460Y-83974088D01*
X162326542Y-83975073D01*
X162236436Y-84053841D01*
X162145579Y-84131736D01*
X162144186Y-84134483D01*
X162141868Y-84136509D01*
X162088774Y-84243741D01*
X162034632Y-84350497D01*
X162034396Y-84353568D01*
X162033030Y-84356327D01*
X161953287Y-84652048D01*
X161907500Y-84652048D01*
X161719247Y-84687470D01*
X161588893Y-84771350D01*
X161474012Y-84692855D01*
X161272500Y-84652048D01*
X160637500Y-84652048D01*
X160449247Y-84687470D01*
X160276347Y-84798728D01*
X160160355Y-84968488D01*
X160119548Y-85170000D01*
X160119548Y-86948000D01*
X160154970Y-87136253D01*
X160266228Y-87309153D01*
X160404460Y-87403603D01*
X160650543Y-91581478D01*
X160604430Y-91581478D01*
X160416177Y-91616900D01*
X160243277Y-91728158D01*
X160127285Y-91897918D01*
X160086478Y-92099430D01*
X160086478Y-93600570D01*
X160121900Y-93788823D01*
X160233158Y-93961723D01*
X160402918Y-94077715D01*
X160604430Y-94118522D01*
X162105570Y-94118522D01*
X162293823Y-94083100D01*
X162466723Y-93971842D01*
X162582715Y-93802082D01*
X162623522Y-93600570D01*
X162623522Y-92099430D01*
X162588100Y-91911177D01*
X162476842Y-91738277D01*
X162307082Y-91622285D01*
X162105570Y-91581478D01*
X161910021Y-91581478D01*
X161897110Y-91362282D01*
X161911146Y-91376342D01*
X162373557Y-91568351D01*
X162874247Y-91568788D01*
X163336991Y-91377586D01*
X163691342Y-91023854D01*
X163883351Y-90561443D01*
X163883788Y-90060753D01*
X163692586Y-89598009D01*
X163460065Y-89365081D01*
X163850188Y-87458861D01*
X164000753Y-87430530D01*
X164131107Y-87346650D01*
X164245988Y-87425145D01*
X164447500Y-87465952D01*
X165082500Y-87465952D01*
X165270753Y-87430530D01*
X165401107Y-87346650D01*
X165515988Y-87425145D01*
X165717500Y-87465952D01*
X166352500Y-87465952D01*
X166468907Y-87444049D01*
X166364432Y-88164442D01*
X166005248Y-89370274D01*
X165878854Y-89243658D01*
X165416443Y-89051649D01*
X164915753Y-89051212D01*
X164453009Y-89242414D01*
X164098658Y-89596146D01*
X163906649Y-90058557D01*
X163906212Y-90559247D01*
X164097414Y-91021991D01*
X164451146Y-91376342D01*
X164598130Y-91437375D01*
X164590272Y-91445525D01*
X164563829Y-91460182D01*
X164322275Y-91664660D01*
X164146443Y-91591649D01*
X163645753Y-91591212D01*
X163183009Y-91782414D01*
X162828658Y-92136146D01*
X162636649Y-92598557D01*
X162636212Y-93099247D01*
X162827414Y-93561991D01*
X163181146Y-93916342D01*
X163643557Y-94108351D01*
X164144247Y-94108788D01*
X164606991Y-93917586D01*
X164961342Y-93563854D01*
X165153351Y-93101443D01*
X165153782Y-92608074D01*
X165182950Y-92583383D01*
X165176649Y-92598557D01*
X165176212Y-93099247D01*
X165367414Y-93561991D01*
X165721146Y-93916342D01*
X166183557Y-94108351D01*
X166684247Y-94108788D01*
X167146991Y-93917586D01*
X167501342Y-93563854D01*
X167693351Y-93101443D01*
X167693352Y-93099247D01*
X167716212Y-93099247D01*
X167907414Y-93561991D01*
X168261146Y-93916342D01*
X168723557Y-94108351D01*
X169224247Y-94108788D01*
X169686991Y-93917586D01*
X170041342Y-93563854D01*
X170233351Y-93101443D01*
X170233788Y-92600753D01*
X170042586Y-92138009D01*
X169688854Y-91783658D01*
X169226443Y-91591649D01*
X168725753Y-91591212D01*
X168263009Y-91782414D01*
X167908658Y-92136146D01*
X167716649Y-92598557D01*
X167716212Y-93099247D01*
X167693352Y-93099247D01*
X167693788Y-92600753D01*
X167502586Y-92138009D01*
X167148854Y-91783658D01*
X166686443Y-91591649D01*
X166551848Y-91591532D01*
X166572101Y-91570525D01*
X166641810Y-91511566D01*
X166656597Y-91482887D01*
X166678992Y-91459659D01*
X166712382Y-91374694D01*
X166754219Y-91293552D01*
X166788692Y-91173534D01*
X166991146Y-91376342D01*
X167453557Y-91568351D01*
X167954247Y-91568788D01*
X168416991Y-91377586D01*
X168771342Y-91023854D01*
X168963351Y-90561443D01*
X168963352Y-90559247D01*
X168986212Y-90559247D01*
X169177414Y-91021991D01*
X169531146Y-91376342D01*
X169993557Y-91568351D01*
X170494247Y-91568788D01*
X170956991Y-91377586D01*
X171311342Y-91023854D01*
X171503351Y-90561443D01*
X171503788Y-90060753D01*
X171312586Y-89598009D01*
X170958854Y-89243658D01*
X170496443Y-89051649D01*
X169995753Y-89051212D01*
X169533009Y-89242414D01*
X169178658Y-89596146D01*
X168986649Y-90058557D01*
X168986212Y-90559247D01*
X168963352Y-90559247D01*
X168963788Y-90060753D01*
X168825071Y-89725033D01*
X170139672Y-87668598D01*
X170183571Y-87556230D01*
X170224166Y-87454349D01*
X170350753Y-87430530D01*
X170523653Y-87319272D01*
X170639645Y-87149512D01*
X170680452Y-86948000D01*
X170680452Y-85170000D01*
X170670452Y-85116856D01*
X171959534Y-84876519D01*
X172528630Y-84855596D01*
X172628728Y-85011153D01*
X172798488Y-85127145D01*
X173000000Y-85167952D01*
X173467123Y-85167952D01*
X173472467Y-85257465D01*
X173490383Y-85325920D01*
X173496606Y-85396397D01*
X174657798Y-89368434D01*
X174639407Y-89380268D01*
X174523415Y-89550028D01*
X174482608Y-89751540D01*
X174482608Y-90950420D01*
X174518030Y-91138673D01*
X174629288Y-91311573D01*
X174759867Y-91400794D01*
X174639407Y-91478308D01*
X174523415Y-91648068D01*
X174482608Y-91849580D01*
X174482608Y-93048460D01*
X174518030Y-93236713D01*
X174629288Y-93409613D01*
X174799048Y-93525605D01*
X174971350Y-93560497D01*
X174971350Y-94115663D01*
X174961747Y-94117470D01*
X174788847Y-94228728D01*
X174672855Y-94398488D01*
X174632048Y-94600000D01*
X174632048Y-95100000D01*
X174667470Y-95288253D01*
X174778728Y-95461153D01*
X174874687Y-95526719D01*
X174790301Y-95561673D01*
X174611673Y-95740302D01*
X174515000Y-95973691D01*
X174515000Y-96066250D01*
X174673750Y-96225000D01*
X175473000Y-96225000D01*
X175473000Y-96203000D01*
X175727000Y-96203000D01*
X175727000Y-96225000D01*
X176526250Y-96225000D01*
X176685000Y-96066250D01*
X176685000Y-95973691D01*
X176588327Y-95740302D01*
X176409699Y-95561673D01*
X176325114Y-95526637D01*
X176411153Y-95471272D01*
X176527145Y-95301512D01*
X176567952Y-95100000D01*
X176567952Y-94600000D01*
X176532530Y-94411747D01*
X176421272Y-94238847D01*
X176251512Y-94122855D01*
X176228650Y-94118225D01*
X176228650Y-93560916D01*
X176387693Y-93530990D01*
X176560593Y-93419732D01*
X176676585Y-93249972D01*
X176699361Y-93137498D01*
X176718030Y-93236713D01*
X176829288Y-93409613D01*
X176999048Y-93525605D01*
X177171350Y-93560497D01*
X177171350Y-94115663D01*
X177161747Y-94117470D01*
X176988847Y-94228728D01*
X176872855Y-94398488D01*
X176832048Y-94600000D01*
X176832048Y-95100000D01*
X176867470Y-95288253D01*
X176978728Y-95461153D01*
X177074687Y-95526719D01*
X176990301Y-95561673D01*
X176811673Y-95740302D01*
X176715000Y-95973691D01*
X176715000Y-96066250D01*
X176873750Y-96225000D01*
X177673000Y-96225000D01*
X177673000Y-96203000D01*
X177927000Y-96203000D01*
X177927000Y-96225000D01*
X178726250Y-96225000D01*
X178885000Y-96066250D01*
X178885000Y-95973691D01*
X178788327Y-95740302D01*
X178609699Y-95561673D01*
X178525114Y-95526637D01*
X178611153Y-95471272D01*
X178727145Y-95301512D01*
X178767952Y-95100000D01*
X178767952Y-94600000D01*
X178732530Y-94411747D01*
X178621272Y-94238847D01*
X178451512Y-94122855D01*
X178428650Y-94118225D01*
X178428650Y-93560916D01*
X178587693Y-93530990D01*
X178760593Y-93419732D01*
X178876585Y-93249972D01*
X178917392Y-93048460D01*
X178917392Y-91849580D01*
X178881970Y-91661327D01*
X178770712Y-91488427D01*
X178640133Y-91399206D01*
X178760593Y-91321692D01*
X178876585Y-91151932D01*
X178917392Y-90950420D01*
X178917392Y-89751540D01*
X178881970Y-89563287D01*
X178770712Y-89390387D01*
X178600952Y-89274395D01*
X178399440Y-89233588D01*
X178239286Y-89233588D01*
X177438650Y-84744382D01*
X177438650Y-84327000D01*
X177677000Y-84327000D01*
X177677000Y-85051250D01*
X177835750Y-85210000D01*
X178076309Y-85210000D01*
X178309698Y-85113327D01*
X178488327Y-84934699D01*
X178585000Y-84701310D01*
X178585000Y-84485750D01*
X178426250Y-84327000D01*
X177677000Y-84327000D01*
X177438650Y-84327000D01*
X177438650Y-82727000D01*
X177677000Y-82727000D01*
X177677000Y-84073000D01*
X178426250Y-84073000D01*
X178585000Y-83914250D01*
X178585000Y-83698690D01*
X178488327Y-83465301D01*
X178423026Y-83400000D01*
X178488327Y-83334699D01*
X178585000Y-83101310D01*
X178585000Y-82885750D01*
X178426250Y-82727000D01*
X177677000Y-82727000D01*
X177438650Y-82727000D01*
X177438650Y-81980000D01*
X177423000Y-81901322D01*
X177423000Y-81748750D01*
X177677000Y-81748750D01*
X177677000Y-82473000D01*
X178426250Y-82473000D01*
X178585000Y-82314250D01*
X178585000Y-82098690D01*
X178488327Y-81865301D01*
X178309698Y-81686673D01*
X178076309Y-81590000D01*
X177835750Y-81590000D01*
X177677000Y-81748750D01*
X177423000Y-81748750D01*
X177380026Y-81705776D01*
X174693249Y-74042018D01*
X174632072Y-73938449D01*
X174571683Y-73834409D01*
X173118420Y-72185000D01*
X173301310Y-72185000D01*
X173534699Y-72088327D01*
X173713327Y-71909698D01*
X173810000Y-71676309D01*
X173810000Y-71435750D01*
X173651250Y-71277000D01*
X172927000Y-71277000D01*
X172927000Y-71297000D01*
X172673000Y-71297000D01*
X172673000Y-71277000D01*
X171948750Y-71277000D01*
X171900000Y-71325750D01*
X171851250Y-71277000D01*
X171127000Y-71277000D01*
X171127000Y-71297000D01*
X170873000Y-71297000D01*
X170873000Y-71277000D01*
X170148750Y-71277000D01*
X170024064Y-71401686D01*
X169303580Y-71338195D01*
X169465742Y-71217971D01*
X169660016Y-71218140D01*
X169957097Y-71095389D01*
X170089233Y-70963483D01*
X170148750Y-71023000D01*
X170873000Y-71023000D01*
X170873000Y-71003000D01*
X171127000Y-71003000D01*
X171127000Y-71023000D01*
X171851250Y-71023000D01*
X171900000Y-70974250D01*
X171948750Y-71023000D01*
X172673000Y-71023000D01*
X172673000Y-71003000D01*
X172927000Y-71003000D01*
X172927000Y-71023000D01*
X173651250Y-71023000D01*
X173810000Y-70864250D01*
X173810000Y-70623691D01*
X173713327Y-70390302D01*
X173620643Y-70297617D01*
X173652145Y-70251512D01*
X173692952Y-70050000D01*
X173692952Y-69250000D01*
X173657530Y-69061747D01*
X173546272Y-68888847D01*
X173376512Y-68772855D01*
X173175000Y-68732048D01*
X172425000Y-68732048D01*
X172236747Y-68767470D01*
X172063847Y-68878728D01*
X171966398Y-69021350D01*
X171831535Y-69021350D01*
X171746272Y-68888847D01*
X171576512Y-68772855D01*
X171375000Y-68732048D01*
X170625000Y-68732048D01*
X170436747Y-68767470D01*
X170263847Y-68878728D01*
X170204433Y-68965684D01*
X170177782Y-68968987D01*
X170129646Y-68963370D01*
X170057862Y-68969138D01*
X170058140Y-68649984D01*
X169935389Y-68352903D01*
X169749989Y-68167179D01*
X169645521Y-67701821D01*
X169645520Y-67701819D01*
X169645520Y-67701816D01*
X169643383Y-67692297D01*
X169639866Y-67684361D01*
X169639373Y-67676837D01*
X169637002Y-67672029D01*
X169637002Y-67661252D01*
X169795750Y-67820000D01*
X170036309Y-67820000D01*
X170269698Y-67723327D01*
X170448327Y-67544699D01*
X170545000Y-67311310D01*
X170545000Y-67177504D01*
X170761707Y-67394590D01*
X171058574Y-67517860D01*
X171380016Y-67518140D01*
X171677097Y-67395389D01*
X171904590Y-67168293D01*
X172027860Y-66871426D01*
X172028140Y-66549984D01*
X171905389Y-66252903D01*
X171678293Y-66025410D01*
X171533967Y-65965480D01*
X171497828Y-65898121D01*
X175281484Y-65898121D01*
X175506154Y-66272168D01*
X176489388Y-66670880D01*
X177550357Y-66662975D01*
X178493846Y-66272168D01*
X178718516Y-65898121D01*
X177000000Y-64179605D01*
X175281484Y-65898121D01*
X171497828Y-65898121D01*
X170205502Y-63489388D01*
X174329120Y-63489388D01*
X174337025Y-64550357D01*
X174727832Y-65493846D01*
X175101879Y-65718516D01*
X176820395Y-64000000D01*
X175101879Y-62281484D01*
X174727832Y-62506154D01*
X174329120Y-63489388D01*
X170205502Y-63489388D01*
X169863957Y-62852793D01*
X169824474Y-62804836D01*
X169795069Y-62750114D01*
X169747277Y-62711068D01*
X169708053Y-62663426D01*
X169653222Y-62634228D01*
X169605115Y-62594925D01*
X169546022Y-62577142D01*
X169491550Y-62548135D01*
X169429717Y-62542143D01*
X169370233Y-62524242D01*
X167500233Y-62344242D01*
X167446337Y-62349671D01*
X167392560Y-62343142D01*
X167325473Y-62361845D01*
X167256181Y-62368825D01*
X167208464Y-62394467D01*
X167156283Y-62409014D01*
X165973807Y-63007048D01*
X165709109Y-63007048D01*
X165128099Y-62476561D01*
X165128140Y-62429984D01*
X165005389Y-62132903D01*
X164778293Y-61905410D01*
X164481426Y-61782140D01*
X164159984Y-61781860D01*
X163862903Y-61904611D01*
X163635410Y-62131707D01*
X163512140Y-62428574D01*
X163511860Y-62750016D01*
X163618063Y-63007048D01*
X163049750Y-63007048D01*
X162967234Y-62975772D01*
X162945389Y-62922903D01*
X162718293Y-62695410D01*
X162421426Y-62572140D01*
X162099984Y-62571860D01*
X161802903Y-62694611D01*
X161575410Y-62921707D01*
X161452140Y-63218574D01*
X161451860Y-63540016D01*
X161574611Y-63837097D01*
X161801707Y-64064590D01*
X162098574Y-64187860D01*
X162401509Y-64188124D01*
X162335000Y-64348690D01*
X162335000Y-64514250D01*
X162493750Y-64673000D01*
X162871474Y-64673000D01*
X162970000Y-64692952D01*
X163647000Y-64692952D01*
X163647000Y-64927000D01*
X163627000Y-64927000D01*
X163627000Y-65623000D01*
X163647000Y-65623000D01*
X163647000Y-65877000D01*
X163627000Y-65877000D01*
X163627000Y-65897000D01*
X163373000Y-65897000D01*
X163373000Y-65877000D01*
X162493750Y-65877000D01*
X162335000Y-66035750D01*
X162335000Y-66201310D01*
X162431673Y-66434699D01*
X162610302Y-66613327D01*
X162782557Y-66684677D01*
X162715410Y-66751707D01*
X162592140Y-67048574D01*
X162591860Y-67370016D01*
X162714611Y-67667097D01*
X162941707Y-67894590D01*
X163238574Y-68017860D01*
X163560016Y-68018140D01*
X163841618Y-67901785D01*
X163842452Y-67901735D01*
X163859735Y-67906637D01*
X164522122Y-67959770D01*
X164521860Y-68260016D01*
X164644611Y-68557097D01*
X164645824Y-68558312D01*
X164627282Y-68723131D01*
X164498194Y-68748808D01*
X164369721Y-68834651D01*
X164291426Y-68802140D01*
X163969984Y-68801860D01*
X163672903Y-68924611D01*
X163445410Y-69151707D01*
X163402196Y-69255778D01*
X163126135Y-69098029D01*
X161102702Y-65085750D01*
X162335000Y-65085750D01*
X162335000Y-65251310D01*
X162344813Y-65275000D01*
X162335000Y-65298690D01*
X162335000Y-65464250D01*
X162493750Y-65623000D01*
X162569975Y-65623000D01*
X162610302Y-65663327D01*
X162843691Y-65760000D01*
X163214250Y-65760000D01*
X163351250Y-65623000D01*
X163373000Y-65623000D01*
X163373000Y-64927000D01*
X163351250Y-64927000D01*
X163214250Y-64790000D01*
X162843691Y-64790000D01*
X162610302Y-64886673D01*
X162569975Y-64927000D01*
X162493750Y-64927000D01*
X162335000Y-65085750D01*
X161102702Y-65085750D01*
X160871311Y-64626925D01*
X160818757Y-64559690D01*
X160774696Y-64486611D01*
X159134696Y-62686611D01*
X159044943Y-62620408D01*
X158957628Y-62551009D01*
X158946562Y-62547840D01*
X158937299Y-62541008D01*
X158829034Y-62514189D01*
X158721817Y-62483489D01*
X158689187Y-62480790D01*
X158664962Y-62444534D01*
X158768981Y-62354376D01*
X158934781Y-62012181D01*
X158806723Y-61857000D01*
X157467000Y-61857000D01*
X157467000Y-61877000D01*
X157213000Y-61877000D01*
X157213000Y-61857000D01*
X155873277Y-61857000D01*
X155745219Y-62012181D01*
X155911019Y-62354376D01*
X156015038Y-62444534D01*
X155869671Y-62662091D01*
X155802457Y-63000000D01*
X155869671Y-63337909D01*
X156061082Y-63624375D01*
X156076983Y-63635000D01*
X156061082Y-63645625D01*
X155869671Y-63932091D01*
X155802457Y-64270000D01*
X155869671Y-64607909D01*
X156061082Y-64894375D01*
X156076983Y-64905000D01*
X156061082Y-64915625D01*
X156016430Y-64982451D01*
X155835838Y-64992279D01*
X155822110Y-64995795D01*
X155808005Y-64994414D01*
X155703770Y-65026102D01*
X155598220Y-65053134D01*
X155586880Y-65061638D01*
X155573323Y-65065759D01*
X155489152Y-65134921D01*
X155401978Y-65200290D01*
X155394756Y-65212484D01*
X155383807Y-65221481D01*
X154883807Y-65831481D01*
X154837630Y-65917998D01*
X154784713Y-66000566D01*
X154780244Y-66025516D01*
X154768310Y-66047875D01*
X154758756Y-66145478D01*
X154741465Y-66242010D01*
X154818474Y-70272137D01*
X154499984Y-70271860D01*
X154202903Y-70394611D01*
X154058304Y-70538957D01*
X151865059Y-70886963D01*
X150835000Y-71004495D01*
X150835000Y-69535750D01*
X150676250Y-69377000D01*
X148327000Y-69377000D01*
X148327000Y-69397000D01*
X148073000Y-69397000D01*
X148073000Y-69377000D01*
X145723750Y-69377000D01*
X145565000Y-69535750D01*
X145565000Y-71376310D01*
X145655774Y-71595458D01*
X144078732Y-71775403D01*
X144023428Y-71793116D01*
X143965656Y-71798986D01*
X143766957Y-71859931D01*
X143807860Y-71761426D01*
X143808140Y-71439984D01*
X143685389Y-71142903D01*
X143494893Y-70952074D01*
X142605686Y-67123690D01*
X145565000Y-67123690D01*
X145565000Y-68964250D01*
X145723750Y-69123000D01*
X148073000Y-69123000D01*
X148073000Y-66773750D01*
X148327000Y-66773750D01*
X148327000Y-69123000D01*
X150676250Y-69123000D01*
X150835000Y-68964250D01*
X150835000Y-67123690D01*
X150738327Y-66890301D01*
X150559698Y-66711673D01*
X150326309Y-66615000D01*
X148485750Y-66615000D01*
X148327000Y-66773750D01*
X148073000Y-66773750D01*
X147914250Y-66615000D01*
X146073691Y-66615000D01*
X145840302Y-66711673D01*
X145661673Y-66890301D01*
X145565000Y-67123690D01*
X142605686Y-67123690D01*
X141942349Y-64267771D01*
X141928893Y-64238005D01*
X141924504Y-64205634D01*
X141878754Y-64127093D01*
X141841309Y-64044262D01*
X141817484Y-64021909D01*
X141801043Y-63993684D01*
X141728720Y-63938630D01*
X141662426Y-63876432D01*
X141631862Y-63864899D01*
X141605870Y-63845113D01*
X141517980Y-63821926D01*
X141432934Y-63789834D01*
X141400284Y-63790875D01*
X141368698Y-63782542D01*
X141269396Y-63776418D01*
X141417097Y-63715389D01*
X141644590Y-63488293D01*
X141767860Y-63191426D01*
X141768140Y-62869984D01*
X141645389Y-62572903D01*
X141418293Y-62345410D01*
X141127000Y-62224455D01*
X141127000Y-61583000D01*
X155856773Y-61583000D01*
X155873277Y-61603000D01*
G36*
X146844500Y-102708000D02*
X148515500Y-102708000D01*
X148515500Y-102688000D01*
X148769500Y-102688000D01*
X148769500Y-102708000D01*
X148789500Y-102708000D01*
X148789500Y-102962000D01*
X148769500Y-102962000D01*
X148769500Y-102982000D01*
X148515500Y-102982000D01*
X148515500Y-102962000D01*
X146844500Y-102962000D01*
X146844500Y-102982000D01*
X146590500Y-102982000D01*
X146590500Y-102962000D01*
X146570500Y-102962000D01*
X146570500Y-102708000D01*
X146590500Y-102708000D01*
X146590500Y-102688000D01*
X146844500Y-102688000D01*
X146844500Y-102708000D01*
X146844500Y-102708000D01*
G37*
X146844500Y-102708000D02*
X148515500Y-102708000D01*
X148515500Y-102688000D01*
X148769500Y-102688000D01*
X148769500Y-102708000D01*
X148789500Y-102708000D01*
X148789500Y-102962000D01*
X148769500Y-102962000D01*
X148769500Y-102982000D01*
X148515500Y-102982000D01*
X148515500Y-102962000D01*
X146844500Y-102962000D01*
X146844500Y-102982000D01*
X146590500Y-102982000D01*
X146590500Y-102962000D01*
X146570500Y-102962000D01*
X146570500Y-102708000D01*
X146590500Y-102708000D01*
X146590500Y-102688000D01*
X146844500Y-102688000D01*
X146844500Y-102708000D01*
G36*
X144030299Y-86549117D02*
X144001359Y-92076709D01*
X144012453Y-92134053D01*
X144011490Y-92192456D01*
X144035524Y-92253301D01*
X144047951Y-92317530D01*
X144080147Y-92366265D01*
X144101606Y-92420590D01*
X144147096Y-92467606D01*
X144183156Y-92522190D01*
X144231552Y-92554895D01*
X144231982Y-92555339D01*
X144115410Y-92671707D01*
X143992140Y-92968574D01*
X143991860Y-93290016D01*
X144114611Y-93587097D01*
X144341707Y-93814590D01*
X144638574Y-93937860D01*
X144728635Y-93937938D01*
X144741443Y-93950409D01*
X144758395Y-93961412D01*
X144770880Y-93977307D01*
X144860728Y-94027833D01*
X144947191Y-94083953D01*
X144967065Y-94087631D01*
X144984680Y-94097537D01*
X145087017Y-94109833D01*
X145177835Y-94126642D01*
X145188808Y-94181806D01*
X145331445Y-94395276D01*
X145544915Y-94537913D01*
X145796721Y-94588000D01*
X146132000Y-94588000D01*
X146132000Y-94923279D01*
X146182087Y-95175085D01*
X146324724Y-95388555D01*
X146538194Y-95531192D01*
X146762853Y-95575879D01*
X146780301Y-95593327D01*
X147013690Y-95690000D01*
X147056250Y-95690000D01*
X147155000Y-95591250D01*
X147155000Y-96194262D01*
X147092436Y-96287896D01*
X147044100Y-96530900D01*
X147044100Y-97502012D01*
X146869984Y-97501860D01*
X146572903Y-97624611D01*
X146465839Y-97731488D01*
X144692525Y-95080473D01*
X144651380Y-95039370D01*
X144619632Y-94990646D01*
X143011123Y-93344511D01*
X142436707Y-91610000D01*
X142654250Y-91610000D01*
X142813000Y-91451250D01*
X142813000Y-90727000D01*
X143067000Y-90727000D01*
X143067000Y-91451250D01*
X143225750Y-91610000D01*
X143466309Y-91610000D01*
X143699698Y-91513327D01*
X143878327Y-91334699D01*
X143975000Y-91101310D01*
X143975000Y-90885750D01*
X143816250Y-90727000D01*
X143067000Y-90727000D01*
X142813000Y-90727000D01*
X142793000Y-90727000D01*
X142793000Y-90473000D01*
X142813000Y-90473000D01*
X142813000Y-90453000D01*
X143067000Y-90453000D01*
X143067000Y-90473000D01*
X143816250Y-90473000D01*
X143975000Y-90314250D01*
X143975000Y-90098690D01*
X143878327Y-89865301D01*
X143807577Y-89794552D01*
X143912145Y-89641512D01*
X143952952Y-89440000D01*
X143952952Y-88380000D01*
X143917530Y-88191747D01*
X143817899Y-88036916D01*
X143818140Y-87759984D01*
X143764982Y-87631330D01*
X143796153Y-87611272D01*
X143912145Y-87441512D01*
X143952952Y-87240000D01*
X143952952Y-86440258D01*
X144030299Y-86549117D01*
X144030299Y-86549117D01*
G37*
X144030299Y-86549117D02*
X144001359Y-92076709D01*
X144012453Y-92134053D01*
X144011490Y-92192456D01*
X144035524Y-92253301D01*
X144047951Y-92317530D01*
X144080147Y-92366265D01*
X144101606Y-92420590D01*
X144147096Y-92467606D01*
X144183156Y-92522190D01*
X144231552Y-92554895D01*
X144231982Y-92555339D01*
X144115410Y-92671707D01*
X143992140Y-92968574D01*
X143991860Y-93290016D01*
X144114611Y-93587097D01*
X144341707Y-93814590D01*
X144638574Y-93937860D01*
X144728635Y-93937938D01*
X144741443Y-93950409D01*
X144758395Y-93961412D01*
X144770880Y-93977307D01*
X144860728Y-94027833D01*
X144947191Y-94083953D01*
X144967065Y-94087631D01*
X144984680Y-94097537D01*
X145087017Y-94109833D01*
X145177835Y-94126642D01*
X145188808Y-94181806D01*
X145331445Y-94395276D01*
X145544915Y-94537913D01*
X145796721Y-94588000D01*
X146132000Y-94588000D01*
X146132000Y-94923279D01*
X146182087Y-95175085D01*
X146324724Y-95388555D01*
X146538194Y-95531192D01*
X146762853Y-95575879D01*
X146780301Y-95593327D01*
X147013690Y-95690000D01*
X147056250Y-95690000D01*
X147155000Y-95591250D01*
X147155000Y-96194262D01*
X147092436Y-96287896D01*
X147044100Y-96530900D01*
X147044100Y-97502012D01*
X146869984Y-97501860D01*
X146572903Y-97624611D01*
X146465839Y-97731488D01*
X144692525Y-95080473D01*
X144651380Y-95039370D01*
X144619632Y-94990646D01*
X143011123Y-93344511D01*
X142436707Y-91610000D01*
X142654250Y-91610000D01*
X142813000Y-91451250D01*
X142813000Y-90727000D01*
X143067000Y-90727000D01*
X143067000Y-91451250D01*
X143225750Y-91610000D01*
X143466309Y-91610000D01*
X143699698Y-91513327D01*
X143878327Y-91334699D01*
X143975000Y-91101310D01*
X143975000Y-90885750D01*
X143816250Y-90727000D01*
X143067000Y-90727000D01*
X142813000Y-90727000D01*
X142793000Y-90727000D01*
X142793000Y-90473000D01*
X142813000Y-90473000D01*
X142813000Y-90453000D01*
X143067000Y-90453000D01*
X143067000Y-90473000D01*
X143816250Y-90473000D01*
X143975000Y-90314250D01*
X143975000Y-90098690D01*
X143878327Y-89865301D01*
X143807577Y-89794552D01*
X143912145Y-89641512D01*
X143952952Y-89440000D01*
X143952952Y-88380000D01*
X143917530Y-88191747D01*
X143817899Y-88036916D01*
X143818140Y-87759984D01*
X143764982Y-87631330D01*
X143796153Y-87611272D01*
X143912145Y-87441512D01*
X143952952Y-87240000D01*
X143952952Y-86440258D01*
X144030299Y-86549117D01*
G36*
X147517000Y-91903000D02*
X148563000Y-91903000D01*
X148563000Y-91883000D01*
X148817000Y-91883000D01*
X148817000Y-91903000D01*
X148837000Y-91903000D01*
X148837000Y-92157000D01*
X148817000Y-92157000D01*
X148817000Y-93203000D01*
X148837000Y-93203000D01*
X148837000Y-93457000D01*
X148817000Y-93457000D01*
X148817000Y-93477000D01*
X148563000Y-93477000D01*
X148563000Y-93457000D01*
X147517000Y-93457000D01*
X147517000Y-93477000D01*
X147263000Y-93477000D01*
X147263000Y-93457000D01*
X147243000Y-93457000D01*
X147243000Y-93203000D01*
X147263000Y-93203000D01*
X147263000Y-92315750D01*
X147405000Y-92315750D01*
X147405000Y-93044250D01*
X147517000Y-93156250D01*
X147517000Y-93203000D01*
X147563750Y-93203000D01*
X147675750Y-93315000D01*
X148404250Y-93315000D01*
X148516250Y-93203000D01*
X148563000Y-93203000D01*
X148563000Y-93156250D01*
X148675000Y-93044250D01*
X148675000Y-92315750D01*
X148563000Y-92203750D01*
X148563000Y-92157000D01*
X148516250Y-92157000D01*
X148404250Y-92045000D01*
X147675750Y-92045000D01*
X147563750Y-92157000D01*
X147517000Y-92157000D01*
X147517000Y-92203750D01*
X147405000Y-92315750D01*
X147263000Y-92315750D01*
X147263000Y-92157000D01*
X147243000Y-92157000D01*
X147243000Y-91903000D01*
X147263000Y-91903000D01*
X147263000Y-91883000D01*
X147517000Y-91883000D01*
X147517000Y-91903000D01*
X147517000Y-91903000D01*
G37*
X147517000Y-91903000D02*
X148563000Y-91903000D01*
X148563000Y-91883000D01*
X148817000Y-91883000D01*
X148817000Y-91903000D01*
X148837000Y-91903000D01*
X148837000Y-92157000D01*
X148817000Y-92157000D01*
X148817000Y-93203000D01*
X148837000Y-93203000D01*
X148837000Y-93457000D01*
X148817000Y-93457000D01*
X148817000Y-93477000D01*
X148563000Y-93477000D01*
X148563000Y-93457000D01*
X147517000Y-93457000D01*
X147517000Y-93477000D01*
X147263000Y-93477000D01*
X147263000Y-93457000D01*
X147243000Y-93457000D01*
X147243000Y-93203000D01*
X147263000Y-93203000D01*
X147263000Y-92315750D01*
X147405000Y-92315750D01*
X147405000Y-93044250D01*
X147517000Y-93156250D01*
X147517000Y-93203000D01*
X147563750Y-93203000D01*
X147675750Y-93315000D01*
X148404250Y-93315000D01*
X148516250Y-93203000D01*
X148563000Y-93203000D01*
X148563000Y-93156250D01*
X148675000Y-93044250D01*
X148675000Y-92315750D01*
X148563000Y-92203750D01*
X148563000Y-92157000D01*
X148516250Y-92157000D01*
X148404250Y-92045000D01*
X147675750Y-92045000D01*
X147563750Y-92157000D01*
X147517000Y-92157000D01*
X147517000Y-92203750D01*
X147405000Y-92315750D01*
X147263000Y-92315750D01*
X147263000Y-92157000D01*
X147243000Y-92157000D01*
X147243000Y-91903000D01*
X147263000Y-91903000D01*
X147263000Y-91883000D01*
X147517000Y-91883000D01*
X147517000Y-91903000D01*
G36*
X141143004Y-81229833D02*
X141189855Y-81284151D01*
X141227162Y-81345420D01*
X141269201Y-81376145D01*
X141303210Y-81415575D01*
X142123210Y-82055575D01*
X142189776Y-82089085D01*
X142250337Y-82132517D01*
X142298305Y-82143721D01*
X142342301Y-82165869D01*
X142416620Y-82171355D01*
X142489195Y-82188306D01*
X143162112Y-82210588D01*
X143162051Y-82280589D01*
X142982903Y-82354611D01*
X142755410Y-82581707D01*
X142632140Y-82878574D01*
X142631860Y-83200016D01*
X142754611Y-83497097D01*
X142917403Y-83660174D01*
X143232279Y-85326712D01*
X143236852Y-85338059D01*
X143237203Y-85350291D01*
X143282540Y-85451430D01*
X143323964Y-85554220D01*
X143332532Y-85562955D01*
X143337537Y-85574119D01*
X143400013Y-85662048D01*
X142785000Y-85662048D01*
X142596747Y-85697470D01*
X142423847Y-85808728D01*
X142307855Y-85978488D01*
X142267048Y-86180000D01*
X142267048Y-87240000D01*
X142302470Y-87428253D01*
X142324856Y-87463042D01*
X142202140Y-87758574D01*
X142201860Y-88080016D01*
X142286375Y-88284559D01*
X142267048Y-88380000D01*
X142267048Y-89057000D01*
X142052952Y-89057000D01*
X142052952Y-88380000D01*
X142033000Y-88273964D01*
X142033000Y-87903750D01*
X141874250Y-87745000D01*
X141708690Y-87745000D01*
X141475301Y-87841673D01*
X141454926Y-87862048D01*
X141127000Y-87862048D01*
X141127000Y-87757952D01*
X141535000Y-87757952D01*
X141723253Y-87722530D01*
X141896153Y-87611272D01*
X142012145Y-87441512D01*
X142052952Y-87240000D01*
X142052952Y-86180000D01*
X142017530Y-85991747D01*
X141913966Y-85830804D01*
X141917860Y-85821426D01*
X141918140Y-85499984D01*
X141795389Y-85202903D01*
X141568293Y-84975410D01*
X141271426Y-84852140D01*
X141178364Y-84852059D01*
X141127000Y-84716482D01*
X141127000Y-81181380D01*
X141143004Y-81229833D01*
X141143004Y-81229833D01*
G37*
X141143004Y-81229833D02*
X141189855Y-81284151D01*
X141227162Y-81345420D01*
X141269201Y-81376145D01*
X141303210Y-81415575D01*
X142123210Y-82055575D01*
X142189776Y-82089085D01*
X142250337Y-82132517D01*
X142298305Y-82143721D01*
X142342301Y-82165869D01*
X142416620Y-82171355D01*
X142489195Y-82188306D01*
X143162112Y-82210588D01*
X143162051Y-82280589D01*
X142982903Y-82354611D01*
X142755410Y-82581707D01*
X142632140Y-82878574D01*
X142631860Y-83200016D01*
X142754611Y-83497097D01*
X142917403Y-83660174D01*
X143232279Y-85326712D01*
X143236852Y-85338059D01*
X143237203Y-85350291D01*
X143282540Y-85451430D01*
X143323964Y-85554220D01*
X143332532Y-85562955D01*
X143337537Y-85574119D01*
X143400013Y-85662048D01*
X142785000Y-85662048D01*
X142596747Y-85697470D01*
X142423847Y-85808728D01*
X142307855Y-85978488D01*
X142267048Y-86180000D01*
X142267048Y-87240000D01*
X142302470Y-87428253D01*
X142324856Y-87463042D01*
X142202140Y-87758574D01*
X142201860Y-88080016D01*
X142286375Y-88284559D01*
X142267048Y-88380000D01*
X142267048Y-89057000D01*
X142052952Y-89057000D01*
X142052952Y-88380000D01*
X142033000Y-88273964D01*
X142033000Y-87903750D01*
X141874250Y-87745000D01*
X141708690Y-87745000D01*
X141475301Y-87841673D01*
X141454926Y-87862048D01*
X141127000Y-87862048D01*
X141127000Y-87757952D01*
X141535000Y-87757952D01*
X141723253Y-87722530D01*
X141896153Y-87611272D01*
X142012145Y-87441512D01*
X142052952Y-87240000D01*
X142052952Y-86180000D01*
X142017530Y-85991747D01*
X141913966Y-85830804D01*
X141917860Y-85821426D01*
X141918140Y-85499984D01*
X141795389Y-85202903D01*
X141568293Y-84975410D01*
X141271426Y-84852140D01*
X141178364Y-84852059D01*
X141127000Y-84716482D01*
X141127000Y-81181380D01*
X141143004Y-81229833D01*
G36*
X143515146Y-75469649D02*
X143505080Y-75496641D01*
X143487440Y-75519417D01*
X143462524Y-75610758D01*
X143429439Y-75699475D01*
X143430469Y-75728267D01*
X143422888Y-75756057D01*
X143218540Y-78672339D01*
X143199534Y-78685038D01*
X143109376Y-78581019D01*
X142767181Y-78415219D01*
X142612000Y-78543277D01*
X142612000Y-79883000D01*
X142632000Y-79883000D01*
X142632000Y-80137000D01*
X142612000Y-80137000D01*
X142612000Y-80157000D01*
X142358000Y-80157000D01*
X142358000Y-80137000D01*
X142352192Y-80137000D01*
X142520922Y-76131578D01*
X142618044Y-75969372D01*
X142797097Y-75895389D01*
X143024590Y-75668293D01*
X143147860Y-75371426D01*
X143148140Y-75049984D01*
X143025389Y-74752903D01*
X143004704Y-74732181D01*
X144306901Y-74187760D01*
X143515146Y-75469649D01*
X143515146Y-75469649D01*
G37*
X143515146Y-75469649D02*
X143505080Y-75496641D01*
X143487440Y-75519417D01*
X143462524Y-75610758D01*
X143429439Y-75699475D01*
X143430469Y-75728267D01*
X143422888Y-75756057D01*
X143218540Y-78672339D01*
X143199534Y-78685038D01*
X143109376Y-78581019D01*
X142767181Y-78415219D01*
X142612000Y-78543277D01*
X142612000Y-79883000D01*
X142632000Y-79883000D01*
X142632000Y-80137000D01*
X142612000Y-80137000D01*
X142612000Y-80157000D01*
X142358000Y-80157000D01*
X142358000Y-80137000D01*
X142352192Y-80137000D01*
X142520922Y-76131578D01*
X142618044Y-75969372D01*
X142797097Y-75895389D01*
X143024590Y-75668293D01*
X143147860Y-75371426D01*
X143148140Y-75049984D01*
X143025389Y-74752903D01*
X143004704Y-74732181D01*
X144306901Y-74187760D01*
X143515146Y-75469649D01*
G36*
X171147000Y-72815758D02*
X171147000Y-72975000D01*
X171127000Y-72975000D01*
X171127000Y-72987734D01*
X171041078Y-72997000D01*
X170873000Y-72997000D01*
X170873000Y-72975000D01*
X170853000Y-72975000D01*
X170853000Y-72766501D01*
X171147000Y-72815758D01*
X171147000Y-72815758D01*
G37*
X171147000Y-72815758D02*
X171147000Y-72975000D01*
X171127000Y-72975000D01*
X171127000Y-72987734D01*
X171041078Y-72997000D01*
X170873000Y-72997000D01*
X170873000Y-72975000D01*
X170853000Y-72975000D01*
X170853000Y-72766501D01*
X171147000Y-72815758D01*
G36*
X165477000Y-70823000D02*
X166523000Y-70823000D01*
X166523000Y-70803000D01*
X166777000Y-70803000D01*
X166777000Y-70823000D01*
X166797000Y-70823000D01*
X166797000Y-71077000D01*
X166777000Y-71077000D01*
X166777000Y-72123000D01*
X166797000Y-72123000D01*
X166797000Y-72377000D01*
X166777000Y-72377000D01*
X166777000Y-72397000D01*
X166523000Y-72397000D01*
X166523000Y-72377000D01*
X165477000Y-72377000D01*
X165477000Y-72397000D01*
X165223000Y-72397000D01*
X165223000Y-72377000D01*
X165203000Y-72377000D01*
X165203000Y-72123000D01*
X165223000Y-72123000D01*
X165223000Y-71235750D01*
X165365000Y-71235750D01*
X165365000Y-71964250D01*
X165477000Y-72076250D01*
X165477000Y-72123000D01*
X165523750Y-72123000D01*
X165635750Y-72235000D01*
X166364250Y-72235000D01*
X166476250Y-72123000D01*
X166523000Y-72123000D01*
X166523000Y-72076250D01*
X166635000Y-71964250D01*
X166635000Y-71235750D01*
X166523000Y-71123750D01*
X166523000Y-71077000D01*
X166476250Y-71077000D01*
X166364250Y-70965000D01*
X165635750Y-70965000D01*
X165523750Y-71077000D01*
X165477000Y-71077000D01*
X165477000Y-71123750D01*
X165365000Y-71235750D01*
X165223000Y-71235750D01*
X165223000Y-71077000D01*
X165203000Y-71077000D01*
X165203000Y-70823000D01*
X165223000Y-70823000D01*
X165223000Y-70803000D01*
X165477000Y-70803000D01*
X165477000Y-70823000D01*
X165477000Y-70823000D01*
G37*
X165477000Y-70823000D02*
X166523000Y-70823000D01*
X166523000Y-70803000D01*
X166777000Y-70803000D01*
X166777000Y-70823000D01*
X166797000Y-70823000D01*
X166797000Y-71077000D01*
X166777000Y-71077000D01*
X166777000Y-72123000D01*
X166797000Y-72123000D01*
X166797000Y-72377000D01*
X166777000Y-72377000D01*
X166777000Y-72397000D01*
X166523000Y-72397000D01*
X166523000Y-72377000D01*
X165477000Y-72377000D01*
X165477000Y-72397000D01*
X165223000Y-72397000D01*
X165223000Y-72377000D01*
X165203000Y-72377000D01*
X165203000Y-72123000D01*
X165223000Y-72123000D01*
X165223000Y-71235750D01*
X165365000Y-71235750D01*
X165365000Y-71964250D01*
X165477000Y-72076250D01*
X165477000Y-72123000D01*
X165523750Y-72123000D01*
X165635750Y-72235000D01*
X166364250Y-72235000D01*
X166476250Y-72123000D01*
X166523000Y-72123000D01*
X166523000Y-72076250D01*
X166635000Y-71964250D01*
X166635000Y-71235750D01*
X166523000Y-71123750D01*
X166523000Y-71077000D01*
X166476250Y-71077000D01*
X166364250Y-70965000D01*
X165635750Y-70965000D01*
X165523750Y-71077000D01*
X165477000Y-71077000D01*
X165477000Y-71123750D01*
X165365000Y-71235750D01*
X165223000Y-71235750D01*
X165223000Y-71077000D01*
X165203000Y-71077000D01*
X165203000Y-70823000D01*
X165223000Y-70823000D01*
X165223000Y-70803000D01*
X165477000Y-70803000D01*
X165477000Y-70823000D01*
G36*
X170018356Y-65800000D02*
X169795750Y-65800000D01*
X169637000Y-65958750D01*
X169637000Y-66683000D01*
X169657000Y-66683000D01*
X169657000Y-66937000D01*
X169637000Y-66937000D01*
X169637000Y-66957000D01*
X169383000Y-66957000D01*
X169383000Y-66937000D01*
X169380854Y-66937000D01*
X169382749Y-66683000D01*
X169383000Y-66683000D01*
X169383000Y-66649379D01*
X169388632Y-65894692D01*
X169383012Y-65865296D01*
X169386287Y-65835541D01*
X169360146Y-65745679D01*
X169342576Y-65653767D01*
X169326134Y-65628758D01*
X169317773Y-65600016D01*
X169259236Y-65527002D01*
X169207828Y-65448807D01*
X169183065Y-65431992D01*
X169164343Y-65408640D01*
X169044695Y-65308135D01*
X169050016Y-65308140D01*
X169347097Y-65185389D01*
X169569495Y-64963379D01*
X170018356Y-65800000D01*
X170018356Y-65800000D01*
G37*
X170018356Y-65800000D02*
X169795750Y-65800000D01*
X169637000Y-65958750D01*
X169637000Y-66683000D01*
X169657000Y-66683000D01*
X169657000Y-66937000D01*
X169637000Y-66937000D01*
X169637000Y-66957000D01*
X169383000Y-66957000D01*
X169383000Y-66937000D01*
X169380854Y-66937000D01*
X169382749Y-66683000D01*
X169383000Y-66683000D01*
X169383000Y-66649379D01*
X169388632Y-65894692D01*
X169383012Y-65865296D01*
X169386287Y-65835541D01*
X169360146Y-65745679D01*
X169342576Y-65653767D01*
X169326134Y-65628758D01*
X169317773Y-65600016D01*
X169259236Y-65527002D01*
X169207828Y-65448807D01*
X169183065Y-65431992D01*
X169164343Y-65408640D01*
X169044695Y-65308135D01*
X169050016Y-65308140D01*
X169347097Y-65185389D01*
X169569495Y-64963379D01*
X170018356Y-65800000D01*
G36*
X166832048Y-64000000D02*
X166832048Y-64500000D01*
X166867470Y-64688253D01*
X166978728Y-64861153D01*
X167148488Y-64977145D01*
X167258095Y-64999341D01*
X167161747Y-65017470D01*
X167000313Y-65121350D01*
X166638274Y-65121350D01*
X166601272Y-65063847D01*
X166431512Y-64947855D01*
X166230000Y-64907048D01*
X165754721Y-64907048D01*
X165896281Y-64692952D01*
X166230000Y-64692952D01*
X166418253Y-64657530D01*
X166591153Y-64546272D01*
X166707145Y-64376512D01*
X166747952Y-64175000D01*
X166747952Y-64024476D01*
X166836121Y-63979885D01*
X166832048Y-64000000D01*
X166832048Y-64000000D01*
G37*
X166832048Y-64000000D02*
X166832048Y-64500000D01*
X166867470Y-64688253D01*
X166978728Y-64861153D01*
X167148488Y-64977145D01*
X167258095Y-64999341D01*
X167161747Y-65017470D01*
X167000313Y-65121350D01*
X166638274Y-65121350D01*
X166601272Y-65063847D01*
X166431512Y-64947855D01*
X166230000Y-64907048D01*
X165754721Y-64907048D01*
X165896281Y-64692952D01*
X166230000Y-64692952D01*
X166418253Y-64657530D01*
X166591153Y-64546272D01*
X166707145Y-64376512D01*
X166747952Y-64175000D01*
X166747952Y-64024476D01*
X166836121Y-63979885D01*
X166832048Y-64000000D01*
G36*
X117506154Y-61727832D02*
X117281484Y-62101879D01*
X119000000Y-63820395D01*
X120718516Y-62101879D01*
X120493846Y-61727832D01*
X120449872Y-61710000D01*
X136530394Y-61710000D01*
X137463883Y-62643489D01*
X137433651Y-62795472D01*
X129658800Y-65668968D01*
X129636718Y-65646886D01*
X129439015Y-65511801D01*
X129187853Y-65457317D01*
X128935282Y-65504841D01*
X128721100Y-65646886D01*
X128367546Y-66000440D01*
X128232461Y-66198143D01*
X128177977Y-66449305D01*
X128193609Y-66532385D01*
X128127193Y-66517977D01*
X127874622Y-66565501D01*
X127660440Y-66707546D01*
X127306886Y-67061100D01*
X127171801Y-67258803D01*
X127156570Y-67329014D01*
X127156005Y-67327649D01*
X126985904Y-67157548D01*
X126761397Y-67157548D01*
X126249275Y-67669670D01*
X126263418Y-67683813D01*
X126083813Y-67863418D01*
X126069670Y-67849275D01*
X125049275Y-68869670D01*
X125063418Y-68883813D01*
X124883813Y-69063418D01*
X124869670Y-69049275D01*
X123849275Y-70069670D01*
X123863418Y-70083813D01*
X123683813Y-70263418D01*
X123669670Y-70249275D01*
X122649275Y-71269670D01*
X122663418Y-71283813D01*
X122483813Y-71463418D01*
X122469670Y-71449275D01*
X121957548Y-71961397D01*
X121957548Y-72185904D01*
X122127649Y-72356005D01*
X122361038Y-72452677D01*
X122362974Y-72452677D01*
X122382468Y-72556279D01*
X122524513Y-72770461D01*
X123090199Y-73336147D01*
X123287902Y-73471232D01*
X123539064Y-73525716D01*
X123791635Y-73478192D01*
X124005817Y-73336147D01*
X124086691Y-73255273D01*
X124868410Y-73458013D01*
X124996883Y-73768943D01*
X125259673Y-74032192D01*
X125356790Y-74072519D01*
X124219430Y-74429929D01*
X123999090Y-74209589D01*
X123801387Y-74074504D01*
X123550225Y-74020020D01*
X123297654Y-74067544D01*
X123083472Y-74209589D01*
X122199589Y-75093472D01*
X122064504Y-75291175D01*
X122010020Y-75542337D01*
X122057544Y-75794908D01*
X122199589Y-76009090D01*
X122329389Y-76138890D01*
X119868473Y-81725374D01*
X119860967Y-81759165D01*
X119843746Y-81789194D01*
X119829219Y-81902083D01*
X119804536Y-82013198D01*
X119810533Y-82047292D01*
X119806115Y-82081623D01*
X120336115Y-89821623D01*
X120353951Y-89887418D01*
X120357471Y-89955494D01*
X122090335Y-96798701D01*
X121970427Y-96978156D01*
X121865000Y-97508173D01*
X121865000Y-99091827D01*
X121970427Y-99621844D01*
X122270657Y-100071170D01*
X122719983Y-100371400D01*
X123250000Y-100476827D01*
X123780017Y-100371400D01*
X124229343Y-100071170D01*
X124529573Y-99621844D01*
X124635000Y-99091827D01*
X124635000Y-97508173D01*
X124529573Y-96978156D01*
X124229343Y-96528830D01*
X123780017Y-96228600D01*
X123490384Y-96170988D01*
X121839236Y-89650482D01*
X121592265Y-86043772D01*
X123262322Y-90657846D01*
X123236886Y-90683282D01*
X123101801Y-90880985D01*
X123047317Y-91132147D01*
X123094841Y-91384718D01*
X123236886Y-91598900D01*
X123590440Y-91952454D01*
X123788143Y-92087539D01*
X124039305Y-92142023D01*
X124122385Y-92126391D01*
X124107977Y-92192807D01*
X124155501Y-92445378D01*
X124297546Y-92659560D01*
X124651100Y-93013114D01*
X124848803Y-93148199D01*
X125099965Y-93202683D01*
X125352536Y-93155159D01*
X125450925Y-93089908D01*
X127352560Y-94319557D01*
X127352560Y-94450000D01*
X127386601Y-94630914D01*
X126475025Y-100465000D01*
X126358173Y-100465000D01*
X125770754Y-100581845D01*
X125272764Y-100914591D01*
X124940018Y-101412581D01*
X124823173Y-102000000D01*
X124940018Y-102587419D01*
X125272764Y-103085409D01*
X125770754Y-103418155D01*
X126358173Y-103535000D01*
X127641827Y-103535000D01*
X128229246Y-103418155D01*
X128727236Y-103085409D01*
X129059982Y-102587419D01*
X129176827Y-102000000D01*
X129059982Y-101412581D01*
X128727236Y-100914591D01*
X128229246Y-100581845D01*
X127993725Y-100534997D01*
X128863111Y-94970929D01*
X128951441Y-94914090D01*
X128999134Y-94844289D01*
X129035910Y-94901441D01*
X129211766Y-95021598D01*
X129616084Y-96760165D01*
X129470427Y-96978156D01*
X129365000Y-97508173D01*
X129365000Y-99091827D01*
X129470427Y-99621844D01*
X129770657Y-100071170D01*
X130219983Y-100371400D01*
X130750000Y-100476827D01*
X131280017Y-100371400D01*
X131729343Y-100071170D01*
X132029573Y-99621844D01*
X132135000Y-99091827D01*
X132135000Y-97508173D01*
X132865000Y-97508173D01*
X132865000Y-99091827D01*
X132970427Y-99621844D01*
X133270657Y-100071170D01*
X133719983Y-100371400D01*
X134250000Y-100476827D01*
X134780017Y-100371400D01*
X135229343Y-100071170D01*
X135529573Y-99621844D01*
X135635000Y-99091827D01*
X135635000Y-97508173D01*
X135529573Y-96978156D01*
X135229343Y-96528830D01*
X134780017Y-96228600D01*
X134250000Y-96123173D01*
X133719983Y-96228600D01*
X133270657Y-96528830D01*
X132970427Y-96978156D01*
X132865000Y-97508173D01*
X132135000Y-97508173D01*
X132029573Y-96978156D01*
X131729343Y-96528830D01*
X131280017Y-96228600D01*
X131032651Y-96179396D01*
X130639539Y-94489015D01*
X130647440Y-94450000D01*
X130647440Y-93550000D01*
X130603162Y-93314683D01*
X130464090Y-93098559D01*
X130251890Y-92953569D01*
X130133709Y-92929637D01*
X128768668Y-89538589D01*
X128898199Y-89349015D01*
X128952683Y-89097853D01*
X128905159Y-88845282D01*
X128763114Y-88631100D01*
X128409560Y-88277546D01*
X128211857Y-88142461D01*
X127960695Y-88087977D01*
X127879645Y-88103227D01*
X127879644Y-87901939D01*
X127782972Y-87668550D01*
X127717522Y-87603101D01*
X127493016Y-87603101D01*
X126927861Y-88168256D01*
X126943418Y-88183813D01*
X126763813Y-88363418D01*
X126748256Y-88347861D01*
X126183101Y-88913016D01*
X126183101Y-89137522D01*
X126248550Y-89202972D01*
X126481939Y-89299644D01*
X126681679Y-89299645D01*
X126667977Y-89362807D01*
X126715501Y-89615378D01*
X126857546Y-89829560D01*
X127211100Y-90183114D01*
X127408803Y-90318199D01*
X127457605Y-90328786D01*
X128493659Y-92902560D01*
X128000000Y-92902560D01*
X127956976Y-92910656D01*
X126386532Y-91895163D01*
X126345159Y-91675282D01*
X126203114Y-91461100D01*
X125849560Y-91107546D01*
X125651857Y-90972461D01*
X125400695Y-90917977D01*
X125317615Y-90933609D01*
X125332023Y-90867193D01*
X125284499Y-90614622D01*
X125142454Y-90400440D01*
X124788900Y-90046886D01*
X124602284Y-89919376D01*
X123974450Y-88184782D01*
X125619695Y-88184782D01*
X125619696Y-88437401D01*
X125716368Y-88670790D01*
X125781818Y-88736239D01*
X126006324Y-88736239D01*
X126571479Y-88171084D01*
X126146331Y-87745936D01*
X125921825Y-87745936D01*
X125716368Y-87951393D01*
X125619695Y-88184782D01*
X123974450Y-88184782D01*
X123669343Y-87341825D01*
X126325936Y-87341825D01*
X126325936Y-87566331D01*
X126751084Y-87991479D01*
X127316239Y-87426324D01*
X127316239Y-87201818D01*
X127250790Y-87136368D01*
X127017401Y-87039696D01*
X126764782Y-87039695D01*
X126531393Y-87136368D01*
X126325936Y-87341825D01*
X123669343Y-87341825D01*
X123098880Y-85765738D01*
X123101441Y-85764090D01*
X123246431Y-85551890D01*
X123297440Y-85300000D01*
X123297440Y-84600000D01*
X123253162Y-84364683D01*
X123114090Y-84148559D01*
X122901890Y-84003569D01*
X122888803Y-84000919D01*
X123101441Y-83864090D01*
X123246431Y-83651890D01*
X123297440Y-83400000D01*
X123297440Y-82700000D01*
X123253162Y-82464683D01*
X123114090Y-82248559D01*
X122918012Y-82114585D01*
X123013138Y-81530714D01*
X124879257Y-78349757D01*
X124870020Y-78392337D01*
X124917544Y-78644908D01*
X125059589Y-78859090D01*
X125287173Y-79086674D01*
X124957160Y-80169751D01*
X124952762Y-80213848D01*
X124936494Y-80255070D01*
X124702730Y-81543175D01*
X124163333Y-82082572D01*
X124028248Y-82280275D01*
X123973764Y-82531437D01*
X124021288Y-82784008D01*
X124163333Y-82998190D01*
X124658308Y-83493165D01*
X124856011Y-83628250D01*
X125107173Y-83682734D01*
X125359744Y-83635210D01*
X125370871Y-83627831D01*
X125317266Y-83874939D01*
X125364790Y-84127510D01*
X125506835Y-84341692D01*
X126001810Y-84836667D01*
X126199513Y-84971752D01*
X126450675Y-85026236D01*
X126703246Y-84978712D01*
X126829972Y-84894668D01*
X129559498Y-87608588D01*
X131691706Y-91509405D01*
X131601801Y-91640985D01*
X131547317Y-91892147D01*
X131594841Y-92144718D01*
X131736886Y-92358900D01*
X132090440Y-92712454D01*
X132288143Y-92847539D01*
X132539305Y-92902023D01*
X132622385Y-92886391D01*
X132607977Y-92952807D01*
X132655501Y-93205378D01*
X132797546Y-93419560D01*
X133151100Y-93773114D01*
X133348803Y-93908199D01*
X133599965Y-93962683D01*
X133852536Y-93915159D01*
X134066718Y-93773114D01*
X134159004Y-93680828D01*
X138378116Y-94585820D01*
X138386601Y-94630914D01*
X137475025Y-100465000D01*
X137358173Y-100465000D01*
X136770754Y-100581845D01*
X136272764Y-100914591D01*
X135940018Y-101412581D01*
X135823173Y-102000000D01*
X135940018Y-102587419D01*
X136272764Y-103085409D01*
X136770754Y-103418155D01*
X137358173Y-103535000D01*
X138641827Y-103535000D01*
X139229246Y-103418155D01*
X139727236Y-103085409D01*
X139873000Y-102867258D01*
X139873000Y-104290000D01*
X120450796Y-104290000D01*
X120493846Y-104272168D01*
X120718516Y-103898121D01*
X119000000Y-102179605D01*
X117281484Y-103898121D01*
X117506154Y-104272168D01*
X117550128Y-104290000D01*
X116710000Y-104290000D01*
X116710000Y-103450796D01*
X116727832Y-103493846D01*
X117101879Y-103718516D01*
X118820395Y-102000000D01*
X119179605Y-102000000D01*
X120898121Y-103718516D01*
X121272168Y-103493846D01*
X121670880Y-102510612D01*
X121662975Y-101449643D01*
X121272168Y-100506154D01*
X120898121Y-100281484D01*
X119179605Y-102000000D01*
X118820395Y-102000000D01*
X117101879Y-100281484D01*
X116727832Y-100506154D01*
X116710000Y-100550128D01*
X116710000Y-100101879D01*
X117281484Y-100101879D01*
X119000000Y-101820395D01*
X120718516Y-100101879D01*
X120493846Y-99727832D01*
X119510612Y-99329120D01*
X118449643Y-99337025D01*
X117506154Y-99727832D01*
X117281484Y-100101879D01*
X116710000Y-100101879D01*
X116710000Y-71125683D01*
X121286662Y-71125683D01*
X121286663Y-71378302D01*
X121383335Y-71611691D01*
X121553436Y-71781792D01*
X121777943Y-71781792D01*
X122290065Y-71269670D01*
X121760265Y-70739870D01*
X121535759Y-70739870D01*
X121383335Y-70892294D01*
X121286662Y-71125683D01*
X116710000Y-71125683D01*
X116710000Y-70335759D01*
X121939870Y-70335759D01*
X121939870Y-70560265D01*
X122469670Y-71090065D01*
X123490065Y-70069670D01*
X122960265Y-69539870D01*
X122735759Y-69539870D01*
X122583335Y-69692294D01*
X122486662Y-69925683D01*
X122486663Y-70086663D01*
X122325683Y-70086662D01*
X122092294Y-70183335D01*
X121939870Y-70335759D01*
X116710000Y-70335759D01*
X116710000Y-69135759D01*
X123139870Y-69135759D01*
X123139870Y-69360265D01*
X123669670Y-69890065D01*
X124690065Y-68869670D01*
X124160265Y-68339870D01*
X123935759Y-68339870D01*
X123783335Y-68492294D01*
X123686662Y-68725683D01*
X123686663Y-68886663D01*
X123525683Y-68886662D01*
X123292294Y-68983335D01*
X123139870Y-69135759D01*
X116710000Y-69135759D01*
X116710000Y-67935759D01*
X124339870Y-67935759D01*
X124339870Y-68160265D01*
X124869670Y-68690065D01*
X125890065Y-67669670D01*
X125360265Y-67139870D01*
X125135759Y-67139870D01*
X124983335Y-67292294D01*
X124886662Y-67525683D01*
X124886663Y-67686663D01*
X124725683Y-67686662D01*
X124492294Y-67783335D01*
X124339870Y-67935759D01*
X116710000Y-67935759D01*
X116710000Y-66735759D01*
X125539870Y-66735759D01*
X125539870Y-66960265D01*
X126069670Y-67490065D01*
X126581792Y-66977943D01*
X126581792Y-66753436D01*
X126411691Y-66583335D01*
X126178302Y-66486663D01*
X125925683Y-66486662D01*
X125692294Y-66583335D01*
X125539870Y-66735759D01*
X116710000Y-66735759D01*
X116710000Y-65898121D01*
X117281484Y-65898121D01*
X117506154Y-66272168D01*
X118489388Y-66670880D01*
X119550357Y-66662975D01*
X120493846Y-66272168D01*
X120718516Y-65898121D01*
X119000000Y-64179605D01*
X117281484Y-65898121D01*
X116710000Y-65898121D01*
X116710000Y-65450796D01*
X116727832Y-65493846D01*
X117101879Y-65718516D01*
X118820395Y-64000000D01*
X119179605Y-64000000D01*
X120898121Y-65718516D01*
X121272168Y-65493846D01*
X121670880Y-64510612D01*
X121662975Y-63449643D01*
X121272168Y-62506154D01*
X120898121Y-62281484D01*
X119179605Y-64000000D01*
X118820395Y-64000000D01*
X117101879Y-62281484D01*
X116727832Y-62506154D01*
X116710000Y-62550128D01*
X116710000Y-61710000D01*
X117549204Y-61710000D01*
X117506154Y-61727832D01*
X117506154Y-61727832D01*
G37*
X117506154Y-61727832D02*
X117281484Y-62101879D01*
X119000000Y-63820395D01*
X120718516Y-62101879D01*
X120493846Y-61727832D01*
X120449872Y-61710000D01*
X136530394Y-61710000D01*
X137463883Y-62643489D01*
X137433651Y-62795472D01*
X129658800Y-65668968D01*
X129636718Y-65646886D01*
X129439015Y-65511801D01*
X129187853Y-65457317D01*
X128935282Y-65504841D01*
X128721100Y-65646886D01*
X128367546Y-66000440D01*
X128232461Y-66198143D01*
X128177977Y-66449305D01*
X128193609Y-66532385D01*
X128127193Y-66517977D01*
X127874622Y-66565501D01*
X127660440Y-66707546D01*
X127306886Y-67061100D01*
X127171801Y-67258803D01*
X127156570Y-67329014D01*
X127156005Y-67327649D01*
X126985904Y-67157548D01*
X126761397Y-67157548D01*
X126249275Y-67669670D01*
X126263418Y-67683813D01*
X126083813Y-67863418D01*
X126069670Y-67849275D01*
X125049275Y-68869670D01*
X125063418Y-68883813D01*
X124883813Y-69063418D01*
X124869670Y-69049275D01*
X123849275Y-70069670D01*
X123863418Y-70083813D01*
X123683813Y-70263418D01*
X123669670Y-70249275D01*
X122649275Y-71269670D01*
X122663418Y-71283813D01*
X122483813Y-71463418D01*
X122469670Y-71449275D01*
X121957548Y-71961397D01*
X121957548Y-72185904D01*
X122127649Y-72356005D01*
X122361038Y-72452677D01*
X122362974Y-72452677D01*
X122382468Y-72556279D01*
X122524513Y-72770461D01*
X123090199Y-73336147D01*
X123287902Y-73471232D01*
X123539064Y-73525716D01*
X123791635Y-73478192D01*
X124005817Y-73336147D01*
X124086691Y-73255273D01*
X124868410Y-73458013D01*
X124996883Y-73768943D01*
X125259673Y-74032192D01*
X125356790Y-74072519D01*
X124219430Y-74429929D01*
X123999090Y-74209589D01*
X123801387Y-74074504D01*
X123550225Y-74020020D01*
X123297654Y-74067544D01*
X123083472Y-74209589D01*
X122199589Y-75093472D01*
X122064504Y-75291175D01*
X122010020Y-75542337D01*
X122057544Y-75794908D01*
X122199589Y-76009090D01*
X122329389Y-76138890D01*
X119868473Y-81725374D01*
X119860967Y-81759165D01*
X119843746Y-81789194D01*
X119829219Y-81902083D01*
X119804536Y-82013198D01*
X119810533Y-82047292D01*
X119806115Y-82081623D01*
X120336115Y-89821623D01*
X120353951Y-89887418D01*
X120357471Y-89955494D01*
X122090335Y-96798701D01*
X121970427Y-96978156D01*
X121865000Y-97508173D01*
X121865000Y-99091827D01*
X121970427Y-99621844D01*
X122270657Y-100071170D01*
X122719983Y-100371400D01*
X123250000Y-100476827D01*
X123780017Y-100371400D01*
X124229343Y-100071170D01*
X124529573Y-99621844D01*
X124635000Y-99091827D01*
X124635000Y-97508173D01*
X124529573Y-96978156D01*
X124229343Y-96528830D01*
X123780017Y-96228600D01*
X123490384Y-96170988D01*
X121839236Y-89650482D01*
X121592265Y-86043772D01*
X123262322Y-90657846D01*
X123236886Y-90683282D01*
X123101801Y-90880985D01*
X123047317Y-91132147D01*
X123094841Y-91384718D01*
X123236886Y-91598900D01*
X123590440Y-91952454D01*
X123788143Y-92087539D01*
X124039305Y-92142023D01*
X124122385Y-92126391D01*
X124107977Y-92192807D01*
X124155501Y-92445378D01*
X124297546Y-92659560D01*
X124651100Y-93013114D01*
X124848803Y-93148199D01*
X125099965Y-93202683D01*
X125352536Y-93155159D01*
X125450925Y-93089908D01*
X127352560Y-94319557D01*
X127352560Y-94450000D01*
X127386601Y-94630914D01*
X126475025Y-100465000D01*
X126358173Y-100465000D01*
X125770754Y-100581845D01*
X125272764Y-100914591D01*
X124940018Y-101412581D01*
X124823173Y-102000000D01*
X124940018Y-102587419D01*
X125272764Y-103085409D01*
X125770754Y-103418155D01*
X126358173Y-103535000D01*
X127641827Y-103535000D01*
X128229246Y-103418155D01*
X128727236Y-103085409D01*
X129059982Y-102587419D01*
X129176827Y-102000000D01*
X129059982Y-101412581D01*
X128727236Y-100914591D01*
X128229246Y-100581845D01*
X127993725Y-100534997D01*
X128863111Y-94970929D01*
X128951441Y-94914090D01*
X128999134Y-94844289D01*
X129035910Y-94901441D01*
X129211766Y-95021598D01*
X129616084Y-96760165D01*
X129470427Y-96978156D01*
X129365000Y-97508173D01*
X129365000Y-99091827D01*
X129470427Y-99621844D01*
X129770657Y-100071170D01*
X130219983Y-100371400D01*
X130750000Y-100476827D01*
X131280017Y-100371400D01*
X131729343Y-100071170D01*
X132029573Y-99621844D01*
X132135000Y-99091827D01*
X132135000Y-97508173D01*
X132865000Y-97508173D01*
X132865000Y-99091827D01*
X132970427Y-99621844D01*
X133270657Y-100071170D01*
X133719983Y-100371400D01*
X134250000Y-100476827D01*
X134780017Y-100371400D01*
X135229343Y-100071170D01*
X135529573Y-99621844D01*
X135635000Y-99091827D01*
X135635000Y-97508173D01*
X135529573Y-96978156D01*
X135229343Y-96528830D01*
X134780017Y-96228600D01*
X134250000Y-96123173D01*
X133719983Y-96228600D01*
X133270657Y-96528830D01*
X132970427Y-96978156D01*
X132865000Y-97508173D01*
X132135000Y-97508173D01*
X132029573Y-96978156D01*
X131729343Y-96528830D01*
X131280017Y-96228600D01*
X131032651Y-96179396D01*
X130639539Y-94489015D01*
X130647440Y-94450000D01*
X130647440Y-93550000D01*
X130603162Y-93314683D01*
X130464090Y-93098559D01*
X130251890Y-92953569D01*
X130133709Y-92929637D01*
X128768668Y-89538589D01*
X128898199Y-89349015D01*
X128952683Y-89097853D01*
X128905159Y-88845282D01*
X128763114Y-88631100D01*
X128409560Y-88277546D01*
X128211857Y-88142461D01*
X127960695Y-88087977D01*
X127879645Y-88103227D01*
X127879644Y-87901939D01*
X127782972Y-87668550D01*
X127717522Y-87603101D01*
X127493016Y-87603101D01*
X126927861Y-88168256D01*
X126943418Y-88183813D01*
X126763813Y-88363418D01*
X126748256Y-88347861D01*
X126183101Y-88913016D01*
X126183101Y-89137522D01*
X126248550Y-89202972D01*
X126481939Y-89299644D01*
X126681679Y-89299645D01*
X126667977Y-89362807D01*
X126715501Y-89615378D01*
X126857546Y-89829560D01*
X127211100Y-90183114D01*
X127408803Y-90318199D01*
X127457605Y-90328786D01*
X128493659Y-92902560D01*
X128000000Y-92902560D01*
X127956976Y-92910656D01*
X126386532Y-91895163D01*
X126345159Y-91675282D01*
X126203114Y-91461100D01*
X125849560Y-91107546D01*
X125651857Y-90972461D01*
X125400695Y-90917977D01*
X125317615Y-90933609D01*
X125332023Y-90867193D01*
X125284499Y-90614622D01*
X125142454Y-90400440D01*
X124788900Y-90046886D01*
X124602284Y-89919376D01*
X123974450Y-88184782D01*
X125619695Y-88184782D01*
X125619696Y-88437401D01*
X125716368Y-88670790D01*
X125781818Y-88736239D01*
X126006324Y-88736239D01*
X126571479Y-88171084D01*
X126146331Y-87745936D01*
X125921825Y-87745936D01*
X125716368Y-87951393D01*
X125619695Y-88184782D01*
X123974450Y-88184782D01*
X123669343Y-87341825D01*
X126325936Y-87341825D01*
X126325936Y-87566331D01*
X126751084Y-87991479D01*
X127316239Y-87426324D01*
X127316239Y-87201818D01*
X127250790Y-87136368D01*
X127017401Y-87039696D01*
X126764782Y-87039695D01*
X126531393Y-87136368D01*
X126325936Y-87341825D01*
X123669343Y-87341825D01*
X123098880Y-85765738D01*
X123101441Y-85764090D01*
X123246431Y-85551890D01*
X123297440Y-85300000D01*
X123297440Y-84600000D01*
X123253162Y-84364683D01*
X123114090Y-84148559D01*
X122901890Y-84003569D01*
X122888803Y-84000919D01*
X123101441Y-83864090D01*
X123246431Y-83651890D01*
X123297440Y-83400000D01*
X123297440Y-82700000D01*
X123253162Y-82464683D01*
X123114090Y-82248559D01*
X122918012Y-82114585D01*
X123013138Y-81530714D01*
X124879257Y-78349757D01*
X124870020Y-78392337D01*
X124917544Y-78644908D01*
X125059589Y-78859090D01*
X125287173Y-79086674D01*
X124957160Y-80169751D01*
X124952762Y-80213848D01*
X124936494Y-80255070D01*
X124702730Y-81543175D01*
X124163333Y-82082572D01*
X124028248Y-82280275D01*
X123973764Y-82531437D01*
X124021288Y-82784008D01*
X124163333Y-82998190D01*
X124658308Y-83493165D01*
X124856011Y-83628250D01*
X125107173Y-83682734D01*
X125359744Y-83635210D01*
X125370871Y-83627831D01*
X125317266Y-83874939D01*
X125364790Y-84127510D01*
X125506835Y-84341692D01*
X126001810Y-84836667D01*
X126199513Y-84971752D01*
X126450675Y-85026236D01*
X126703246Y-84978712D01*
X126829972Y-84894668D01*
X129559498Y-87608588D01*
X131691706Y-91509405D01*
X131601801Y-91640985D01*
X131547317Y-91892147D01*
X131594841Y-92144718D01*
X131736886Y-92358900D01*
X132090440Y-92712454D01*
X132288143Y-92847539D01*
X132539305Y-92902023D01*
X132622385Y-92886391D01*
X132607977Y-92952807D01*
X132655501Y-93205378D01*
X132797546Y-93419560D01*
X133151100Y-93773114D01*
X133348803Y-93908199D01*
X133599965Y-93962683D01*
X133852536Y-93915159D01*
X134066718Y-93773114D01*
X134159004Y-93680828D01*
X138378116Y-94585820D01*
X138386601Y-94630914D01*
X137475025Y-100465000D01*
X137358173Y-100465000D01*
X136770754Y-100581845D01*
X136272764Y-100914591D01*
X135940018Y-101412581D01*
X135823173Y-102000000D01*
X135940018Y-102587419D01*
X136272764Y-103085409D01*
X136770754Y-103418155D01*
X137358173Y-103535000D01*
X138641827Y-103535000D01*
X139229246Y-103418155D01*
X139727236Y-103085409D01*
X139873000Y-102867258D01*
X139873000Y-104290000D01*
X120450796Y-104290000D01*
X120493846Y-104272168D01*
X120718516Y-103898121D01*
X119000000Y-102179605D01*
X117281484Y-103898121D01*
X117506154Y-104272168D01*
X117550128Y-104290000D01*
X116710000Y-104290000D01*
X116710000Y-103450796D01*
X116727832Y-103493846D01*
X117101879Y-103718516D01*
X118820395Y-102000000D01*
X119179605Y-102000000D01*
X120898121Y-103718516D01*
X121272168Y-103493846D01*
X121670880Y-102510612D01*
X121662975Y-101449643D01*
X121272168Y-100506154D01*
X120898121Y-100281484D01*
X119179605Y-102000000D01*
X118820395Y-102000000D01*
X117101879Y-100281484D01*
X116727832Y-100506154D01*
X116710000Y-100550128D01*
X116710000Y-100101879D01*
X117281484Y-100101879D01*
X119000000Y-101820395D01*
X120718516Y-100101879D01*
X120493846Y-99727832D01*
X119510612Y-99329120D01*
X118449643Y-99337025D01*
X117506154Y-99727832D01*
X117281484Y-100101879D01*
X116710000Y-100101879D01*
X116710000Y-71125683D01*
X121286662Y-71125683D01*
X121286663Y-71378302D01*
X121383335Y-71611691D01*
X121553436Y-71781792D01*
X121777943Y-71781792D01*
X122290065Y-71269670D01*
X121760265Y-70739870D01*
X121535759Y-70739870D01*
X121383335Y-70892294D01*
X121286662Y-71125683D01*
X116710000Y-71125683D01*
X116710000Y-70335759D01*
X121939870Y-70335759D01*
X121939870Y-70560265D01*
X122469670Y-71090065D01*
X123490065Y-70069670D01*
X122960265Y-69539870D01*
X122735759Y-69539870D01*
X122583335Y-69692294D01*
X122486662Y-69925683D01*
X122486663Y-70086663D01*
X122325683Y-70086662D01*
X122092294Y-70183335D01*
X121939870Y-70335759D01*
X116710000Y-70335759D01*
X116710000Y-69135759D01*
X123139870Y-69135759D01*
X123139870Y-69360265D01*
X123669670Y-69890065D01*
X124690065Y-68869670D01*
X124160265Y-68339870D01*
X123935759Y-68339870D01*
X123783335Y-68492294D01*
X123686662Y-68725683D01*
X123686663Y-68886663D01*
X123525683Y-68886662D01*
X123292294Y-68983335D01*
X123139870Y-69135759D01*
X116710000Y-69135759D01*
X116710000Y-67935759D01*
X124339870Y-67935759D01*
X124339870Y-68160265D01*
X124869670Y-68690065D01*
X125890065Y-67669670D01*
X125360265Y-67139870D01*
X125135759Y-67139870D01*
X124983335Y-67292294D01*
X124886662Y-67525683D01*
X124886663Y-67686663D01*
X124725683Y-67686662D01*
X124492294Y-67783335D01*
X124339870Y-67935759D01*
X116710000Y-67935759D01*
X116710000Y-66735759D01*
X125539870Y-66735759D01*
X125539870Y-66960265D01*
X126069670Y-67490065D01*
X126581792Y-66977943D01*
X126581792Y-66753436D01*
X126411691Y-66583335D01*
X126178302Y-66486663D01*
X125925683Y-66486662D01*
X125692294Y-66583335D01*
X125539870Y-66735759D01*
X116710000Y-66735759D01*
X116710000Y-65898121D01*
X117281484Y-65898121D01*
X117506154Y-66272168D01*
X118489388Y-66670880D01*
X119550357Y-66662975D01*
X120493846Y-66272168D01*
X120718516Y-65898121D01*
X119000000Y-64179605D01*
X117281484Y-65898121D01*
X116710000Y-65898121D01*
X116710000Y-65450796D01*
X116727832Y-65493846D01*
X117101879Y-65718516D01*
X118820395Y-64000000D01*
X119179605Y-64000000D01*
X120898121Y-65718516D01*
X121272168Y-65493846D01*
X121670880Y-64510612D01*
X121662975Y-63449643D01*
X121272168Y-62506154D01*
X120898121Y-62281484D01*
X119179605Y-64000000D01*
X118820395Y-64000000D01*
X117101879Y-62281484D01*
X116727832Y-62506154D01*
X116710000Y-62550128D01*
X116710000Y-61710000D01*
X117549204Y-61710000D01*
X117506154Y-61727832D01*
G36*
X129096883Y-77958943D02*
X129306631Y-78169057D01*
X129476173Y-78797879D01*
X129393853Y-78880199D01*
X129258768Y-79077902D01*
X129204284Y-79329064D01*
X129251808Y-79581635D01*
X129393853Y-79795817D01*
X129924183Y-80326147D01*
X130121886Y-80461232D01*
X130373048Y-80515716D01*
X130578982Y-80476967D01*
X130962703Y-80810256D01*
X130954284Y-80849064D01*
X131001808Y-81101635D01*
X131143853Y-81315817D01*
X131674183Y-81846147D01*
X131831102Y-81953365D01*
X132929376Y-84333128D01*
X132822961Y-84488871D01*
X132768477Y-84740033D01*
X132816001Y-84992604D01*
X132958046Y-85206786D01*
X133707579Y-85956319D01*
X133905282Y-86091404D01*
X134156444Y-86145888D01*
X134365121Y-86106623D01*
X134324112Y-86295668D01*
X134371636Y-86548239D01*
X134513681Y-86762421D01*
X135263214Y-87511954D01*
X135460917Y-87647039D01*
X135712079Y-87701523D01*
X135964650Y-87653999D01*
X136178832Y-87511954D01*
X136638451Y-87052335D01*
X136718869Y-86934640D01*
X136752472Y-86920721D01*
X136869541Y-86803652D01*
X136869541Y-86579146D01*
X136812759Y-86522364D01*
X136780496Y-86350899D01*
X136703232Y-86234397D01*
X136804420Y-86303536D01*
X136994340Y-86344735D01*
X137049146Y-86399541D01*
X137239431Y-86399541D01*
X139514804Y-88416907D01*
X139375162Y-88753201D01*
X139374838Y-89125167D01*
X139516883Y-89468943D01*
X139779673Y-89732192D01*
X139873000Y-89770945D01*
X139873000Y-92091559D01*
X139007122Y-91248567D01*
X138954836Y-91214634D01*
X138911598Y-91169733D01*
X138832341Y-91135138D01*
X138759800Y-91088060D01*
X138698506Y-91076719D01*
X138641378Y-91051783D01*
X137339767Y-90767245D01*
X137244090Y-90618559D01*
X137175994Y-90572031D01*
X137318327Y-90429698D01*
X137415000Y-90196309D01*
X137415000Y-90103750D01*
X137256250Y-89945000D01*
X136457000Y-89945000D01*
X136457000Y-89967000D01*
X136203000Y-89967000D01*
X136203000Y-89945000D01*
X135403750Y-89945000D01*
X135366848Y-89981902D01*
X134309378Y-89443691D01*
X135245000Y-89443691D01*
X135245000Y-89536250D01*
X135403750Y-89695000D01*
X136203000Y-89695000D01*
X136203000Y-89093750D01*
X136457000Y-89093750D01*
X136457000Y-89695000D01*
X137256250Y-89695000D01*
X137415000Y-89536250D01*
X137415000Y-89443691D01*
X137318327Y-89210302D01*
X137139699Y-89031673D01*
X136906310Y-88935000D01*
X136615750Y-88935000D01*
X136457000Y-89093750D01*
X136203000Y-89093750D01*
X136044250Y-88935000D01*
X135753690Y-88935000D01*
X135520301Y-89031673D01*
X135341673Y-89210302D01*
X135245000Y-89443691D01*
X134309378Y-89443691D01*
X134029065Y-89301023D01*
X129367385Y-83442812D01*
X128662778Y-80414161D01*
X128980411Y-80096528D01*
X129115496Y-79898825D01*
X129169980Y-79647663D01*
X129122456Y-79395092D01*
X128980411Y-79180910D01*
X128763988Y-78964487D01*
X129090294Y-77942997D01*
X129096883Y-77958943D01*
X129096883Y-77958943D01*
G37*
X129096883Y-77958943D02*
X129306631Y-78169057D01*
X129476173Y-78797879D01*
X129393853Y-78880199D01*
X129258768Y-79077902D01*
X129204284Y-79329064D01*
X129251808Y-79581635D01*
X129393853Y-79795817D01*
X129924183Y-80326147D01*
X130121886Y-80461232D01*
X130373048Y-80515716D01*
X130578982Y-80476967D01*
X130962703Y-80810256D01*
X130954284Y-80849064D01*
X131001808Y-81101635D01*
X131143853Y-81315817D01*
X131674183Y-81846147D01*
X131831102Y-81953365D01*
X132929376Y-84333128D01*
X132822961Y-84488871D01*
X132768477Y-84740033D01*
X132816001Y-84992604D01*
X132958046Y-85206786D01*
X133707579Y-85956319D01*
X133905282Y-86091404D01*
X134156444Y-86145888D01*
X134365121Y-86106623D01*
X134324112Y-86295668D01*
X134371636Y-86548239D01*
X134513681Y-86762421D01*
X135263214Y-87511954D01*
X135460917Y-87647039D01*
X135712079Y-87701523D01*
X135964650Y-87653999D01*
X136178832Y-87511954D01*
X136638451Y-87052335D01*
X136718869Y-86934640D01*
X136752472Y-86920721D01*
X136869541Y-86803652D01*
X136869541Y-86579146D01*
X136812759Y-86522364D01*
X136780496Y-86350899D01*
X136703232Y-86234397D01*
X136804420Y-86303536D01*
X136994340Y-86344735D01*
X137049146Y-86399541D01*
X137239431Y-86399541D01*
X139514804Y-88416907D01*
X139375162Y-88753201D01*
X139374838Y-89125167D01*
X139516883Y-89468943D01*
X139779673Y-89732192D01*
X139873000Y-89770945D01*
X139873000Y-92091559D01*
X139007122Y-91248567D01*
X138954836Y-91214634D01*
X138911598Y-91169733D01*
X138832341Y-91135138D01*
X138759800Y-91088060D01*
X138698506Y-91076719D01*
X138641378Y-91051783D01*
X137339767Y-90767245D01*
X137244090Y-90618559D01*
X137175994Y-90572031D01*
X137318327Y-90429698D01*
X137415000Y-90196309D01*
X137415000Y-90103750D01*
X137256250Y-89945000D01*
X136457000Y-89945000D01*
X136457000Y-89967000D01*
X136203000Y-89967000D01*
X136203000Y-89945000D01*
X135403750Y-89945000D01*
X135366848Y-89981902D01*
X134309378Y-89443691D01*
X135245000Y-89443691D01*
X135245000Y-89536250D01*
X135403750Y-89695000D01*
X136203000Y-89695000D01*
X136203000Y-89093750D01*
X136457000Y-89093750D01*
X136457000Y-89695000D01*
X137256250Y-89695000D01*
X137415000Y-89536250D01*
X137415000Y-89443691D01*
X137318327Y-89210302D01*
X137139699Y-89031673D01*
X136906310Y-88935000D01*
X136615750Y-88935000D01*
X136457000Y-89093750D01*
X136203000Y-89093750D01*
X136044250Y-88935000D01*
X135753690Y-88935000D01*
X135520301Y-89031673D01*
X135341673Y-89210302D01*
X135245000Y-89443691D01*
X134309378Y-89443691D01*
X134029065Y-89301023D01*
X129367385Y-83442812D01*
X128662778Y-80414161D01*
X128980411Y-80096528D01*
X129115496Y-79898825D01*
X129169980Y-79647663D01*
X129122456Y-79395092D01*
X128980411Y-79180910D01*
X128763988Y-78964487D01*
X129090294Y-77942997D01*
X129096883Y-77958943D01*
G36*
X131654078Y-78245528D02*
X131639935Y-78259670D01*
X132152057Y-78771792D01*
X132376564Y-78771792D01*
X132546665Y-78601691D01*
X132643337Y-78368302D01*
X132643337Y-78279229D01*
X132725683Y-78313338D01*
X132978302Y-78313337D01*
X133211691Y-78216665D01*
X133262985Y-78165371D01*
X133135162Y-78473201D01*
X133135054Y-78596663D01*
X133101698Y-78596663D01*
X132868309Y-78693335D01*
X132698208Y-78863436D01*
X132698208Y-79087943D01*
X133210330Y-79600065D01*
X133224473Y-79585923D01*
X133404078Y-79765528D01*
X133389935Y-79779670D01*
X133902057Y-80291792D01*
X134126564Y-80291792D01*
X134227097Y-80191259D01*
X134355910Y-80391441D01*
X134568110Y-80536431D01*
X134820000Y-80587440D01*
X135444115Y-80587440D01*
X135444528Y-80606423D01*
X135445839Y-80612338D01*
X135444881Y-80618317D01*
X135477683Y-80756030D01*
X135508320Y-80894279D01*
X135511793Y-80899240D01*
X135513197Y-80905133D01*
X135596232Y-81019851D01*
X135677414Y-81135811D01*
X135682520Y-81139065D01*
X135686073Y-81143973D01*
X139706149Y-84873441D01*
X139873000Y-85313850D01*
X139873000Y-86714722D01*
X138159375Y-85195407D01*
X138123999Y-85007396D01*
X137981954Y-84793214D01*
X137232421Y-84043681D01*
X137034718Y-83908596D01*
X136783556Y-83854112D01*
X136574879Y-83893377D01*
X136615888Y-83704332D01*
X136568364Y-83451761D01*
X136426319Y-83237579D01*
X135676786Y-82488046D01*
X135479083Y-82352961D01*
X135227921Y-82298477D01*
X134975350Y-82346001D01*
X134761168Y-82488046D01*
X134301549Y-82947665D01*
X134166464Y-83145368D01*
X134127849Y-83323374D01*
X133173122Y-81254651D01*
X133290572Y-81082758D01*
X133316621Y-80962677D01*
X133318962Y-80962677D01*
X133552351Y-80866005D01*
X133722452Y-80695904D01*
X133722452Y-80471397D01*
X133210330Y-79959275D01*
X133196188Y-79973418D01*
X133016583Y-79793813D01*
X133030725Y-79779670D01*
X132518603Y-79267548D01*
X132294096Y-79267548D01*
X132123995Y-79437649D01*
X132027323Y-79671038D01*
X132027323Y-79672974D01*
X131970358Y-79683693D01*
X131652862Y-79407925D01*
X131802351Y-79346005D01*
X131972452Y-79175904D01*
X131972452Y-78951397D01*
X131460330Y-78439275D01*
X131446188Y-78453418D01*
X131266583Y-78273813D01*
X131280725Y-78259670D01*
X131266583Y-78245528D01*
X131446188Y-78065923D01*
X131460330Y-78080065D01*
X131474473Y-78065923D01*
X131654078Y-78245528D01*
X131654078Y-78245528D01*
G37*
X131654078Y-78245528D02*
X131639935Y-78259670D01*
X132152057Y-78771792D01*
X132376564Y-78771792D01*
X132546665Y-78601691D01*
X132643337Y-78368302D01*
X132643337Y-78279229D01*
X132725683Y-78313338D01*
X132978302Y-78313337D01*
X133211691Y-78216665D01*
X133262985Y-78165371D01*
X133135162Y-78473201D01*
X133135054Y-78596663D01*
X133101698Y-78596663D01*
X132868309Y-78693335D01*
X132698208Y-78863436D01*
X132698208Y-79087943D01*
X133210330Y-79600065D01*
X133224473Y-79585923D01*
X133404078Y-79765528D01*
X133389935Y-79779670D01*
X133902057Y-80291792D01*
X134126564Y-80291792D01*
X134227097Y-80191259D01*
X134355910Y-80391441D01*
X134568110Y-80536431D01*
X134820000Y-80587440D01*
X135444115Y-80587440D01*
X135444528Y-80606423D01*
X135445839Y-80612338D01*
X135444881Y-80618317D01*
X135477683Y-80756030D01*
X135508320Y-80894279D01*
X135511793Y-80899240D01*
X135513197Y-80905133D01*
X135596232Y-81019851D01*
X135677414Y-81135811D01*
X135682520Y-81139065D01*
X135686073Y-81143973D01*
X139706149Y-84873441D01*
X139873000Y-85313850D01*
X139873000Y-86714722D01*
X138159375Y-85195407D01*
X138123999Y-85007396D01*
X137981954Y-84793214D01*
X137232421Y-84043681D01*
X137034718Y-83908596D01*
X136783556Y-83854112D01*
X136574879Y-83893377D01*
X136615888Y-83704332D01*
X136568364Y-83451761D01*
X136426319Y-83237579D01*
X135676786Y-82488046D01*
X135479083Y-82352961D01*
X135227921Y-82298477D01*
X134975350Y-82346001D01*
X134761168Y-82488046D01*
X134301549Y-82947665D01*
X134166464Y-83145368D01*
X134127849Y-83323374D01*
X133173122Y-81254651D01*
X133290572Y-81082758D01*
X133316621Y-80962677D01*
X133318962Y-80962677D01*
X133552351Y-80866005D01*
X133722452Y-80695904D01*
X133722452Y-80471397D01*
X133210330Y-79959275D01*
X133196188Y-79973418D01*
X133016583Y-79793813D01*
X133030725Y-79779670D01*
X132518603Y-79267548D01*
X132294096Y-79267548D01*
X132123995Y-79437649D01*
X132027323Y-79671038D01*
X132027323Y-79672974D01*
X131970358Y-79683693D01*
X131652862Y-79407925D01*
X131802351Y-79346005D01*
X131972452Y-79175904D01*
X131972452Y-78951397D01*
X131460330Y-78439275D01*
X131446188Y-78453418D01*
X131266583Y-78273813D01*
X131280725Y-78259670D01*
X131266583Y-78245528D01*
X131446188Y-78065923D01*
X131460330Y-78080065D01*
X131474473Y-78065923D01*
X131654078Y-78245528D01*
G36*
X133063418Y-77116188D02*
X133049275Y-77130330D01*
X133561397Y-77642452D01*
X133785904Y-77642452D01*
X133956005Y-77472351D01*
X134052677Y-77238962D01*
X134052677Y-77237026D01*
X134156279Y-77217532D01*
X134173550Y-77206078D01*
X134375909Y-77360575D01*
X134909679Y-77992560D01*
X134820000Y-77992560D01*
X134739906Y-78007631D01*
X134600327Y-77867808D01*
X134256799Y-77725162D01*
X133884833Y-77724838D01*
X133541057Y-77866883D01*
X133381792Y-78025870D01*
X133381792Y-77822057D01*
X132869670Y-77309935D01*
X132855528Y-77324078D01*
X132675923Y-77144473D01*
X132690065Y-77130330D01*
X132675923Y-77116188D01*
X132855528Y-76936583D01*
X132869670Y-76950725D01*
X132883813Y-76936583D01*
X133063418Y-77116188D01*
X133063418Y-77116188D01*
G37*
X133063418Y-77116188D02*
X133049275Y-77130330D01*
X133561397Y-77642452D01*
X133785904Y-77642452D01*
X133956005Y-77472351D01*
X134052677Y-77238962D01*
X134052677Y-77237026D01*
X134156279Y-77217532D01*
X134173550Y-77206078D01*
X134375909Y-77360575D01*
X134909679Y-77992560D01*
X134820000Y-77992560D01*
X134739906Y-78007631D01*
X134600327Y-77867808D01*
X134256799Y-77725162D01*
X133884833Y-77724838D01*
X133541057Y-77866883D01*
X133381792Y-78025870D01*
X133381792Y-77822057D01*
X132869670Y-77309935D01*
X132855528Y-77324078D01*
X132675923Y-77144473D01*
X132690065Y-77130330D01*
X132675923Y-77116188D01*
X132855528Y-76936583D01*
X132869670Y-76950725D01*
X132883813Y-76936583D01*
X133063418Y-77116188D01*
G36*
X129593748Y-72601454D02*
X129579605Y-72615596D01*
X130584404Y-73620395D01*
X130598547Y-73606253D01*
X130778152Y-73785858D01*
X130764009Y-73800000D01*
X130778152Y-73814143D01*
X130598547Y-73993748D01*
X130584404Y-73979605D01*
X129579605Y-74984404D01*
X129593748Y-74998547D01*
X129414143Y-75178152D01*
X129400000Y-75164009D01*
X129385858Y-75178152D01*
X129206253Y-74998547D01*
X129220395Y-74984404D01*
X128215596Y-73979605D01*
X128201454Y-73993748D01*
X128021849Y-73814143D01*
X128035991Y-73800000D01*
X128395201Y-73800000D01*
X129400000Y-74804799D01*
X130404799Y-73800000D01*
X129400000Y-72795201D01*
X128395201Y-73800000D01*
X128035991Y-73800000D01*
X128021849Y-73785858D01*
X128201454Y-73606253D01*
X128215596Y-73620395D01*
X129220395Y-72615596D01*
X129206253Y-72601454D01*
X129385858Y-72421849D01*
X129400000Y-72435991D01*
X129414143Y-72421849D01*
X129593748Y-72601454D01*
X129593748Y-72601454D01*
G37*
X129593748Y-72601454D02*
X129579605Y-72615596D01*
X130584404Y-73620395D01*
X130598547Y-73606253D01*
X130778152Y-73785858D01*
X130764009Y-73800000D01*
X130778152Y-73814143D01*
X130598547Y-73993748D01*
X130584404Y-73979605D01*
X129579605Y-74984404D01*
X129593748Y-74998547D01*
X129414143Y-75178152D01*
X129400000Y-75164009D01*
X129385858Y-75178152D01*
X129206253Y-74998547D01*
X129220395Y-74984404D01*
X128215596Y-73979605D01*
X128201454Y-73993748D01*
X128021849Y-73814143D01*
X128035991Y-73800000D01*
X128395201Y-73800000D01*
X129400000Y-74804799D01*
X130404799Y-73800000D01*
X129400000Y-72795201D01*
X128395201Y-73800000D01*
X128035991Y-73800000D01*
X128021849Y-73785858D01*
X128201454Y-73606253D01*
X128215596Y-73620395D01*
X129220395Y-72615596D01*
X129206253Y-72601454D01*
X129385858Y-72421849D01*
X129400000Y-72435991D01*
X129414143Y-72421849D01*
X129593748Y-72601454D01*
M02*
